<svg width="42" height="42" viewBox="0 0 42 42" fill="none" xmlns="http://www.w3.org/2000/svg">
<rect width="42" height="42" rx="21" fill="#FCFCFC"/>
<g clip-path="url(#clip0_5335_28698)">
<path d="M30.8125 11.5312C30.8125 11.5312 30.8125 11.5312 30.7656 11.5312C28.9844 10.6875 27.1094 10.125 25.1875 9.79688C25.1406 9.75 25.0938 9.79688 25.0938 9.79688C24.8125 10.2656 24.5781 10.7812 24.3906 11.25C22.2812 10.9219 20.1719 10.9219 18.0625 11.25C17.875 10.7812 17.6406 10.2656 17.3594 9.79688C17.3594 9.79688 17.3125 9.75 17.2656 9.79688C15.3438 10.125 13.4688 10.6875 11.6875 11.5312C11.6406 11.5312 11.6406 11.5312 11.6406 11.5312C8.07812 16.875 7.09375 22.0781 7.5625 27.2344C7.5625 27.2344 7.5625 27.2812 7.60938 27.2812C9.67188 28.8281 12.0156 30 14.5 30.75C14.5 30.7969 14.5469 30.75 14.5938 30.75C15.1094 30 15.5781 29.25 16 28.4531C16 28.4062 16 28.3594 15.9531 28.3125C15.2031 28.0312 14.4531 27.7031 13.7969 27.2812C13.75 27.2812 13.7031 27.1875 13.7969 27.1406C13.9375 27.0469 14.0781 26.9531 14.2188 26.8125C14.2188 26.8125 14.2656 26.8125 14.3125 26.8125C18.8125 28.875 23.6875 28.875 28.1406 26.8125C28.1875 26.8125 28.1875 26.8125 28.2344 26.8125C28.375 26.9531 28.5156 27.0469 28.6562 27.1406C28.7031 27.1875 28.7031 27.2812 28.6562 27.2812C27.9531 27.7031 27.25 28.0312 26.5 28.3125C26.4531 28.3594 26.4531 28.4062 26.4531 28.4531C26.875 29.25 27.3438 30 27.8594 30.75C27.9062 30.75 27.9062 30.7969 27.9531 30.75C30.4375 30 32.7812 28.8281 34.8438 27.2812C34.8906 27.2812 34.8906 27.2344 34.8906 27.2344C35.4531 21.2812 33.9062 16.125 30.8125 11.5312ZM16.6562 24.0938C15.2969 24.0938 14.1719 22.8281 14.1719 21.3281C14.1719 19.7812 15.2969 18.5625 16.6562 18.5625C18.0625 18.5625 19.1406 19.7812 19.1406 21.3281C19.1406 22.8281 18.0156 24.0938 16.6562 24.0938ZM25.7969 24.0938C24.4375 24.0938 23.3594 22.8281 23.3594 21.3281C23.3594 19.7812 24.4375 18.5625 25.7969 18.5625C27.2031 18.5625 28.3281 19.7812 28.2812 21.3281C28.2812 22.8281 27.2031 24.0938 25.7969 24.0938Z" fill="#45B549"/>
</g>
<defs>
<clipPath id="clip0_5335_28698">
<rect width="30" height="30" fill="white" transform="translate(6 6.04834)"/>
</clipPath>
</defs>
</svg>
