<svg width="231" height="41" viewBox="0 0 231 41" fill="none" xmlns="http://www.w3.org/2000/svg">
<path d="M6.92004 10.8807C6.95262 10.8907 6.98746 10.8907 7.02004 10.8807C7.04604 10.8891 7.07404 10.8891 7.10004 10.8807L17.17 5.08068C17.6983 4.84338 18.2709 4.72068 18.85 4.72068C19.4292 4.72068 20.0018 4.84338 20.53 5.08068L30.59 10.8907C30.616 10.9102 30.6476 10.9207 30.68 10.9207C30.7125 10.9207 30.7441 10.9102 30.77 10.8907L34.42 7.89068C34.4306 7.86888 34.4362 7.84494 34.4362 7.82068C34.4362 7.79643 34.4306 7.77249 34.42 7.75068C34.4189 7.72652 34.412 7.70299 34.3998 7.68209C34.3876 7.6612 34.3705 7.64356 34.35 7.63068L22.88 1.00068C21.6556 0.327046 20.2774 -0.0175055 18.88 0.000684656C17.4829 -0.0156866 16.1051 0.328751 14.88 1.00068L3.29004 7.65068C3.26872 7.6636 3.25051 7.68104 3.23668 7.70178C3.22286 7.72252 3.21376 7.74604 3.21004 7.77068C3.20926 7.79552 3.21427 7.82021 3.22469 7.84277C3.2351 7.86534 3.25063 7.88516 3.27004 7.90068L6.92004 10.8807Z" fill="white"/>
<path d="M24.5102 15.8708C24.5261 15.8774 24.5431 15.8808 24.5602 15.8808C24.5774 15.8808 24.5944 15.8774 24.6102 15.8708L28.0002 13.0808C28.0327 13.0453 28.0506 12.9989 28.0502 12.9508C28.0491 12.9266 28.0421 12.9031 28.0299 12.8822C28.0178 12.8613 28.0007 12.8437 27.9802 12.8308L20.8802 8.77078C20.2494 8.44541 19.55 8.27563 18.8402 8.27563C18.1305 8.27563 17.431 8.44541 16.8002 8.77078L9.69022 12.8308C9.66974 12.8437 9.65268 12.8613 9.64049 12.8822C9.6283 12.9031 9.62135 12.9266 9.62022 12.9508C9.61536 12.975 9.61749 13 9.62634 13.023C9.63519 13.0461 9.65041 13.0661 9.67022 13.0808L13.0802 15.8308C13.1062 15.8503 13.1378 15.8608 13.1702 15.8608C13.2027 15.8608 13.2343 15.8503 13.2602 15.8308L18.7602 12.6908C18.7861 12.6759 18.8154 12.668 18.8452 12.668C18.8751 12.668 18.9044 12.6759 18.9302 12.6908L24.4302 15.8408L24.5102 15.8708Z" fill="white"/>
<path d="M15.0002 22.6907L18.7902 24.8807H18.8702H18.9502L22.6802 22.7207C22.7048 22.7065 22.7251 22.6861 22.7392 22.6615C22.7532 22.6369 22.7605 22.609 22.7602 22.5807V18.2707C22.7605 18.2423 22.7532 18.2144 22.7392 18.1898C22.7251 18.1652 22.7048 18.1448 22.6802 18.1307L19.0002 16.0007C18.9763 15.9856 18.9485 15.9775 18.9202 15.9775C18.8919 15.9775 18.8642 15.9856 18.8402 16.0007L15.7302 17.7907L15.1202 18.0907C15.0922 18.1013 15.0684 18.1206 15.0522 18.1458C15.036 18.171 15.0283 18.2008 15.0302 18.2307V21.3707L14.9802 22.5707C14.9743 22.5909 14.9731 22.6122 14.9765 22.6329C14.98 22.6537 14.9881 22.6734 15.0002 22.6907Z" fill="white"/>
<path d="M15.58 40.2206C16.5908 40.7313 17.7075 40.9973 18.84 40.9973C19.9725 40.9973 21.0892 40.7313 22.1 40.2206C22.65 39.9206 33.65 33.6206 33.65 33.6206C34.8586 32.892 35.8606 31.8663 36.5608 30.6411C37.2609 29.4158 37.6359 28.0317 37.65 26.6206V13.3306C37.6489 13.3051 37.642 13.2801 37.6298 13.2576C37.6177 13.2351 37.6007 13.2156 37.58 13.2006C37.558 13.1907 37.5341 13.1855 37.51 13.1855C37.4859 13.1855 37.462 13.1907 37.44 13.2006L33.03 14.8706C33.0159 14.8889 33.006 14.9099 33.0008 14.9323C32.9956 14.9548 32.9954 14.9781 33 15.0006C33 15.0006 33 26.5206 33 26.8206C32.9144 27.3642 32.7219 27.8853 32.4335 28.3539C32.1451 28.8225 31.7667 29.2293 31.32 29.5506L20.53 35.7606C20 35.9981 19.4258 36.1209 18.845 36.1209C18.2642 36.1209 17.69 35.9981 17.16 35.7606L6.4 29.5506C5.95334 29.2293 5.57487 28.8225 5.28649 28.3539C4.99811 27.8853 4.80557 27.3642 4.72 26.8206C4.66 26.5206 4.72 15.0006 4.72 15.0006C4.71971 14.9698 4.70996 14.9399 4.69207 14.9149C4.67418 14.8898 4.64902 14.8709 4.62 14.8606L0.21 13.1906C0.188002 13.1807 0.164139 13.1755 0.14 13.1755C0.115861 13.1755 0.091998 13.1807 0.07 13.1906C0.0493088 13.2056 0.0322694 13.2251 0.0201499 13.2476C0.00803043 13.2701 0.00114294 13.2951 0 13.3206L0 26.6406C0.0140986 28.0517 0.389064 29.4358 1.08922 30.6611C1.78937 31.8863 2.79141 32.9121 4 33.6406C4 33.6406 14.94 39.8906 15.58 40.2206Z" fill="white"/>
<path d="M16.8899 32.1207C17.4936 32.4283 18.1624 32.5861 18.8399 32.5807C19.5148 32.591 20.1815 32.4329 20.7799 32.1207L27.9999 28.0007C28.628 27.6688 29.1492 27.1657 29.5031 26.5499C29.8571 25.934 30.0293 25.2304 29.9999 24.5207V16.3807C29.9988 16.3551 29.9919 16.3302 29.9798 16.3077C29.9677 16.2852 29.9506 16.2657 29.9299 16.2507C29.9079 16.2407 29.8841 16.2356 29.8599 16.2356C29.8358 16.2356 29.8119 16.2407 29.7899 16.2507L25.6699 17.7907C25.6409 17.8009 25.6157 17.8199 25.5979 17.8449C25.58 17.8699 25.5702 17.8999 25.5699 17.9307V24.2307C25.5721 24.2555 25.5666 24.2803 25.5541 24.3018C25.5415 24.3233 25.5226 24.3404 25.4999 24.3507L18.8099 28.1207C18.7487 28.1437 18.6812 28.1437 18.6199 28.1207L12.0299 24.3507C12.0073 24.3404 11.9883 24.3233 11.9758 24.3018C11.9633 24.2803 11.9577 24.2555 11.9599 24.2307V17.9307C11.9596 17.8999 11.9499 17.8699 11.932 17.8449C11.9141 17.8199 11.8889 17.8009 11.8599 17.7907L7.81993 16.2407C7.79793 16.2307 7.77407 16.2256 7.74993 16.2256C7.72579 16.2256 7.70192 16.2307 7.67993 16.2407C7.65924 16.2557 7.6422 16.2752 7.63008 16.2977C7.61796 16.3202 7.61107 16.3451 7.60993 16.3707V24.5007C7.57932 25.2106 7.75106 25.9147 8.10514 26.5308C8.45923 27.1469 8.98109 27.6497 9.60993 27.9807L16.8899 32.1207Z" fill="white"/>
<path d="M59.8874 25.4361C59.0345 25.9298 57.9683 26.2042 56.6357 26.2042C55.3563 26.2042 54.2369 25.7104 53.2774 24.7228C52.3178 23.7353 51.8914 22.4186 51.8914 20.8275C51.8914 19.1816 52.3711 17.9197 53.3307 16.8773C54.2902 15.8898 55.5162 15.396 56.9022 15.396C57.6485 15.396 58.3415 15.5057 58.9279 15.78C59.5675 16.0544 60.2605 16.4933 61.0068 17.1516L62.9259 14.2438C61.1667 12.5979 59.0878 11.8298 56.689 11.8298C54.2902 11.8298 52.2645 12.7077 50.5587 14.4084C48.8529 16.1092 48 18.2489 48 20.7726C48 23.3512 48.8529 25.4361 50.5054 27.1369C52.1579 28.8376 54.2369 29.6606 56.689 29.6606C59.6209 29.6606 61.913 28.7279 63.5655 26.8077V20.7178H59.8341V25.4361H59.8874ZM66.9772 29.4411H70.7086V12.2687H66.9772V29.4411ZM79.8774 12.2687L72.6277 29.496H76.5724L78.1183 25.7653H85.1014L86.6473 29.496H90.592L83.3423 12.2687H79.8774ZM79.6109 22.3637L81.6898 17.3711L83.7688 22.3637H79.6109ZM104.345 23.3512L96.1359 12.2687H92.6177V29.496H96.3492V18.6878L104.292 29.496H108.023V12.2687H104.292V23.3512H104.345ZM110.795 12.2687V15.6154H115.54V29.496H119.271V15.5606H124.015V12.2139H110.795V12.2687Z" fill="white"/>
<path d="M142.02 18.2052C142.02 22.0005 139.261 24.3656 134.857 24.3656H131.568V29.041H127.748V11.9897H134.857C139.261 12.0448 142.02 14.3549 142.02 18.2052ZM138.147 18.2052C138.147 16.3351 136.98 15.235 134.645 15.235H131.568V21.1754H134.645C136.98 21.1754 138.147 20.0753 138.147 18.2052Z" fill="white"/>
<path d="M152.738 15.7852V19.3054C152.42 19.3054 152.208 19.2504 151.942 19.2504C149.926 19.2504 148.6 20.4055 148.6 22.8807V29.0411H144.938V15.9502H148.44V17.6553C149.289 16.4452 150.828 15.7852 152.738 15.7852Z" fill="white"/>
<path d="M154.33 22.496C154.33 18.5357 157.248 15.7305 161.281 15.7305C165.313 15.7305 168.231 18.5357 168.231 22.496C168.231 26.4562 165.313 29.2614 161.281 29.2614C157.248 29.2614 154.33 26.4562 154.33 22.496ZM164.517 22.496C164.517 20.2408 163.138 18.8657 161.281 18.8657C159.424 18.8657 158.044 20.2408 158.044 22.496C158.044 24.7511 159.477 26.1262 161.281 26.1262C163.085 26.1262 164.517 24.7511 164.517 22.496Z" fill="white"/>
<path d="M179.267 28.4364C178.524 28.9865 177.41 29.2615 176.296 29.2615C173.324 29.2615 171.574 27.6664 171.574 24.5862V19.1958H169.61V16.2806H171.574V13.0903H175.235V16.2806H178.365V19.1958H175.235V24.5312C175.235 25.6312 175.818 26.2363 176.826 26.2363C177.357 26.2363 177.888 26.0713 178.312 25.7412L179.267 28.4364Z" fill="white"/>
<path d="M180.323 22.3495C180.323 18.3892 183.241 15.584 187.274 15.584C191.306 15.584 194.225 18.3892 194.225 22.3495C194.225 26.3098 191.306 29.115 187.274 29.115C183.241 29.115 180.323 26.3098 180.323 22.3495ZM190.511 22.3495C190.511 20.0943 189.131 18.7192 187.274 18.7192C185.417 18.7192 184.037 20.0943 184.037 22.3495C184.037 24.6046 185.47 25.9797 187.274 25.9797C189.078 25.9797 190.511 24.6046 190.511 22.3495Z" fill="white"/>
<path d="M196.353 22.496C196.353 18.5357 199.271 15.7305 203.41 15.7305C206.063 15.7305 208.132 16.9406 209.087 19.0857L206.222 20.6808C205.532 19.4157 204.524 18.8657 203.357 18.8657C201.5 18.8657 200.067 20.1858 200.067 22.496C200.067 24.8061 201.5 26.1262 203.357 26.1262C204.524 26.1262 205.532 25.5762 206.222 24.3111L209.087 25.9062C208.185 27.9964 206.063 29.2064 203.41 29.2064C199.271 29.2614 196.353 26.4562 196.353 22.496Z" fill="white"/>
<path d="M210.52 22.496C210.52 18.5357 213.438 15.7305 217.47 15.7305C221.503 15.7305 224.421 18.5357 224.421 22.496C224.421 26.4562 221.503 29.2614 217.47 29.2614C213.438 29.2614 210.52 26.4562 210.52 22.496ZM220.707 22.496C220.707 20.2408 219.327 18.8657 217.47 18.8657C215.613 18.8657 214.234 20.2408 214.234 22.496C214.234 24.7511 215.666 26.1262 217.47 26.1262C219.274 26.1262 220.707 24.7511 220.707 22.496Z" fill="white"/>
<path d="M227.339 11H231V29.0413H227.339V11Z" fill="white"/>
</svg>
