<svg width="192" height="41" viewBox="0 0 192 41" fill="none" xmlns="http://www.w3.org/2000/svg">
<path d="M62.237 25.4363C61.3841 25.9301 60.318 26.2044 58.9853 26.2044C57.7059 26.2044 56.5865 25.7106 55.627 24.7231C54.6675 23.7355 54.241 22.4188 54.241 20.8278C54.241 19.1818 54.7208 17.92 55.6803 16.8776C56.6398 15.89 57.8659 15.3962 59.2518 15.3962C59.9981 15.3962 60.6911 15.506 61.2775 15.7803C61.9172 16.0546 62.6101 16.4935 63.3564 17.1519L65.2755 14.2441C63.5164 12.5982 61.4374 11.8301 59.0386 11.8301C56.6398 11.8301 54.6141 12.7079 52.9083 14.4087C51.2025 16.1095 50.3496 18.2491 50.3496 20.7729C50.3496 23.3515 51.2025 25.4363 52.855 27.1371C54.5075 28.8379 56.5865 29.6608 59.0386 29.6608C61.9705 29.6608 64.2627 28.7281 65.9152 26.8079V20.718H62.1837V25.4363H62.237ZM69.3268 29.4414H73.0583V12.269H69.3268V29.4414ZM82.227 12.269L74.9773 29.4962H78.922L80.4679 25.7655H87.451L88.9969 29.4962H92.9416L85.6919 12.269H82.227ZM81.9605 22.3639L84.0394 17.3713L86.1184 22.3639H81.9605ZM106.695 23.3515L98.4855 12.269H94.9673V29.4962H98.6988V18.6881L106.641 29.4962H110.373V12.269H106.641V23.3515H106.695ZM113.145 12.269V15.6157H117.889V29.4962H121.621V15.5608H126.365V12.2141H113.145V12.269Z" fill="white"/>
<path d="M7.308 10.8802C7.33646 10.9031 7.37258 10.9157 7.40993 10.9157C7.43871 10.9161 7.46703 10.9088 7.49167 10.8947L18.1256 5.08166C19.0036 4.60073 20.7971 4.60073 21.6761 5.08166L32.3033 10.8938C32.3318 10.9099 32.3648 10.9172 32.3979 10.9147C32.431 10.9123 32.4624 10.9002 32.4879 10.8802L36.3394 7.89803C36.3598 7.88197 36.3758 7.86152 36.3862 7.83839C36.3966 7.81525 36.401 7.7901 36.399 7.76504C36.3964 7.7403 36.3877 7.71647 36.3737 7.69545C36.3597 7.67442 36.3407 7.65677 36.3182 7.6439L24.1629 1.00194C22.9878 0.357055 21.4703 0 19.9009 0C18.3314 0 16.8139 0.354322 15.6369 1.00194L3.47869 7.65118C3.45565 7.66341 3.43619 7.6809 3.42208 7.70205C3.40797 7.72321 3.39967 7.74736 3.39791 7.77233C3.39598 7.7973 3.40028 7.82235 3.41047 7.84546C3.42066 7.86856 3.43646 7.88907 3.45657 7.90531L7.308 10.8802Z" fill="white"/>
<path d="M25.8809 15.8692C25.9176 15.869 25.9532 15.8571 25.9819 15.8355L29.5804 13.081C29.6006 13.0658 29.6165 13.046 29.6267 13.0236C29.6369 13.0011 29.6412 12.9767 29.6391 12.9523C29.637 12.9279 29.6286 12.9044 29.6147 12.8838C29.6008 12.8632 29.5818 12.8462 29.5593 12.8342L22.0526 8.77633C20.8284 8.11323 18.9753 8.11141 17.7425 8.77633L10.2367 12.836C10.2147 12.8482 10.196 12.8653 10.1823 12.8857C10.1686 12.9062 10.1602 12.9294 10.1579 12.9535C10.1555 12.9779 10.1596 13.0024 10.1699 13.0248C10.1801 13.0473 10.1962 13.0669 10.2165 13.0819L13.817 15.8327C13.8426 15.8519 13.8736 15.8635 13.9061 15.8659C13.9387 15.8683 13.9712 15.8615 13.9997 15.8464C13.9997 15.8464 19.7696 12.7304 19.8081 12.7076C19.8346 12.6922 19.865 12.6841 19.8961 12.6841C19.9271 12.6841 19.9576 12.6922 19.9841 12.7076C20.0129 12.7258 25.8011 15.8528 25.8011 15.8528C25.8254 15.8659 25.853 15.8725 25.8809 15.8719" fill="white"/>
<path d="M15.8445 22.6874L19.8411 24.8735C19.8666 24.8874 19.8955 24.8946 19.9248 24.8944C19.9539 24.895 19.9826 24.8877 20.0075 24.8735L23.9503 22.7175C23.9753 22.7032 23.9961 22.683 24.0106 22.6589C24.0251 22.6349 24.0328 22.6077 24.033 22.58V18.2716C24.0326 18.2442 24.0248 18.2173 24.0103 18.1935C23.9959 18.1698 23.9752 18.1499 23.9503 18.1359L20.0075 15.9799C19.9821 15.9665 19.9534 15.9595 19.9243 15.9595C19.8952 15.9595 19.8666 15.9665 19.8411 15.9799L16.5629 17.7752L15.9128 18.0694C15.8843 18.0821 15.8601 18.1022 15.8431 18.1273C15.8261 18.1525 15.8169 18.1816 15.8166 18.2115V21.3558L15.7608 22.5463C15.7598 22.5749 15.7669 22.6034 15.7814 22.6285C15.796 22.6537 15.8175 22.6747 15.8436 22.6893" fill="white"/>
<path d="M16.452 40.2249C18.206 41.0957 20.9448 41.409 23.3345 40.2249C23.9202 39.9243 35.5293 33.6258 35.5293 33.6258C37.542 32.4216 39.7942 30.1108 39.7942 26.6413V13.3319C39.794 13.3067 39.7873 13.282 39.7745 13.2599C39.7618 13.2378 39.7434 13.219 39.7211 13.2053C39.6996 13.1908 39.6746 13.1817 39.6483 13.1789C39.6221 13.176 39.5955 13.1795 39.5711 13.1889L34.9225 14.8612C34.8916 14.8721 34.865 14.8916 34.8461 14.9172C34.8272 14.9427 34.817 14.9731 34.8167 15.0042C34.8167 15.0042 34.8782 26.5174 34.8071 26.8253C34.7013 27.8027 33.8589 29.1025 33.0415 29.547L21.6738 35.7635C20.7948 36.2454 19.0013 36.2454 18.1233 35.7635L6.75466 29.547C5.93725 29.0997 5.09581 27.8027 4.99098 26.8253C4.91982 26.5174 4.98041 15.0042 4.98041 15.0042C4.98035 14.9731 4.97029 14.9428 4.95156 14.9172C4.93283 14.8917 4.90633 14.8722 4.87559 14.8612L0.226951 13.1889C0.202073 13.179 0.174987 13.175 0.148112 13.1774C0.121236 13.1798 0.0954074 13.1885 0.0729314 13.2027C0.0504555 13.2168 0.0320318 13.2361 0.0193057 13.2586C0.00657967 13.2812 -5.28617e-05 13.3063 3.17281e-07 13.3319V26.6441C3.17281e-07 30.1135 2.25219 32.4243 4.26397 33.6285C4.26397 33.6285 15.7711 39.8897 16.4481 40.2249" fill="white"/>
<path d="M17.8384 32.1177C18.4742 32.4308 19.1816 32.5913 19.8982 32.585C20.6088 32.591 21.3104 32.4347 21.9437 32.1295L29.6003 27.9961C31.1005 27.2009 31.7554 25.9858 31.7554 24.512V16.379C31.7555 16.3546 31.7493 16.3305 31.7372 16.3088C31.7251 16.2872 31.7076 16.2688 31.6862 16.2551C31.6647 16.241 31.6399 16.2321 31.6139 16.2291C31.5879 16.2261 31.5616 16.2291 31.5371 16.2378L27.1885 17.7863C27.1583 17.797 27.1321 17.8161 27.1136 17.8411C27.095 17.8662 27.085 17.896 27.0847 17.9266V24.2215C27.0858 24.2472 27.0793 24.2727 27.0658 24.2951C27.0524 24.3175 27.0326 24.3358 27.0087 24.3481C26.9577 24.3709 19.9473 28.1108 19.9473 28.1108C19.916 28.1242 19.8821 28.1312 19.8477 28.1312C19.8134 28.1312 19.7795 28.1242 19.7482 28.1108L12.7897 24.3454C12.7654 24.3335 12.7452 24.3152 12.7315 24.2928C12.7179 24.2703 12.7114 24.2446 12.7127 24.2187V17.9238C12.7127 17.8933 12.7028 17.8635 12.6844 17.8385C12.666 17.8134 12.64 17.7943 12.6098 17.7835L8.26029 16.2351C8.236 16.2263 8.20979 16.2232 8.18396 16.2262C8.15813 16.2292 8.13349 16.2382 8.11219 16.2524C8.09054 16.2659 8.07277 16.2843 8.06052 16.3059C8.04826 16.3275 8.04189 16.3517 8.04199 16.3763V24.5093C8.04199 25.9831 8.69784 27.1982 10.1971 27.9933L17.8384 32.1177Z" fill="white"/>
<path d="M138.956 30.312C137.656 30.312 136.503 30.0347 135.498 29.48C134.493 28.9253 133.704 28.1453 133.132 27.14C132.56 26.1347 132.274 24.9733 132.274 23.656C132.274 22.3213 132.551 21.134 133.106 20.094C133.678 19.054 134.458 18.248 135.446 17.676C136.451 17.0867 137.63 16.792 138.982 16.792C140.247 16.792 141.365 17.0693 142.336 17.624C143.307 18.1787 144.061 18.9413 144.598 19.912C145.153 20.8653 145.43 21.9313 145.43 23.11C145.43 23.3007 145.421 23.5 145.404 23.708C145.404 23.916 145.395 24.1327 145.378 24.358H135.576C135.645 25.3633 135.992 26.152 136.616 26.724C137.257 27.296 138.029 27.582 138.93 27.582C139.606 27.582 140.169 27.4347 140.62 27.14C141.088 26.828 141.435 26.4293 141.66 25.944H145.04C144.797 26.7587 144.39 27.504 143.818 28.18C143.263 28.8387 142.57 29.3587 141.738 29.74C140.923 30.1213 139.996 30.312 138.956 30.312ZM138.982 19.496C138.167 19.496 137.448 19.73 136.824 20.198C136.2 20.6487 135.801 21.342 135.628 22.278H142.05C141.998 21.4287 141.686 20.7527 141.114 20.25C140.542 19.7473 139.831 19.496 138.982 19.496ZM154.521 30.312C153.186 30.312 152.008 30.0867 150.985 29.636C149.962 29.168 149.156 28.5093 148.567 27.66C147.978 26.7933 147.674 25.7447 147.657 24.514H151.167C151.202 25.3633 151.505 26.0827 152.077 26.672C152.666 27.244 153.472 27.53 154.495 27.53C155.379 27.53 156.081 27.322 156.601 26.906C157.121 26.4727 157.381 25.9007 157.381 25.19C157.381 24.4447 157.147 23.864 156.679 23.448C156.228 23.032 155.622 22.694 154.859 22.434C154.096 22.174 153.282 21.8967 152.415 21.602C151.011 21.1167 149.936 20.4927 149.191 19.73C148.463 18.9673 148.099 17.9533 148.099 16.688C148.082 15.6133 148.333 14.6947 148.853 13.932C149.39 13.152 150.118 12.554 151.037 12.138C151.956 11.7047 153.013 11.488 154.209 11.488C155.422 11.488 156.488 11.7047 157.407 12.138C158.343 12.5713 159.071 13.178 159.591 13.958C160.128 14.738 160.414 15.6653 160.449 16.74H156.887C156.87 16.0987 156.618 15.5353 156.133 15.05C155.665 14.5473 155.006 14.296 154.157 14.296C153.429 14.2787 152.814 14.4607 152.311 14.842C151.826 15.206 151.583 15.7433 151.583 16.454C151.583 17.0607 151.774 17.546 152.155 17.91C152.536 18.2567 153.056 18.5513 153.715 18.794C154.374 19.0367 155.128 19.2967 155.977 19.574C156.878 19.886 157.702 20.25 158.447 20.666C159.192 21.082 159.79 21.6367 160.241 22.33C160.692 23.006 160.917 23.8813 160.917 24.956C160.917 25.9093 160.674 26.7933 160.189 27.608C159.704 28.4227 158.984 29.0813 158.031 29.584C157.078 30.0693 155.908 30.312 154.521 30.312ZM163.821 30V11.8H167.149V30H163.821ZM170.676 30V11.8H174.628L180.426 23.344L186.146 11.8H190.098V30H186.77V17.442L181.7 27.4H179.074L174.004 17.442V30H170.676Z" fill="white"/>
</svg>
