<svg width="270" height="46" viewBox="0 0 270 46" fill="none" xmlns="http://www.w3.org/2000/svg">
<path d="M8.17475 12.1697C8.20659 12.1954 8.247 12.2094 8.28877 12.2095C8.32096 12.2099 8.35264 12.2018 8.3802 12.186L20.2746 5.68397C21.2566 5.14603 23.2627 5.14603 24.2458 5.68397L36.1326 12.185C36.1645 12.203 36.2015 12.2112 36.2384 12.2084C36.2754 12.2057 36.3106 12.1922 36.3391 12.1697L40.6471 8.83414C40.6699 8.81618 40.6879 8.79331 40.6995 8.76743C40.7111 8.74156 40.716 8.71343 40.7137 8.68539C40.7108 8.65772 40.7011 8.63107 40.6854 8.60755C40.6698 8.58403 40.6485 8.56429 40.6234 8.54989L27.0274 1.1207C25.713 0.399375 24.0156 0 22.2602 0C20.5047 0 18.8074 0.396319 17.4908 1.1207L3.89158 8.55804C3.8658 8.57172 3.84404 8.59128 3.82826 8.61494C3.81248 8.6386 3.80319 8.66562 3.80123 8.69354C3.79906 8.72148 3.80387 8.7495 3.81527 8.77534C3.82667 8.80119 3.84434 8.82412 3.86684 8.84229L8.17475 12.1697Z" fill="url(#paint0_linear_9849_26546)"/>
<path d="M28.9487 17.7498C28.9897 17.7496 29.0295 17.7363 29.0616 17.7121L33.0867 14.6312C33.1092 14.6142 33.127 14.5921 33.1384 14.567C33.1499 14.5419 33.1546 14.5145 33.1523 14.4872C33.15 14.46 33.1406 14.4337 33.125 14.4106C33.1095 14.3876 33.0882 14.3685 33.063 14.3551L24.6666 9.81631C23.2973 9.07462 21.2246 9.07258 19.8456 9.81631L11.4503 14.3572C11.4256 14.3708 11.4047 14.3899 11.3894 14.4128C11.374 14.4356 11.3647 14.4616 11.3621 14.4886C11.3594 14.5158 11.364 14.5433 11.3755 14.5684C11.3869 14.5935 11.4049 14.6154 11.4277 14.6323L15.4549 17.7091C15.4835 17.7305 15.5182 17.7435 15.5546 17.7462C15.591 17.7489 15.6274 17.7413 15.6592 17.7244C15.6592 17.7244 22.113 14.239 22.1561 14.2135C22.1857 14.1963 22.2197 14.1872 22.2545 14.1872C22.2892 14.1872 22.3233 14.1963 22.3529 14.2135C22.3852 14.2339 28.8594 17.7315 28.8594 17.7315C28.8866 17.7462 28.9174 17.7536 28.9487 17.7529" fill="url(#paint1_linear_9849_26546)"/>
<path d="M17.7227 25.3766L22.193 27.8218C22.2214 27.8373 22.2537 27.8454 22.2866 27.8452C22.3191 27.8458 22.3512 27.8376 22.3791 27.8218L26.7892 25.4102C26.8172 25.3942 26.8404 25.3716 26.8566 25.3447C26.8728 25.3178 26.8814 25.2874 26.8817 25.2564V20.4374C26.8813 20.4067 26.8726 20.3766 26.8564 20.35C26.8402 20.3235 26.817 20.3013 26.7892 20.2856L22.3791 17.874C22.3506 17.8591 22.3186 17.8512 22.286 17.8512C22.2535 17.8512 22.2215 17.8591 22.193 17.874L18.5262 19.8821L17.799 20.2112C17.7671 20.2254 17.7401 20.2479 17.7211 20.276C17.702 20.3041 17.6918 20.3367 17.6915 20.3701V23.8871L17.6291 25.2187C17.6279 25.2508 17.6358 25.2826 17.6521 25.3107C17.6684 25.3389 17.6924 25.3623 17.7216 25.3786" fill="url(#paint2_linear_9849_26546)"/>
<path d="M18.402 44.9927C20.3639 45.9667 23.4273 46.3171 26.1003 44.9927C26.7553 44.6565 39.7404 37.6114 39.7404 37.6114C41.9917 36.2645 44.5108 33.6798 44.5108 29.7991V14.9122C44.5106 14.884 44.5031 14.8563 44.4888 14.8316C44.4745 14.8069 44.454 14.7859 44.4291 14.7706C44.405 14.7544 44.377 14.7442 44.3477 14.741C44.3183 14.7378 44.2886 14.7417 44.2613 14.7522L39.0617 16.6228C39.0272 16.635 38.9974 16.6568 38.9762 16.6853C38.9551 16.7139 38.9436 16.7479 38.9433 16.7827C38.9433 16.7827 39.0122 29.6605 38.9326 30.0049C38.8143 31.0981 37.872 32.5519 36.9577 33.0491L24.2426 40.0025C23.2595 40.5415 21.2535 40.5415 20.2714 40.0025L7.55525 33.0491C6.64097 32.5489 5.69979 31.0981 5.58254 30.0049C5.50295 29.6605 5.57071 16.7827 5.57071 16.7827C5.57064 16.7479 5.55939 16.714 5.53844 16.6854C5.5175 16.6568 5.48785 16.635 5.45347 16.6228L0.25385 14.7522C0.226024 14.7411 0.195728 14.7367 0.165667 14.7394C0.135606 14.7421 0.106716 14.7518 0.0815756 14.7676C0.0564357 14.7835 0.0358284 14.805 0.021594 14.8302C0.00735952 14.8554 -5.91271e-05 14.8836 3.54887e-07 14.9122V29.8022C3.54887e-07 33.6828 2.51914 36.2676 4.76936 37.6144C4.76936 37.6144 17.6404 44.6178 18.3976 44.9927" fill="url(#paint3_linear_9849_26546)"/>
<path d="M19.9536 35.9247C20.6648 36.275 21.456 36.4544 22.2576 36.4474C23.0523 36.4541 23.8371 36.2793 24.5455 35.9379L33.1097 31.3146C34.7876 30.4251 35.5202 29.066 35.5202 27.4176V18.3206C35.5203 18.2932 35.5133 18.2663 35.4998 18.2421C35.4863 18.2179 35.4667 18.1973 35.4427 18.182C35.4186 18.1663 35.3909 18.1563 35.3619 18.1529C35.3328 18.1495 35.3034 18.1529 35.276 18.1627L30.412 19.8947C30.3781 19.9066 30.3489 19.928 30.3282 19.956C30.3074 19.984 30.2961 20.0173 30.2958 20.0516V27.0926C30.297 27.1214 30.2897 27.1499 30.2747 27.1749C30.2597 27.2 30.2376 27.2205 30.2108 27.2342C30.1538 27.2597 22.3124 31.4429 22.3124 31.4429C22.2775 31.4579 22.2395 31.4657 22.2011 31.4657C22.1627 31.4657 22.1248 31.4579 22.0898 31.4429L14.3065 27.2311C14.2793 27.2179 14.2567 27.1975 14.2415 27.1723C14.2262 27.1472 14.2189 27.1185 14.2204 27.0895V20.0485C14.2203 20.0144 14.2093 19.9811 14.1887 19.9531C14.1682 19.925 14.1391 19.9036 14.1054 19.8916L9.24026 18.1596C9.21309 18.1497 9.18377 18.1463 9.15489 18.1497C9.126 18.1531 9.09843 18.1631 9.07462 18.179C9.05039 18.1941 9.03052 18.2146 9.01681 18.2388C9.0031 18.263 8.99598 18.2901 8.9961 18.3175V27.4145C8.9961 29.063 9.72968 30.4221 11.4066 31.3115L19.9536 35.9247Z" fill="url(#paint4_linear_9849_26546)"/>
<path d="M165.956 34.312C164.656 34.312 163.503 34.0347 162.498 33.48C161.493 32.9253 160.704 32.1453 160.132 31.14C159.56 30.1347 159.274 28.9733 159.274 27.656C159.274 26.3213 159.551 25.134 160.106 24.094C160.678 23.054 161.458 22.248 162.446 21.676C163.451 21.0867 164.63 20.792 165.982 20.792C167.247 20.792 168.365 21.0693 169.336 21.624C170.307 22.1787 171.061 22.9413 171.598 23.912C172.153 24.8653 172.43 25.9313 172.43 27.11C172.43 27.3007 172.421 27.5 172.404 27.708C172.404 27.916 172.395 28.1327 172.378 28.358H162.576C162.645 29.3633 162.992 30.152 163.616 30.724C164.257 31.296 165.029 31.582 165.93 31.582C166.606 31.582 167.169 31.4347 167.62 31.14C168.088 30.828 168.435 30.4293 168.66 29.944H172.04C171.797 30.7587 171.39 31.504 170.818 32.18C170.263 32.8387 169.57 33.3587 168.738 33.74C167.923 34.1213 166.996 34.312 165.956 34.312ZM165.982 23.496C165.167 23.496 164.448 23.73 163.824 24.198C163.2 24.6487 162.801 25.342 162.628 26.278H169.05C168.998 25.4287 168.686 24.7527 168.114 24.25C167.542 23.7473 166.831 23.496 165.982 23.496ZM181.521 34.312C180.186 34.312 179.008 34.0867 177.985 33.636C176.962 33.168 176.156 32.5093 175.567 31.66C174.978 30.7933 174.674 29.7447 174.657 28.514H178.167C178.202 29.3633 178.505 30.0827 179.077 30.672C179.666 31.244 180.472 31.53 181.495 31.53C182.379 31.53 183.081 31.322 183.601 30.906C184.121 30.4727 184.381 29.9007 184.381 29.19C184.381 28.4447 184.147 27.864 183.679 27.448C183.228 27.032 182.622 26.694 181.859 26.434C181.096 26.174 180.282 25.8967 179.415 25.602C178.011 25.1167 176.936 24.4927 176.191 23.73C175.463 22.9673 175.099 21.9533 175.099 20.688C175.082 19.6133 175.333 18.6947 175.853 17.932C176.39 17.152 177.118 16.554 178.037 16.138C178.956 15.7047 180.013 15.488 181.209 15.488C182.422 15.488 183.488 15.7047 184.407 16.138C185.343 16.5713 186.071 17.178 186.591 17.958C187.128 18.738 187.414 19.6653 187.449 20.74H183.887C183.87 20.0987 183.618 19.5353 183.133 19.05C182.665 18.5473 182.006 18.296 181.157 18.296C180.429 18.2787 179.814 18.4607 179.311 18.842C178.826 19.206 178.583 19.7433 178.583 20.454C178.583 21.0607 178.774 21.546 179.155 21.91C179.536 22.2567 180.056 22.5513 180.715 22.794C181.374 23.0367 182.128 23.2967 182.977 23.574C183.878 23.886 184.702 24.25 185.447 24.666C186.192 25.082 186.79 25.6367 187.241 26.33C187.692 27.006 187.917 27.8813 187.917 28.956C187.917 29.9093 187.674 30.7933 187.189 31.608C186.704 32.4227 185.984 33.0813 185.031 33.584C184.078 34.0693 182.908 34.312 181.521 34.312ZM190.821 34V15.8H194.149V34H190.821ZM197.676 34V15.8H201.628L207.426 27.344L213.146 15.8H217.098V34H213.77V21.442L208.7 31.4H206.074L201.004 21.442V34H197.676Z" fill="#6F6F73"/>
<path d="M73.0331 29.2187C72.0164 29.8072 70.7456 30.1342 69.157 30.1342C67.632 30.1342 66.2977 29.5457 65.1539 28.3685C64.0102 27.1913 63.5018 25.6218 63.5018 23.7252C63.5018 21.7633 64.0737 20.2592 65.2174 19.0166C66.3612 17.8394 67.8227 17.2509 69.4747 17.2509C70.3643 17.2509 71.1904 17.3817 71.8893 17.7086C72.6518 18.0356 73.4779 18.5588 74.3675 19.3436L76.6549 15.8775C74.5581 13.9156 72.08 13 69.2206 13C66.3612 13 63.9466 14.0464 61.9133 16.0737C59.8799 18.101 58.8633 20.6515 58.8633 23.6598C58.8633 26.7335 59.88 29.2187 61.8497 31.246C63.8195 33.2733 66.2977 34.2543 69.2206 34.2543C72.7154 34.2543 75.4477 33.1425 77.4175 30.8536V23.5945H72.9695V29.2187H73.0331ZM81.4841 33.9927H85.932V13.5232H81.4841V33.9927ZM96.8612 13.5232L88.2195 34.0581H92.9216L94.7643 29.6111H103.088L104.931 34.0581H109.633L100.991 13.5232H96.8612ZM96.5435 25.5564L99.0216 19.6052L101.5 25.5564H96.5435ZM126.027 26.7335L116.241 13.5232H112.048V34.0581H116.496V21.1747L125.963 34.0581H130.411V13.5232H125.963V26.7335H126.027ZM133.715 13.5232V17.5125H139.371V34.0581H143.819V17.4471H149.474V13.4578H133.715V13.5232Z" fill="url(#paint5_linear_9849_26546)"/>
<rect x="223" width="47" height="22" rx="11" fill="#45B549"/>
<path d="M232.434 16V6.2H236.13C237.148 6.2 237.918 6.438 238.44 6.914C238.963 7.39 239.224 7.98733 239.224 8.706C239.224 9.33133 239.056 9.83067 238.72 10.204C238.384 10.568 237.978 10.8153 237.502 10.946C237.876 11.0207 238.207 11.17 238.496 11.394C238.795 11.618 239.028 11.898 239.196 12.234C239.364 12.57 239.448 12.934 239.448 13.326C239.448 13.83 239.322 14.2873 239.07 14.698C238.828 15.0993 238.468 15.4167 237.992 15.65C237.516 15.8833 236.933 16 236.242 16H232.434ZM233.918 10.4H235.948C236.518 10.4 236.952 10.2693 237.25 10.008C237.549 9.73733 237.698 9.36867 237.698 8.902C237.698 8.44467 237.549 8.08067 237.25 7.81C236.961 7.53933 236.518 7.404 235.92 7.404H233.918V10.4ZM233.918 14.782H236.046C236.644 14.782 237.106 14.642 237.432 14.362C237.768 14.082 237.936 13.69 237.936 13.186C237.936 12.682 237.764 12.2853 237.418 11.996C237.073 11.6973 236.606 11.548 236.018 11.548H233.918V14.782ZM244.267 16.168C243.586 16.168 242.979 16.0187 242.447 15.72C241.924 15.412 241.514 14.9873 241.215 14.446C240.916 13.9047 240.767 13.2747 240.767 12.556C240.767 11.828 240.912 11.1887 241.201 10.638C241.5 10.0873 241.91 9.658 242.433 9.35C242.965 9.042 243.581 8.888 244.281 8.888C244.962 8.888 245.555 9.042 246.059 9.35C246.563 9.64867 246.955 10.05 247.235 10.554C247.515 11.058 247.655 11.6133 247.655 12.22C247.655 12.3133 247.65 12.416 247.641 12.528C247.641 12.6307 247.636 12.7473 247.627 12.878H242.223C242.27 13.55 242.489 14.0633 242.881 14.418C243.282 14.7633 243.744 14.936 244.267 14.936C244.687 14.936 245.037 14.8427 245.317 14.656C245.606 14.46 245.821 14.1987 245.961 13.872H247.445C247.258 14.5253 246.885 15.0713 246.325 15.51C245.774 15.9487 245.088 16.168 244.267 16.168ZM244.267 10.106C243.772 10.106 243.334 10.2553 242.951 10.554C242.568 10.8433 242.335 11.282 242.251 11.87H246.171C246.143 11.3287 245.952 10.8993 245.597 10.582C245.242 10.2647 244.799 10.106 244.267 10.106ZM251.929 16C251.248 16 250.706 15.8367 250.305 15.51C249.904 15.174 249.703 14.5813 249.703 13.732V10.302H248.513V9.056H249.703L249.885 7.292H251.187V9.056H253.147V10.302H251.187V13.732C251.187 14.1147 251.266 14.3807 251.425 14.53C251.593 14.67 251.878 14.74 252.279 14.74H253.077V16H251.929ZM257.029 16.168C256.441 16.168 255.956 16.07 255.573 15.874C255.191 15.678 254.906 15.4213 254.719 15.104C254.533 14.7773 254.439 14.4227 254.439 14.04C254.439 13.368 254.701 12.836 255.223 12.444C255.746 12.052 256.493 11.856 257.463 11.856H259.283V11.73C259.283 11.1887 259.134 10.7827 258.835 10.512C258.546 10.2413 258.168 10.106 257.701 10.106C257.291 10.106 256.931 10.2087 256.623 10.414C256.325 10.61 256.143 10.904 256.077 11.296H254.593C254.64 10.792 254.808 10.3627 255.097 10.008C255.396 9.644 255.769 9.36867 256.217 9.182C256.675 8.986 257.174 8.888 257.715 8.888C258.686 8.888 259.437 9.14467 259.969 9.658C260.501 10.162 260.767 10.8527 260.767 11.73V16H259.479L259.353 14.81C259.157 15.1927 258.873 15.5147 258.499 15.776C258.126 16.0373 257.636 16.168 257.029 16.168ZM257.323 14.964C257.725 14.964 258.061 14.8707 258.331 14.684C258.611 14.488 258.826 14.2313 258.975 13.914C259.134 13.5967 259.232 13.2467 259.269 12.864H257.617C257.029 12.864 256.609 12.9667 256.357 13.172C256.115 13.3773 255.993 13.634 255.993 13.942C255.993 14.2593 256.11 14.5113 256.343 14.698C256.586 14.8753 256.913 14.964 257.323 14.964Z" fill="white"/>
<defs>
<linearGradient id="paint0_linear_9849_26546" x1="3.80123" y1="6.10575" x2="40.7137" y2="6.10575" gradientUnits="userSpaceOnUse">
<stop stop-color="#6FBE44"/>
<stop offset="1" stop-color="#30B34A"/>
</linearGradient>
<linearGradient id="paint1_linear_9849_26546" x1="3446.15" y1="1346.75" x2="7860.9" y2="1346.75" gradientUnits="userSpaceOnUse">
<stop stop-color="#6FBE44"/>
<stop offset="1" stop-color="#30B34A"/>
</linearGradient>
<linearGradient id="paint2_linear_9849_26546" x1="2015.39" y1="2508.36" x2="2811.3" y2="2508.36" gradientUnits="userSpaceOnUse">
<stop stop-color="#6FBE44"/>
<stop offset="1" stop-color="#30B34A"/>
</linearGradient>
<linearGradient id="paint3_linear_9849_26546" x1="0.00430289" y1="30.3004" x2="44.5108" y2="30.3004" gradientUnits="userSpaceOnUse">
<stop stop-color="#6F7073"/>
<stop offset="1" stop-color="#8C8F91"/>
</linearGradient>
<linearGradient id="paint4_linear_9849_26546" x1="3606.19" y1="5377.41" x2="10147" y2="5377.41" gradientUnits="userSpaceOnUse">
<stop stop-color="#6F7073"/>
<stop offset="1" stop-color="#8C8F91"/>
</linearGradient>
<linearGradient id="paint5_linear_9849_26546" x1="104.224" y1="14.4573" x2="104.224" y2="33.3999" gradientUnits="userSpaceOnUse">
<stop stop-color="#4EB946"/>
<stop offset="1" stop-color="#70BF45"/>
</linearGradient>
</defs>
</svg>
