<svg width="331" height="46" viewBox="0 0 331 46" fill="none" xmlns="http://www.w3.org/2000/svg">
<path d="M74.0331 29.2077C73.0164 29.7963 71.7456 30.1233 70.157 30.1233C68.632 30.1233 67.2977 29.5347 66.1539 28.3576C65.0102 27.1804 64.5018 25.6109 64.5018 23.7143C64.5018 21.7524 65.0737 20.2482 66.2174 19.0057C67.3612 17.8285 68.8227 17.2399 70.4747 17.2399C71.3643 17.2399 72.1904 17.3707 72.8893 17.6977C73.6518 18.0247 74.4779 18.5479 75.3675 19.3327L77.6549 15.8666C75.5581 13.9046 73.08 12.9891 70.2206 12.9891C67.3612 12.9891 64.9466 14.0354 62.9133 16.0628C60.8799 18.0901 59.8633 20.6406 59.8633 23.6489C59.8633 26.7226 60.88 29.2077 62.8497 31.2351C64.8195 33.2624 67.2977 34.2434 70.2206 34.2434C73.7154 34.2434 76.4477 33.1316 78.4175 30.8427V23.5835H73.9695V29.2077H74.0331ZM82.4841 33.9818H86.932V13.5123H82.4841V33.9818ZM97.8612 13.5123L89.2195 34.0472H93.9216L95.7643 29.6001H104.088L105.931 34.0472H110.633L101.991 13.5123H97.8612ZM97.5435 25.5455L100.022 19.5943L102.5 25.5455H97.5435ZM127.027 26.7226L117.241 13.5123H113.048V34.0472H117.496V21.1638L126.963 34.0472H131.411V13.5123H126.963V26.7226H127.027ZM134.715 13.5123V17.5015H140.371V34.0472H144.819V17.4361H150.474V13.4469H134.715V13.5123Z" fill="url(#paint0_linear_7653_26076)"/>
<path d="M171.936 20.5886C171.936 25.1126 168.647 27.9319 163.398 27.9319H159.477V33.5049H154.923V13.1798H163.398C168.647 13.2454 171.936 15.9991 171.936 20.5886ZM167.319 20.5886C167.319 18.3594 165.928 17.0481 163.145 17.0481H159.477V24.1291H163.145C165.928 24.1291 167.319 22.8178 167.319 20.5886Z" fill="#6F6F73"/>
<path d="M184.712 17.7041V21.9003C184.333 21.9003 184.08 21.8347 183.764 21.8347C181.36 21.8347 179.779 23.2116 179.779 26.162V33.5052H175.415V17.9008H179.589V19.9333C180.601 18.4909 182.435 17.7041 184.712 17.7041Z" fill="#6F6F73"/>
<path d="M186.609 25.7031C186.609 20.9824 190.088 17.6386 194.895 17.6386C199.701 17.6386 203.18 20.9824 203.18 25.7031C203.18 30.4237 199.701 33.7675 194.895 33.7675C190.088 33.7675 186.609 30.4237 186.609 25.7031ZM198.753 25.7031C198.753 23.0149 197.108 21.3758 194.895 21.3758C192.681 21.3758 191.037 23.0149 191.037 25.7031C191.037 28.3912 192.744 30.0303 194.895 30.0303C197.045 30.0303 198.753 28.3912 198.753 25.7031Z" fill="#6F6F73"/>
<path d="M216.335 32.7848C215.45 33.4404 214.121 33.7683 212.793 33.7683C209.251 33.7683 207.164 31.8669 207.164 28.1952V21.7699H204.824V18.2949H207.164V14.4922H211.528V18.2949H215.26V21.7699H211.528V28.1297C211.528 29.441 212.224 30.1622 213.426 30.1622C214.058 30.1622 214.691 29.9655 215.197 29.5721L216.335 32.7848Z" fill="#6F6F73"/>
<path d="M217.594 25.5283C217.594 20.8077 221.072 17.4639 225.879 17.4639C230.686 17.4639 234.164 20.8077 234.164 25.5283C234.164 30.249 230.686 33.5928 225.879 33.5928C221.072 33.5928 217.594 30.249 217.594 25.5283ZM229.737 25.5283C229.737 22.8402 228.093 21.2011 225.879 21.2011C223.665 21.2011 222.021 22.8402 222.021 25.5283C222.021 28.2165 223.729 29.8556 225.879 29.8556C228.029 29.8556 229.737 28.2165 229.737 25.5283Z" fill="#6F6F73"/>
<path d="M236.7 25.7032C236.7 20.9825 240.179 17.6387 245.112 17.6387C248.274 17.6387 250.741 19.0811 251.879 21.6381L248.464 23.5395C247.642 22.0315 246.44 21.3759 245.049 21.3759C242.835 21.3759 241.127 22.9494 241.127 25.7032C241.127 28.4569 242.835 30.0304 245.049 30.0304C246.44 30.0304 247.642 29.3748 248.464 27.8668L251.879 29.7682C250.804 32.2596 248.274 33.7021 245.112 33.7021C240.179 33.7676 236.7 30.4238 236.7 25.7032Z" fill="#6F6F73"/>
<path d="M253.587 25.7031C253.587 20.9825 257.065 17.6387 261.872 17.6387C266.679 17.6387 270.157 20.9825 270.157 25.7031C270.157 30.4238 266.679 33.7676 261.872 33.7676C257.065 33.7676 253.587 30.4238 253.587 25.7031ZM265.73 25.7031C265.73 23.015 264.086 21.3759 261.872 21.3759C259.659 21.3759 258.014 23.015 258.014 25.7031C258.014 28.3913 259.722 30.0304 261.872 30.0304C264.023 30.0304 265.73 28.3913 265.73 25.7031Z" fill="#6F6F73"/>
<path d="M273.636 12H278V33.5053H273.636V12Z" fill="#6F6F73"/>
<path d="M8.17474 12.1697C8.20658 12.1954 8.24698 12.2094 8.28875 12.2095C8.32095 12.2099 8.35262 12.2018 8.38018 12.186L20.2745 5.68397C21.2566 5.14603 23.2627 5.14603 24.2458 5.68397L36.1326 12.185C36.1645 12.203 36.2015 12.2112 36.2384 12.2084C36.2754 12.2057 36.3106 12.1922 36.3391 12.1697L40.647 8.83414C40.6699 8.81618 40.6878 8.79331 40.6994 8.76743C40.711 8.74156 40.7159 8.71343 40.7137 8.68539C40.7108 8.65772 40.7011 8.63107 40.6854 8.60755C40.6697 8.58403 40.6485 8.56429 40.6234 8.54989L27.0274 1.1207C25.7129 0.399375 24.0156 0 22.2602 0C20.5047 0 18.8074 0.396319 17.4908 1.1207L3.89156 8.55804C3.86579 8.57172 3.84402 8.59128 3.82824 8.61494C3.81246 8.6386 3.80317 8.66562 3.80121 8.69354C3.79904 8.72148 3.80386 8.7495 3.81526 8.77534C3.82666 8.80119 3.84432 8.82412 3.86682 8.84229L8.17474 12.1697Z" fill="url(#paint1_linear_7653_26076)"/>
<path d="M28.9487 17.7503C28.9897 17.7501 29.0295 17.7368 29.0616 17.7126L33.0867 14.6317C33.1092 14.6146 33.127 14.5926 33.1384 14.5675C33.1499 14.5424 33.1546 14.515 33.1523 14.4877C33.15 14.4605 33.1406 14.4342 33.125 14.4111C33.1095 14.3881 33.0882 14.369 33.063 14.3556L24.6666 9.8168C23.2973 9.07511 21.2246 9.07307 19.8456 9.8168L11.4503 14.3577C11.4256 14.3713 11.4047 14.3904 11.3894 14.4133C11.374 14.4361 11.3647 14.4621 11.3621 14.4891C11.3594 14.5163 11.364 14.5438 11.3755 14.5689C11.3869 14.594 11.4049 14.6159 11.4277 14.6327L15.4549 17.7096C15.4835 17.731 15.5182 17.7439 15.5546 17.7467C15.591 17.7494 15.6274 17.7418 15.6592 17.7248C15.6592 17.7248 22.113 14.2395 22.1561 14.214C22.1857 14.1968 22.2197 14.1877 22.2545 14.1877C22.2892 14.1877 22.3233 14.1968 22.3529 14.214C22.3852 14.2344 28.8594 17.732 28.8594 17.732C28.8866 17.7467 28.9174 17.7541 28.9487 17.7534" fill="url(#paint2_linear_7653_26076)"/>
<path d="M17.7226 25.377L22.1929 27.8221C22.2214 27.8377 22.2537 27.8457 22.2865 27.8456C22.3191 27.8461 22.3511 27.838 22.379 27.8221L26.7891 25.4106C26.8171 25.3946 26.8404 25.372 26.8565 25.3451C26.8727 25.3182 26.8814 25.2877 26.8816 25.2567V20.4378C26.8812 20.4071 26.8725 20.377 26.8563 20.3504C26.8401 20.3238 26.817 20.3016 26.7891 20.2859L22.379 17.8744C22.3506 17.8594 22.3185 17.8516 22.286 17.8516C22.2534 17.8516 22.2214 17.8594 22.1929 17.8744L18.5261 19.8825L17.799 20.2116C17.7671 20.2258 17.74 20.2482 17.721 20.2764C17.702 20.3045 17.6917 20.3371 17.6914 20.3705V23.8875L17.629 25.219C17.6278 25.2511 17.6358 25.2829 17.6521 25.3111C17.6683 25.3392 17.6923 25.3627 17.7215 25.379" fill="url(#paint3_linear_7653_26076)"/>
<path d="M18.402 44.9923C20.3639 45.9663 23.4273 46.3168 26.1003 44.9923C26.7553 44.6561 39.7404 37.611 39.7404 37.611C41.9917 36.2641 44.5108 33.6794 44.5108 29.7987V14.9118C44.5106 14.8837 44.5031 14.856 44.4888 14.8312C44.4745 14.8065 44.454 14.7856 44.4291 14.7702C44.405 14.754 44.377 14.7438 44.3477 14.7406C44.3183 14.7374 44.2886 14.7413 44.2613 14.7519L39.0617 16.6224C39.0272 16.6346 38.9974 16.6564 38.9762 16.685C38.9551 16.7135 38.9436 16.7475 38.9433 16.7824C38.9433 16.7824 39.0122 29.6602 38.9326 30.0045C38.8143 31.0977 37.872 32.5516 36.9577 33.0488L24.2426 40.0022C23.2595 40.5411 21.2535 40.5411 20.2714 40.0022L7.55525 33.0488C6.64097 32.5485 5.69979 31.0977 5.58254 30.0045C5.50295 29.6602 5.57071 16.7824 5.57071 16.7824C5.57064 16.7476 5.55939 16.7136 5.53844 16.6851C5.5175 16.6565 5.48785 16.6346 5.45347 16.6224L0.25385 14.7519C0.226024 14.7408 0.195728 14.7364 0.165667 14.739C0.135606 14.7417 0.106716 14.7514 0.0815756 14.7673C0.0564357 14.7831 0.0358284 14.8046 0.021594 14.8298C0.00735952 14.8551 -5.91271e-05 14.8832 3.54887e-07 14.9118V29.8018C3.54887e-07 33.6825 2.51914 36.2672 4.76936 37.6141C4.76936 37.6141 17.6404 44.6174 18.3976 44.9923" fill="url(#paint4_linear_7653_26076)"/>
<path d="M19.9536 35.9247C20.6648 36.275 21.456 36.4544 22.2576 36.4474C23.0523 36.4541 23.8371 36.2793 24.5455 35.9379L33.1097 31.3146C34.7876 30.4251 35.5202 29.066 35.5202 27.4176V18.3206C35.5203 18.2932 35.5133 18.2663 35.4998 18.2421C35.4863 18.2179 35.4667 18.1973 35.4427 18.182C35.4186 18.1663 35.3909 18.1563 35.3619 18.1529C35.3328 18.1495 35.3034 18.1529 35.276 18.1627L30.412 19.8947C30.3781 19.9066 30.3489 19.928 30.3282 19.956C30.3074 19.984 30.2961 20.0173 30.2958 20.0516V27.0926C30.297 27.1214 30.2897 27.1499 30.2747 27.1749C30.2597 27.2 30.2376 27.2205 30.2108 27.2342C30.1538 27.2597 22.3124 31.4429 22.3124 31.4429C22.2775 31.4579 22.2395 31.4657 22.2011 31.4657C22.1627 31.4657 22.1248 31.4579 22.0898 31.4429L14.3065 27.2311C14.2793 27.2179 14.2567 27.1975 14.2415 27.1723C14.2262 27.1472 14.2189 27.1185 14.2204 27.0895V20.0485C14.2203 20.0144 14.2093 19.9811 14.1887 19.9531C14.1682 19.925 14.1391 19.9036 14.1054 19.8916L9.24026 18.1596C9.21309 18.1497 9.18377 18.1463 9.15489 18.1497C9.126 18.1531 9.09843 18.1631 9.07462 18.179C9.05039 18.1941 9.03052 18.2146 9.01681 18.2388C9.0031 18.263 8.99598 18.2901 8.9961 18.3175V27.4145C8.9961 29.063 9.72968 30.4221 11.4066 31.3115L19.9536 35.9247Z" fill="url(#paint5_linear_7653_26076)"/>
<rect x="284" width="47" height="22" rx="11" fill="#45B549"/>
<path d="M293.434 16V6.2H297.13C298.148 6.2 298.918 6.438 299.44 6.914C299.963 7.39 300.224 7.98733 300.224 8.706C300.224 9.33133 300.056 9.83067 299.72 10.204C299.384 10.568 298.978 10.8153 298.502 10.946C298.876 11.0207 299.207 11.17 299.496 11.394C299.795 11.618 300.028 11.898 300.196 12.234C300.364 12.57 300.448 12.934 300.448 13.326C300.448 13.83 300.322 14.2873 300.07 14.698C299.828 15.0993 299.468 15.4167 298.992 15.65C298.516 15.8833 297.933 16 297.242 16H293.434ZM294.918 10.4H296.948C297.518 10.4 297.952 10.2693 298.25 10.008C298.549 9.73733 298.698 9.36867 298.698 8.902C298.698 8.44467 298.549 8.08067 298.25 7.81C297.961 7.53933 297.518 7.404 296.92 7.404H294.918V10.4ZM294.918 14.782H297.046C297.644 14.782 298.106 14.642 298.432 14.362C298.768 14.082 298.936 13.69 298.936 13.186C298.936 12.682 298.764 12.2853 298.418 11.996C298.073 11.6973 297.606 11.548 297.018 11.548H294.918V14.782ZM305.267 16.168C304.586 16.168 303.979 16.0187 303.447 15.72C302.924 15.412 302.514 14.9873 302.215 14.446C301.916 13.9047 301.767 13.2747 301.767 12.556C301.767 11.828 301.912 11.1887 302.201 10.638C302.5 10.0873 302.91 9.658 303.433 9.35C303.965 9.042 304.581 8.888 305.281 8.888C305.962 8.888 306.555 9.042 307.059 9.35C307.563 9.64867 307.955 10.05 308.235 10.554C308.515 11.058 308.655 11.6133 308.655 12.22C308.655 12.3133 308.65 12.416 308.641 12.528C308.641 12.6307 308.636 12.7473 308.627 12.878H303.223C303.27 13.55 303.489 14.0633 303.881 14.418C304.282 14.7633 304.744 14.936 305.267 14.936C305.687 14.936 306.037 14.8427 306.317 14.656C306.606 14.46 306.821 14.1987 306.961 13.872H308.445C308.258 14.5253 307.885 15.0713 307.325 15.51C306.774 15.9487 306.088 16.168 305.267 16.168ZM305.267 10.106C304.772 10.106 304.334 10.2553 303.951 10.554C303.568 10.8433 303.335 11.282 303.251 11.87H307.171C307.143 11.3287 306.952 10.8993 306.597 10.582C306.242 10.2647 305.799 10.106 305.267 10.106ZM312.929 16C312.248 16 311.706 15.8367 311.305 15.51C310.904 15.174 310.703 14.5813 310.703 13.732V10.302H309.513V9.056H310.703L310.885 7.292H312.187V9.056H314.147V10.302H312.187V13.732C312.187 14.1147 312.266 14.3807 312.425 14.53C312.593 14.67 312.878 14.74 313.279 14.74H314.077V16H312.929ZM318.029 16.168C317.441 16.168 316.956 16.07 316.573 15.874C316.191 15.678 315.906 15.4213 315.719 15.104C315.533 14.7773 315.439 14.4227 315.439 14.04C315.439 13.368 315.701 12.836 316.223 12.444C316.746 12.052 317.493 11.856 318.463 11.856H320.283V11.73C320.283 11.1887 320.134 10.7827 319.835 10.512C319.546 10.2413 319.168 10.106 318.701 10.106C318.291 10.106 317.931 10.2087 317.623 10.414C317.325 10.61 317.143 10.904 317.077 11.296H315.593C315.64 10.792 315.808 10.3627 316.097 10.008C316.396 9.644 316.769 9.36867 317.217 9.182C317.675 8.986 318.174 8.888 318.715 8.888C319.686 8.888 320.437 9.14467 320.969 9.658C321.501 10.162 321.767 10.8527 321.767 11.73V16H320.479L320.353 14.81C320.157 15.1927 319.873 15.5147 319.499 15.776C319.126 16.0373 318.636 16.168 318.029 16.168ZM318.323 14.964C318.725 14.964 319.061 14.8707 319.331 14.684C319.611 14.488 319.826 14.2313 319.975 13.914C320.134 13.5967 320.232 13.2467 320.269 12.864H318.617C318.029 12.864 317.609 12.9667 317.357 13.172C317.115 13.3773 316.993 13.634 316.993 13.942C316.993 14.2593 317.11 14.5113 317.343 14.698C317.586 14.8753 317.913 14.964 318.323 14.964Z" fill="white"/>
<defs>
<linearGradient id="paint0_linear_7653_26076" x1="105.224" y1="14.4464" x2="105.224" y2="33.389" gradientUnits="userSpaceOnUse">
<stop stop-color="#4EB946"/>
<stop offset="1" stop-color="#70BF45"/>
</linearGradient>
<linearGradient id="paint1_linear_7653_26076" x1="3.80121" y1="6.10575" x2="40.7137" y2="6.10575" gradientUnits="userSpaceOnUse">
<stop stop-color="#6FBE44"/>
<stop offset="1" stop-color="#30B34A"/>
</linearGradient>
<linearGradient id="paint2_linear_7653_26076" x1="3446.15" y1="1346.75" x2="7860.9" y2="1346.75" gradientUnits="userSpaceOnUse">
<stop stop-color="#6FBE44"/>
<stop offset="1" stop-color="#30B34A"/>
</linearGradient>
<linearGradient id="paint3_linear_7653_26076" x1="2015.39" y1="2508.36" x2="2811.3" y2="2508.36" gradientUnits="userSpaceOnUse">
<stop stop-color="#6FBE44"/>
<stop offset="1" stop-color="#30B34A"/>
</linearGradient>
<linearGradient id="paint4_linear_7653_26076" x1="0.00430289" y1="30.3" x2="44.5108" y2="30.3" gradientUnits="userSpaceOnUse">
<stop stop-color="#6F7073"/>
<stop offset="1" stop-color="#8C8F91"/>
</linearGradient>
<linearGradient id="paint5_linear_7653_26076" x1="3606.19" y1="5377.41" x2="10147" y2="5377.41" gradientUnits="userSpaceOnUse">
<stop stop-color="#6F7073"/>
<stop offset="1" stop-color="#8C8F91"/>
</linearGradient>
</defs>
</svg>
