<svg width="32" height="33" viewBox="0 0 32 33" fill="none" xmlns="http://www.w3.org/2000/svg">
<path d="M32 16.656C32 25.4141 24.8361 32.5149 16 32.5149C7.16394 32.5149 0 25.4141 0 16.656C0 7.89788 7.16394 0.797134 16 0.797134C24.8379 0.797134 32 7.89788 32 16.656Z" fill="#2081E2"/>
<path d="M7.40034 18.1467L7.46505 18.0459L11.3671 11.9954C11.4242 11.9068 11.5582 11.9159 11.6014 12.0122C12.2533 13.4602 12.8158 15.2612 12.5523 16.3824C12.4398 16.8437 12.1315 17.4685 11.7848 18.0459C11.7401 18.1299 11.6908 18.2124 11.6384 18.2918C11.6137 18.3285 11.5721 18.3498 11.5274 18.3498H7.51437C7.40649 18.3498 7.34331 18.2338 7.40034 18.1467Z" fill="white"/>
<path d="M25.4933 19.271V20.2288C25.4933 20.2838 25.4594 20.3327 25.4101 20.354C25.1081 20.4823 24.074 20.9528 23.644 21.5455C22.5467 23.0593 21.7084 25.2238 19.8344 25.2238H12.0163C9.24541 25.2238 7 22.9906 7 20.2349V20.1463C7 20.073 7.06009 20.0134 7.13407 20.0134H11.4923C11.5786 20.0134 11.6418 20.0928 11.6341 20.1768C11.6033 20.4579 11.6557 20.7451 11.7898 21.0063C12.0487 21.5272 12.585 21.8526 13.1644 21.8526H15.322V20.183H13.1891C13.0797 20.183 13.015 20.0577 13.0782 19.9691C13.1013 19.934 13.1275 19.8973 13.1552 19.8561C13.3571 19.572 13.6453 19.1305 13.9319 18.628C14.1276 18.2889 14.3172 17.9268 14.4698 17.5633C14.5006 17.4976 14.5252 17.4304 14.5499 17.3647C14.5915 17.2486 14.6347 17.1401 14.6655 17.0317C14.6963 16.94 14.721 16.8438 14.7456 16.7537C14.8181 16.4451 14.8489 16.1182 14.8489 15.7791C14.8489 15.6462 14.8427 15.5072 14.8304 15.3743C14.8242 15.2292 14.8057 15.0841 14.7872 14.939C14.7749 14.8107 14.7518 14.6839 14.7271 14.551C14.6963 14.357 14.6532 14.1646 14.6038 13.9705L14.5869 13.8972C14.5499 13.7643 14.5191 13.6376 14.4759 13.5047C14.3542 13.0876 14.214 12.6813 14.066 12.301C14.0121 12.1497 13.9504 12.0046 13.8888 11.8595C13.7979 11.6411 13.7054 11.4425 13.6206 11.2546C13.5775 11.1691 13.5405 11.0912 13.5035 11.0117C13.4619 10.9216 13.4187 10.8315 13.3756 10.746C13.3448 10.6803 13.3093 10.6192 13.2846 10.5581L13.0211 10.0754C12.9841 10.0097 13.0458 9.93178 13.1182 9.95165L14.7672 10.3946H14.7718C14.7749 10.3946 14.7765 10.3962 14.778 10.3962L14.9953 10.4557L15.2342 10.523L15.322 10.5474V9.57588C15.322 9.10692 15.7011 8.72658 16.1696 8.72658C16.4039 8.72658 16.6165 8.82128 16.7691 8.97555C16.9217 9.12985 17.0172 9.34064 17.0172 9.57588V11.0179L17.1929 11.0667C17.2068 11.0713 17.2206 11.0774 17.233 11.0866C17.2761 11.1187 17.3378 11.166 17.4164 11.2241C17.478 11.2729 17.5443 11.3325 17.6244 11.3936C17.7831 11.5204 17.9727 11.6839 18.1808 11.8718C18.2362 11.9191 18.2902 11.968 18.3395 12.0169C18.6077 12.2643 18.9082 12.5545 19.1948 12.8753C19.275 12.9654 19.3535 13.0571 19.4337 13.1533C19.5138 13.2511 19.5986 13.3473 19.6725 13.4436C19.7697 13.5719 19.8744 13.7048 19.9654 13.8438C20.0085 13.9095 20.0578 13.9767 20.0994 14.0423C20.2166 14.218 20.3198 14.3998 20.4185 14.5816C20.4601 14.6656 20.5032 14.7572 20.5402 14.8473C20.6496 15.0902 20.7359 15.3377 20.7914 15.5851C20.8083 15.6386 20.8207 15.6966 20.8269 15.7486V15.7608C20.8453 15.8341 20.8515 15.912 20.8577 15.9914C20.8823 16.245 20.87 16.4986 20.8145 16.7537C20.7914 16.8622 20.7606 16.9645 20.7236 17.0729C20.6866 17.1768 20.6496 17.2853 20.6019 17.3876C20.5094 17.5999 20.4 17.8123 20.2705 18.0108C20.2289 18.0842 20.1796 18.1621 20.1303 18.2354C20.0763 18.3133 20.0208 18.3866 19.9715 18.4584C19.9037 18.5501 19.8313 18.6463 19.7573 18.7318C19.6911 18.822 19.6233 18.9121 19.5493 18.9915C19.446 19.1122 19.3474 19.2267 19.2441 19.3367C19.1825 19.4085 19.1162 19.4818 19.0484 19.5475C18.9822 19.6208 18.9143 19.6865 18.8527 19.7476C18.7494 19.85 18.6631 19.9294 18.5907 19.9951L18.4212 20.1494C18.3965 20.1708 18.3642 20.183 18.3303 20.183H17.0172V21.8526H18.6693C19.0392 21.8526 19.3905 21.7227 19.6741 21.4844C19.7712 21.4004 20.195 21.0369 20.6958 20.4885C20.7128 20.4701 20.7344 20.4564 20.7591 20.4503L25.3223 19.1427C25.407 19.1183 25.4933 19.1824 25.4933 19.271Z" fill="white"/>
</svg>
