<svg width="22" height="20" viewBox="0 0 22 20" fill="none" xmlns="http://www.w3.org/2000/svg">
<path d="M10.9945 1.51331C14.8555 1.51331 17.985 5.30664 17.985 9.98664C17.985 14.6666 14.8555 18.4566 10.9973 18.4566C7.13627 18.4566 4.00952 14.6633 4.00952 9.98664C4.00677 5.30664 7.13627 1.51331 10.9945 1.51331Z" fill="#8247E5"/>
<path d="M13.2851 8.14004C13.1174 8.02337 12.9029 8.02337 12.7131 8.14004L11.3766 9.10004L10.4691 9.71004L9.1574 10.6667C8.98965 10.7834 8.77515 10.7834 8.5854 10.6667L7.55965 9.91004C7.3919 9.79337 7.27365 9.56004 7.27365 9.30004V7.84671C7.27365 7.61337 7.3699 7.38337 7.55965 7.23671L8.5854 6.51004C8.75315 6.39337 8.96765 6.39337 9.1574 6.51004L10.1831 7.26671C10.3509 7.38337 10.4691 7.61671 10.4691 7.87671V8.83671L11.3766 8.19671V7.21004C11.3766 6.97671 11.2804 6.74671 11.0906 6.60004L9.18215 5.23337C9.0144 5.11671 8.7999 5.11671 8.61015 5.23337L6.6549 6.63004C6.46515 6.74671 6.3689 6.98004 6.3689 7.21004V9.94004C6.3689 10.1734 6.46515 10.4034 6.6549 10.55L8.58815 11.9167C8.7559 12.0334 8.9704 12.0334 9.16015 11.9167L10.4719 10.9867L11.3794 10.3467L12.6911 9.41671C12.8589 9.30004 13.0734 9.30004 13.2631 9.41671L14.2889 10.1434C14.4566 10.26 14.5749 10.4934 14.5749 10.7534V12.2067C14.5749 12.44 14.4786 12.67 14.2889 12.8167L13.2879 13.5434C13.1201 13.66 12.9056 13.66 12.7159 13.5434L11.6874 12.8167C11.5196 12.7 11.4014 12.4667 11.4014 12.2067V11.2767L10.4939 11.9167V12.8767C10.4939 13.11 10.5901 13.34 10.7799 13.4867L12.7131 14.8534C12.8809 14.97 13.0954 14.97 13.2851 14.8534L15.2184 13.4867C15.3861 13.37 15.5044 13.1367 15.5044 12.8767V10.1167C15.5044 9.88337 15.4081 9.65337 15.2184 9.50671L13.2851 8.14004Z" fill="white"/>
</svg>
