<svg width="28" height="22" viewBox="0 0 28 22" fill="none" xmlns="http://www.w3.org/2000/svg">
<path d="M13.993 1.66467C18.907 1.66467 22.89 5.83734 22.89 10.9853C22.89 16.1333 18.907 20.3023 13.9965 20.3023C9.08253 20.3023 5.10303 16.1297 5.10303 10.9853C5.09953 5.83734 9.08253 1.66467 13.993 1.66467Z" fill="#8247E5"/>
<path d="M16.9085 8.95398C16.695 8.82565 16.422 8.82565 16.1805 8.95398L14.4795 10.01L13.3245 10.681L11.655 11.7333C11.4415 11.8616 11.1685 11.8616 10.927 11.7333L9.62146 10.901C9.40796 10.7726 9.25746 10.516 9.25746 10.23V8.63132C9.25746 8.37465 9.37996 8.12165 9.62146 7.96032L10.927 7.16098C11.1405 7.03265 11.4135 7.03265 11.655 7.16098L12.9605 7.99332C13.174 8.12165 13.3245 8.37832 13.3245 8.66432V9.72032L14.4795 9.01632V7.93098C14.4795 7.67432 14.357 7.42132 14.1155 7.25998L11.6865 5.75665C11.473 5.62832 11.2 5.62832 10.9585 5.75665L8.46996 7.29298C8.22846 7.42132 8.10596 7.67798 8.10596 7.93098V10.934C8.10596 11.1907 8.22846 11.4437 8.46996 11.605L10.9305 13.1083C11.144 13.2366 11.417 13.2366 11.6585 13.1083L13.328 12.0853L14.483 11.3813L16.1525 10.3583C16.366 10.23 16.639 10.23 16.8805 10.3583L18.186 11.1576C18.3995 11.286 18.55 11.5427 18.55 11.8287V13.4273C18.55 13.684 18.4275 13.937 18.186 14.0983L16.912 14.8976C16.6985 15.026 16.4255 15.026 16.184 14.8976L14.875 14.0983C14.6615 13.97 14.511 13.7133 14.511 13.4273V12.4043L13.356 13.1083V14.1643C13.356 14.421 13.4785 14.674 13.72 14.8353L16.1805 16.3386C16.394 16.467 16.667 16.467 16.9085 16.3386L19.369 14.8353C19.5825 14.707 19.733 14.4503 19.733 14.1643V11.1283C19.733 10.8717 19.6105 10.6187 19.369 10.4573L16.9085 8.95398Z" fill="white"/>
</svg>
