<svg width="18" height="18" viewBox="0 0 18 18" fill="none" xmlns="http://www.w3.org/2000/svg">
<path d="M1.9375 1.09375C2.4375 1.28125 2.6875 1.875 2.5 2.40625C2.15625 3.1875 2 4.09375 2 5C2 5.9375 2.15625 6.84375 2.5 7.625C2.6875 8.15625 2.4375 8.71875 1.9375 8.9375C1.4375 9.15625 0.84375 8.90625 0.625 8.375C0.21875 7.34375 0 6.21875 0 5C0 3.8125 0.21875 2.6875 0.625 1.625C0.84375 1.125 1.4375 0.875 1.9375 1.09375ZM16.0312 1.09375C16.5312 0.875 17.125 1.125 17.3438 1.625C17.75 2.6875 18 3.8125 18 5C18 6.21875 17.75 7.34375 17.3438 8.375C17.125 8.90625 16.5312 9.15625 16.0312 8.9375C15.5312 8.71875 15.2812 8.15625 15.4688 7.625C15.8125 6.84375 16 5.9375 16 5C16 4.09375 15.8125 3.1875 15.4688 2.40625C15.2812 1.875 15.5312 1.28125 16.0312 1.09375ZM14.9062 15.5938C15.125 16.0938 14.9062 16.6875 14.4062 16.9375C13.9062 17.1562 13.3125 16.9375 13.0625 16.4375L12.4375 15H5.53125L4.90625 16.4375C4.65625 16.9375 4.0625 17.1562 3.5625 16.9375C3.0625 16.6875 2.84375 16.0938 3.0625 15.5938L7.34375 6.1875C7.125 5.84375 7 5.4375 7 5C7 3.90625 7.875 3 9 3C10.0938 3 11 3.90625 11 5C11 5.4375 10.8438 5.84375 10.625 6.1875L14.9062 15.5938ZM11.5312 13L11.0625 12H6.90625L6.4375 13H11.5312ZM7.8125 10H10.1562L9 7.4375L7.8125 10ZM4.75 5C4.75 5.625 4.875 6.1875 5.09375 6.71875C5.25 7.09375 5.09375 7.53125 4.6875 7.6875C4.3125 7.875 3.875 7.6875 3.71875 7.3125C3.40625 6.59375 3.25 5.84375 3.25 5C3.25 4.1875 3.40625 3.40625 3.71875 2.71875C3.875 2.34375 4.3125 2.15625 4.6875 2.34375C5.09375 2.5 5.25 2.9375 5.09375 3.3125C4.875 3.84375 4.75 4.40625 4.75 5ZM14.75 5C14.75 5.84375 14.5625 6.59375 14.25 7.3125C14.0938 7.6875 13.6562 7.875 13.2812 7.6875C12.875 7.53125 12.7188 7.09375 12.875 6.71875C13.0938 6.1875 13.25 5.625 13.25 5C13.25 4.40625 13.0938 3.84375 12.875 3.3125C12.7188 2.9375 12.875 2.5 13.2812 2.34375C13.6562 2.15625 14.0938 2.34375 14.25 2.71875C14.5625 3.40625 14.75 4.1875 14.75 5Z" fill="#0B213E"/>
</svg>
