<svg width="78" height="56" viewBox="0 0 78 56" fill="none" xmlns="http://www.w3.org/2000/svg">
<path d="M16.2725 38.647C14.5565 38.647 13.1871 38.153 12.1645 37.165C11.1591 36.177 10.6565 34.8423 10.6565 33.161C10.6565 32.069 10.8471 31.0376 11.2285 30.067C11.6098 29.0963 12.1558 28.247 12.8665 27.519C13.5771 26.7736 14.4178 26.193 15.3885 25.777C16.3765 25.3436 17.4598 25.127 18.6385 25.127C19.7825 25.127 20.7618 25.3523 21.5765 25.803C22.3911 26.2363 23.0151 26.843 23.4485 27.623C23.8991 28.3856 24.1245 29.261 24.1245 30.249C24.1245 30.665 24.0811 31.0983 23.9945 31.549C23.9251 31.9823 23.8385 32.3636 23.7345 32.693H13.9325C13.9325 32.8316 13.9325 32.979 13.9325 33.135C13.9325 34.0016 14.1925 34.6863 14.7125 35.189C15.2325 35.6743 15.9085 35.917 16.7405 35.917C17.3991 35.917 17.9798 35.7696 18.4825 35.475C19.0025 35.163 19.4271 34.7643 19.7565 34.279H23.1365C22.7378 35.111 22.1918 35.8563 21.4985 36.515C20.8225 37.1736 20.0338 37.6936 19.1325 38.075C18.2485 38.4563 17.2951 38.647 16.2725 38.647ZM18.1965 27.831C17.3991 27.831 16.6451 28.065 15.9345 28.533C15.2238 28.9836 14.7038 29.677 14.3745 30.613H20.7965C20.8138 30.4743 20.8225 30.379 20.8225 30.327C20.8398 29.5643 20.6058 28.9576 20.1205 28.507C19.6351 28.0563 18.9938 27.831 18.1965 27.831ZM32.9827 38.647C31.6481 38.647 30.4694 38.4216 29.4467 37.971C28.4241 37.503 27.6181 36.8443 27.0287 35.995C26.4394 35.1283 26.1361 34.0796 26.1187 32.849H29.6287C29.6634 33.6983 29.9667 34.4176 30.5387 35.007C31.1281 35.579 31.9341 35.865 32.9567 35.865C33.8407 35.865 34.5427 35.657 35.0627 35.241C35.5827 34.8076 35.8427 34.2356 35.8427 33.525C35.8427 32.7796 35.6087 32.199 35.1407 31.783C34.6901 31.367 34.0834 31.029 33.3207 30.769C32.5581 30.509 31.7434 30.2316 30.8767 29.937C29.4727 29.4516 28.3981 28.8276 27.6527 28.065C26.9247 27.3023 26.5607 26.2883 26.5607 25.023C26.5434 23.9483 26.7947 23.0296 27.3147 22.267C27.8521 21.487 28.5801 20.889 29.4987 20.473C30.4174 20.0396 31.4747 19.823 32.6707 19.823C33.8841 19.823 34.9501 20.0396 35.8687 20.473C36.8047 20.9063 37.5327 21.513 38.0527 22.293C38.5901 23.073 38.8761 24.0003 38.9107 25.075H35.3487C35.3314 24.4336 35.0801 23.8703 34.5947 23.385C34.1267 22.8823 33.4681 22.631 32.6187 22.631C31.8907 22.6136 31.2754 22.7956 30.7727 23.177C30.2874 23.541 30.0447 24.0783 30.0447 24.789C30.0447 25.3956 30.2354 25.881 30.6167 26.245C30.9981 26.5916 31.5181 26.8863 32.1767 27.129C32.8354 27.3716 33.5894 27.6316 34.4387 27.909C35.3401 28.221 36.1634 28.585 36.9087 29.001C37.6541 29.417 38.2521 29.9716 38.7027 30.665C39.1534 31.341 39.3787 32.2163 39.3787 33.291C39.3787 34.2443 39.1361 35.1283 38.6507 35.943C38.1654 36.7576 37.4461 37.4163 36.4927 37.919C35.5394 38.4043 34.3694 38.647 32.9827 38.647ZM42.2824 38.335V20.135H45.6104V38.335H42.2824ZM49.1379 38.335V20.135H53.0899L58.8879 31.679L64.6079 20.135H68.5599V38.335H65.2319V25.777L60.1619 35.735H57.5359L52.4659 25.777V38.335H49.1379Z" fill="black"/>
<path d="M73.9961 53.4385L4.62158 53.4385C3.51701 53.4385 2.62158 52.543 2.62158 51.4385L2.62158 19.4056C2.62158 18.8371 2.86353 18.2954 3.28695 17.916L20.3955 2.58675C20.7624 2.25806 21.2376 2.07629 21.7302 2.07629L73.9961 2.07629C75.1007 2.07629 75.9961 2.97173 75.9961 4.0763V51.4385C75.9961 52.543 75.1007 53.4385 73.9961 53.4385Z" stroke="black" stroke-width="4"/>
</svg>
