<svg width="22" height="22" viewBox="0 0 22 22" fill="none" xmlns="http://www.w3.org/2000/svg">
<path d="M3.92031 5.83801C3.93558 5.85029 3.95497 5.85705 3.97501 5.85707C3.99045 5.85728 4.00564 5.85338 4.01887 5.84583L9.72477 2.72668C10.1959 2.46863 11.1582 2.46863 11.6298 2.72668L17.3321 5.84534C17.3474 5.85395 17.3651 5.85787 17.3829 5.85656C17.4006 5.85525 17.4175 5.84877 17.4312 5.83801L19.4978 4.23787C19.5087 4.22925 19.5173 4.21828 19.5229 4.20587C19.5285 4.19346 19.5308 4.17996 19.5298 4.16651C19.5283 4.15324 19.5237 4.14045 19.5162 4.12917C19.5087 4.11789 19.4985 4.10842 19.4864 4.10151L12.9642 0.537615C12.3337 0.191586 11.5194 0 10.6773 0C9.83519 0 9.02095 0.19012 8.38937 0.537615L1.86561 4.10542C1.85324 4.11198 1.8428 4.12136 1.83523 4.13271C1.82766 4.14407 1.82321 4.15703 1.82226 4.17042C1.82122 4.18382 1.82353 4.19727 1.829 4.20966C1.83447 4.22206 1.84295 4.23306 1.85374 4.24178L3.92031 5.83801Z" fill="url(#paint0_linear_9798_40804)"/>
<path d="M13.8886 8.51549C13.9083 8.51539 13.9274 8.50902 13.9428 8.4974L15.8736 7.01945C15.8844 7.01126 15.893 7.00067 15.8985 6.98863C15.904 6.97658 15.9062 6.96345 15.9051 6.95037C15.904 6.93729 15.8995 6.92468 15.892 6.91363C15.8846 6.90258 15.8743 6.89344 15.8623 6.887L11.8344 4.70966C11.1775 4.35386 10.1832 4.35288 9.52169 4.70966L5.49432 6.88798C5.48248 6.89454 5.47247 6.90368 5.46511 6.91465C5.45775 6.92562 5.45326 6.93809 5.45201 6.95103C5.45073 6.96409 5.45295 6.97725 5.45845 6.9893C5.46395 7.00134 5.47256 7.01188 5.48349 7.01994L7.41539 8.49594C7.42911 8.50624 7.44577 8.51243 7.46323 8.51374C7.48069 8.51505 7.49816 8.5114 7.51343 8.50327C7.51343 8.50327 10.6094 6.83129 10.6301 6.81907C10.6443 6.81081 10.6606 6.80645 10.6773 6.80645C10.6939 6.80645 10.7103 6.81081 10.7245 6.81907C10.74 6.82884 13.8458 8.50669 13.8458 8.50669C13.8588 8.51373 13.8736 8.51728 13.8886 8.51695" fill="url(#paint1_linear_9798_40804)"/>
<path d="M8.5032 12.1751L10.6477 13.348C10.6613 13.3555 10.6768 13.3594 10.6926 13.3593C10.7082 13.3595 10.7236 13.3557 10.737 13.348L12.8525 12.1912C12.866 12.1835 12.8771 12.1727 12.8849 12.1598C12.8927 12.1468 12.8968 12.1322 12.8969 12.1174V9.80564C12.8967 9.79092 12.8925 9.77649 12.8848 9.76374C12.877 9.75099 12.8659 9.74034 12.8525 9.73281L10.737 8.57597C10.7233 8.56878 10.7079 8.565 10.6923 8.565C10.6767 8.565 10.6613 8.56878 10.6477 8.57597L8.88865 9.53927L8.53984 9.69714C8.52453 9.70395 8.51156 9.71472 8.50243 9.72821C8.4933 9.7417 8.48838 9.75736 8.48824 9.77338V11.4605L8.45831 12.0993C8.45773 12.1147 8.46154 12.1299 8.46936 12.1434C8.47717 12.1569 8.48868 12.1682 8.50269 12.176" fill="url(#paint2_linear_9798_40804)"/>
<path d="M8.82769 21.584C9.76887 22.0512 11.2384 22.2193 12.5207 21.584C12.8349 21.4227 19.0641 18.043 19.0641 18.043C20.144 17.3969 21.3525 16.157 21.3525 14.2954V7.1539C21.3524 7.14038 21.3488 7.1271 21.3419 7.11525C21.3351 7.10339 21.3253 7.09333 21.3133 7.08596C21.3017 7.07819 21.2883 7.07332 21.2742 7.07178C21.2602 7.07024 21.2459 7.07209 21.2328 7.07717L18.7385 7.97449C18.7219 7.98033 18.7076 7.9908 18.6975 8.0045C18.6873 8.0182 18.6818 8.0345 18.6817 8.05123C18.6817 8.05123 18.7147 14.2289 18.6765 14.3941C18.6198 14.9185 18.1678 15.616 17.7292 15.8545L11.6296 19.1901C11.1579 19.4487 10.1956 19.4487 9.7245 19.1901L3.62437 15.8545C3.18577 15.6145 2.73427 14.9185 2.67803 14.3941C2.63985 14.2289 2.67235 8.05123 2.67235 8.05123C2.67232 8.03454 2.66692 8.01825 2.65687 8.00455C2.64683 7.99084 2.63261 7.98035 2.61611 7.97449L0.121776 7.07717C0.108427 7.07184 0.0938935 7.06973 0.0794728 7.07102C0.065052 7.07231 0.051193 7.07696 0.039133 7.08456C0.0270731 7.09216 0.0171874 7.10247 0.0103589 7.11457C0.00353047 7.12667 -2.83642e-05 7.14018 1.70245e-07 7.1539V14.2968C1.70245e-07 16.1585 1.20847 17.3984 2.28793 18.0445C2.28793 18.0445 8.46236 21.4041 8.82563 21.584" fill="url(#paint3_linear_9798_40804)"/>
<path d="M9.5719 17.2334C9.91309 17.4014 10.2926 17.4875 10.6772 17.4841C11.0584 17.4873 11.4349 17.4035 11.7747 17.2397L15.8831 15.0218C16.688 14.5952 17.0394 13.9432 17.0394 13.1524V8.78843C17.0395 8.77531 17.0361 8.76237 17.0296 8.75078C17.0232 8.73918 17.0138 8.72928 17.0023 8.72196C16.9907 8.71439 16.9774 8.70959 16.9635 8.70798C16.9496 8.70636 16.9354 8.70797 16.9223 8.71267L14.5889 9.54353C14.5727 9.54926 14.5587 9.55953 14.5487 9.57297C14.5388 9.5864 14.5334 9.60238 14.5332 9.6188V12.9965C14.5338 13.0103 14.5303 13.024 14.5231 13.036C14.5159 13.048 14.5053 13.0578 14.4925 13.0644C14.4651 13.0766 10.7035 15.0834 10.7035 15.0834C10.6867 15.0906 10.6685 15.0943 10.6501 15.0943C10.6317 15.0943 10.6135 15.0906 10.5967 15.0834L6.86291 13.063C6.84987 13.0566 6.83904 13.0468 6.83171 13.0347C6.82439 13.0227 6.82089 13.0089 6.82163 12.995V9.61733C6.82158 9.60096 6.81627 9.58499 6.80641 9.57155C6.79655 9.5581 6.7826 9.54782 6.76642 9.54206L4.43256 8.7112C4.41953 8.70646 4.40546 8.70483 4.39161 8.70645C4.37775 8.70807 4.36452 8.71289 4.3531 8.72049C4.34148 8.72773 4.33195 8.7376 4.32537 8.7492C4.31879 8.76081 4.31538 8.77379 4.31543 8.78696V13.1509C4.31543 13.9417 4.66734 14.5937 5.47178 15.0204L9.5719 17.2334Z" fill="url(#paint4_linear_9798_40804)"/>
<defs>
<linearGradient id="paint0_linear_9798_40804" x1="1.82226" y1="2.92902" x2="19.5298" y2="2.92902" gradientUnits="userSpaceOnUse">
<stop stop-color="#6FBE44"/>
<stop offset="1" stop-color="#30B34A"/>
</linearGradient>
<linearGradient id="paint1_linear_9798_40804" x1="1653.17" y1="646.059" x2="3770.99" y2="646.059" gradientUnits="userSpaceOnUse">
<stop stop-color="#6FBE44"/>
<stop offset="1" stop-color="#30B34A"/>
</linearGradient>
<linearGradient id="paint2_linear_9798_40804" x1="966.812" y1="1203.3" x2="1348.63" y2="1203.3" gradientUnits="userSpaceOnUse">
<stop stop-color="#6FBE44"/>
<stop offset="1" stop-color="#30B34A"/>
</linearGradient>
<linearGradient id="paint3_linear_9798_40804" x1="0.00206416" y1="14.5358" x2="21.3525" y2="14.5358" gradientUnits="userSpaceOnUse">
<stop stop-color="#6F7073"/>
<stop offset="1" stop-color="#8C8F91"/>
</linearGradient>
<linearGradient id="paint4_linear_9798_40804" x1="1729.94" y1="2579.62" x2="4867.68" y2="2579.62" gradientUnits="userSpaceOnUse">
<stop stop-color="#6F7073"/>
<stop offset="1" stop-color="#8C8F91"/>
</linearGradient>
</defs>
</svg>
