<svg width="351" height="251" viewBox="0 0 351 251" fill="none" xmlns="http://www.w3.org/2000/svg">
<path d="M61.0328 243.02C4.88413 198.936 -5.12243 149.688 31.0131 95.2762C70.0921 36.4117 152.236 61.5145 169.725 59.8449C187.196 58.1947 187.463 19.7929 237.832 3.77605C287 -11.872 337.714 21.3655 317.936 98.8096C297.586 178.428 372.94 150.53 344.503 243.195L61.0328 243.02Z" fill="#DEF2DE"/>
<path d="M114.416 251C177.607 251 228.833 243.758 228.833 234.825C228.833 225.891 177.607 218.65 114.416 218.65C51.2259 218.65 0 225.891 0 234.825C0 243.758 51.2259 251 114.416 251Z" fill="#F5F5F5"/>
<rect x="53.3147" y="34.2429" width="124.001" height="204.763" rx="14" fill="#18BC46"/>
<rect x="58.1072" y="38.434" width="114.416" height="196.381" rx="11" fill="white"/>
<rect x="91.6536" y="34.243" width="47.324" height="11.3757" rx="5.68787" fill="#18BC46"/>
<rect x="102.437" y="39.6313" width="32.9471" height="3.59234" rx="1.79617" fill="white"/>
<rect x="95.8481" y="39.6313" width="3.59423" height="3.59234" rx="1.79617" fill="white"/>
<rect x="97.6418" y="167.159" width="64.6961" height="3.59234" rx="1.79617" fill="#DFE2ED"/>
<rect x="97.6418" y="173.745" width="25.1596" height="3.59234" rx="1.79617" fill="#DFE2ED"/>
<rect x="69.4873" y="165.363" width="22.1644" height="13.7706" rx="6" fill="#DFE2ED"/>
<rect x="97.6418" y="188.115" width="64.6961" height="3.59234" rx="1.79617" fill="#DFE2ED"/>
<rect x="97.6418" y="194.701" width="25.1596" height="3.59234" rx="1.79617" fill="#DFE2ED"/>
<rect x="69.4873" y="186.318" width="22.1644" height="13.7706" rx="6" fill="#DFE2ED"/>
<rect x="97.6418" y="209.07" width="64.6961" height="3.59234" rx="1.79617" fill="#DFE2ED"/>
<rect x="97.6418" y="215.656" width="25.1596" height="3.59234" rx="1.79617" fill="#DFE2ED"/>
<rect x="69.4873" y="207.274" width="22.1644" height="13.7706" rx="6" fill="#DFE2ED"/>
<rect x="67.6924" y="56.9944" width="73.0826" height="3.59234" rx="1.79617" fill="#DFE2ED"/>
<rect x="146.166" y="56.9944" width="16.7731" height="3.59234" rx="1.79617" fill="#DFE2ED"/>
<rect width="17.7757" height="6.83943" rx="2" transform="matrix(0.975781 -0.218752 0.218971 0.975731 87.3218 101.329)" fill="#45B549"/>
<rect width="18.5202" height="10.6165" rx="2" transform="matrix(0.0771958 0.997016 -0.997022 0.077115 133.503 96.6895)" fill="#45B549"/>
<rect width="15.9841" height="10.6165" rx="2" transform="matrix(0.0771958 0.997016 -0.997022 0.077115 101.517 100.876)" fill="#45B549"/>
<path d="M138.335 92.0794C137.865 92.9729 136.8 93.3711 135.851 93.0283C130.544 91.1124 128.377 90.9769 122.734 93.0064C121.763 93.3555 120.675 92.9382 120.216 92.0144L119.075 89.7178C118.576 88.7134 118.998 87.4876 120.043 87.0802C126.342 84.6239 132.658 84.6854 138.645 87.0553C139.697 87.4717 140.103 88.7179 139.576 89.7192L138.335 92.0794Z" fill="#45B549"/>
<path d="M129.706 133.476C129.375 134.478 128.324 135.043 127.287 134.845C118.481 133.166 109.357 135.749 103.686 140.017C102.865 140.635 101.711 140.639 100.951 139.948L97.709 137.001C96.7391 136.12 96.8628 134.559 97.9839 133.88C106.252 128.873 117.406 124.298 129.551 127.62C130.611 127.909 131.172 129.042 130.828 130.085L129.706 133.476Z" fill="#45B549"/>
<path d="M249.265 171.815L247.697 165.201L169.625 90.0237L153.008 92.4488L167.117 182.783L249.265 171.815Z" fill="#18BC46" fill-opacity="0.62"/>
<rect width="96.5695" height="12.772" transform="matrix(0.990775 -0.135514 0.135655 0.990756 157.97 87.3043)" fill="#C1C7C5"/>
<path d="M159.704 99.9583L255.382 86.8717L267.45 163.354L170.246 176.958L159.704 99.9583Z" fill="#E7EDEB"/>
<path d="M237.759 115.651C237.959 114.151 239.376 113.056 240.854 113.275C242.394 113.494 243.272 114.745 243.134 116.339C242.964 117.933 241.778 118.996 240.146 118.809C238.498 118.621 237.544 117.277 237.759 115.651ZM239.222 111.54L239.946 99.4731C240.007 98.4884 240.87 97.7381 241.855 97.8475L243.041 97.9882C244.011 98.0976 244.704 99.0198 244.55 100.005L242.641 111.931L239.222 111.54Z" fill="#DE1428"/>
<path d="M232.02 131.39C232.02 144.519 218.965 155.163 202.861 155.163C200.545 155.163 198.292 154.942 196.132 154.526C195.297 157.974 185.477 159.637 185.477 159.637C185.477 159.637 190.265 155.189 189.122 152.364C179.945 148.36 173.701 140.469 173.701 131.39C173.701 118.26 186.756 107.617 202.861 107.617C218.965 107.617 232.02 118.26 232.02 131.39Z" fill="#45B549"/>
<path d="M192.312 119.914L213.747 140.854" stroke="white" stroke-width="7" stroke-linecap="round" stroke-linejoin="round"/>
<path d="M213.504 119.672L192.552 141.095" stroke="white" stroke-width="7" stroke-linecap="round" stroke-linejoin="round"/>
</svg>
