<svg width="277" height="150" viewBox="0 0 277 150" fill="none" xmlns="http://www.w3.org/2000/svg">
<path opacity="0.1" d="M262.593 49.023H258.483C257.928 49.023 257.372 48.5787 257.372 47.9122C257.372 47.3568 257.817 46.8014 258.483 46.8014C259.705 46.6903 260.594 45.4685 260.594 44.1355C260.594 42.5804 259.483 41.3585 258.261 41.3585H228.825C226.714 41.3585 224.937 43.0247 224.937 45.2463C224.937 47.3568 226.603 49.1341 228.825 49.1341H212.274C208.164 49.1341 204.832 52.4665 204.832 56.5764C204.832 58.0205 205.276 59.3534 206.053 60.5753C202.055 60.9085 198.833 63.5745 198.833 66.6847C198.833 70.1282 202.499 72.9052 206.942 72.9052H261.927C262.593 72.9052 263.259 72.7941 263.815 72.683C269.813 72.1276 274.479 67.0179 274.479 60.9085C274.367 54.2438 269.147 49.023 262.593 49.023Z" fill="white"/>
<path opacity="0.1" d="M179.282 22.03H159.51H145.847H37.2114C34.8787 22.03 32.8793 24.5849 32.8793 27.8062V28.2505C32.8793 31.4718 34.7677 34.0266 37.2114 34.0266H36.5449H16.2174C13.8847 34.0266 11.8853 36.1372 11.8853 38.8031V39.2474C11.8853 41.9133 13.7736 44.0238 16.2174 44.0238H27.8807C28.7694 44.0238 29.4358 45.0235 29.4358 46.1343C29.4358 47.3562 28.7694 48.3559 27.8807 48.3559H23.4375C21.1049 48.3559 19.2165 50.9108 19.2165 54.1321V54.4653C19.2165 57.6866 21.1049 60.2415 23.4375 60.2415H38.7665H145.625H173.062C176.283 60.2415 178.838 56.6869 178.838 52.3548V51.6883C178.838 47.3562 176.283 43.8017 173.062 43.8017H164.398C162.398 43.8017 160.732 41.5801 160.732 38.9141C160.732 36.1372 162.398 34.0266 164.398 34.0266H179.171C181.504 34.0266 183.503 31.4718 183.503 28.2505V27.8062C183.503 24.5849 181.615 22.03 179.282 22.03Z" fill="white"/>
<path d="M68.647 149.995H93.4177V93.011L68.647 80.0147V149.995Z" fill="#409ACC"/>
<path d="M37.1003 149.995H51.6518V73.0171L37.1003 87.2353V149.995Z" fill="#409ACC"/>
<path d="M116.522 84.015H93.4172V149.996H116.522V84.015Z" fill="#409ACC"/>
<path d="M107.858 75.351H93.4172V84.5706H107.858V75.351Z" fill="#409ACC"/>
<path d="M139.627 70.0207H116.522V149.998H139.627V70.0207Z" fill="#409ACC"/>
<path d="M135.295 58.9108H120.855V70.0188H135.295V58.9108Z" fill="#409ACC"/>
<path d="M124.076 40.9157V58.9106H132.074V40.9157L128.075 33.1401L124.076 40.9157Z" fill="#409ACC"/>
<path d="M70.2017 116.67H51.6514V149.994H70.2017V116.67Z" fill="#409ACC"/>
<path d="M66.7586 112.004H55.2063V116.669H66.7586V112.004Z" fill="#409ACC"/>
<path d="M57.7607 107.339V112.004H64.2034V107.339L60.9821 102.229L57.7607 107.339Z" fill="#409ACC"/>
<path d="M205.941 99.4526H187.391V149.994H205.941V99.4526Z" fill="#409ACC"/>
<path d="M202.387 92.3409H190.834V99.45H202.387V92.3409Z" fill="#409ACC"/>
<path d="M193.39 85.3453V92.3433H199.832V85.3453L196.611 77.5697L193.39 85.3453Z" fill="#409ACC"/>
<path d="M139.627 110.339V149.995H147.736V110.339L143.737 67.0181L139.627 110.339Z" fill="#409ACC"/>
<path d="M190.946 149.995H214.05V99.6761L190.946 109.007V149.995Z" fill="#409ACC"/>
<path d="M137.516 149.995H152.068V99.6761L137.516 109.007V149.995Z" fill="#409ACC"/>
<path d="M251.707 82.4601H228.491V149.997H251.707V82.4601Z" fill="#409ACC"/>
<path d="M247.264 73.1287H232.823V82.5704H247.264V73.1287Z" fill="#409ACC"/>
<path d="M276.588 108.339H253.483V149.994H276.588V108.339Z" fill="#409ACC"/>
<path d="M272.367 102.563H257.926V108.339H272.367V102.563Z" fill="#409ACC"/>
<path d="M261.037 93.2311V102.562H269.146V93.2311L265.147 83.0117L261.037 93.2311Z" fill="#409ACC"/>
<path d="M187.392 116.67H168.841V149.994H187.392V116.67Z" fill="#409ACC"/>
<path d="M183.837 112.004H172.284V116.669H183.837V112.004Z" fill="#409ACC"/>
<path d="M174.84 107.339V112.004H181.282V107.339L178.061 102.229L174.84 107.339Z" fill="#409ACC"/>
<path d="M170.618 82.46H152.068V149.996H170.618V82.46Z" fill="#409ACC"/>
<path d="M167.175 63.2437H155.623V82.5715H167.175V63.2437Z" fill="#409ACC"/>
<path d="M158.177 63.6873V73.1291H164.62V63.6873L161.399 53.3569L158.177 63.6873Z" fill="#409ACC"/>
<path d="M216.938 118.117V149.996H225.047V118.117L220.937 83.1265L216.938 118.117Z" fill="#409ACC"/>
<path d="M167.064 130.666H145.403V149.994H167.064V130.666Z" fill="#466D71"/>
<path d="M165.176 116.004H147.292V130.666H165.176V116.004Z" fill="#466D71"/>
<path d="M147.292 130.668H165.287L147.292 128.557V130.668Z" fill="#D8E0E1"/>
<path d="M163.287 114.117H149.18V116.005H163.287V114.117Z" fill="#7799A7"/>
<path d="M149.18 116.004H147.292V118.447H149.18V116.004Z" fill="#7799A7"/>
<path d="M145.514 149.998H167.063L145.514 147.665V149.998Z" fill="#D8E0E1"/>
<path d="M165.175 116.004H163.286V118.447H165.175V116.004Z" fill="#7799A7"/>
<path d="M149.402 116.004H149.18V149.994H149.402V116.004Z" fill="#7799A7"/>
<path d="M148.513 118.448H148.291V149.994H148.513V118.448Z" fill="#7799A7"/>
<path d="M147.514 118.448H147.292V149.994H147.514V118.448Z" fill="#7799A7"/>
<path d="M146.625 130.666H146.403V149.994H146.625V130.666Z" fill="#7799A7"/>
<path d="M145.625 130.666H145.403V149.994H145.625V130.666Z" fill="#7799A7"/>
<path d="M164.287 118.448H164.065V149.994H164.287V118.448Z" fill="#7799A7"/>
<path d="M165.175 118.448H164.953V149.994H165.175V118.448Z" fill="#7799A7"/>
<path d="M166.175 130.666H165.953V149.994H166.175V130.666Z" fill="#7799A7"/>
<path d="M167.064 130.666H166.842V149.994H167.064V130.666Z" fill="#7799A7"/>
<path d="M150.291 116.004H150.068V149.994H150.291V116.004Z" fill="#7799A7"/>
<path d="M151.18 116.004H150.958V149.994H151.18V116.004Z" fill="#7799A7"/>
<path d="M152.068 116.004H151.846V149.994H152.068V116.004Z" fill="#7799A7"/>
<path d="M152.957 116.004H152.734V149.994H152.957V116.004Z" fill="#7799A7"/>
<path d="M153.845 116.004H153.623V149.994H153.845V116.004Z" fill="#7799A7"/>
<path d="M154.623 116.004H154.401V149.994H154.623V116.004Z" fill="#7799A7"/>
<path d="M155.511 116.004H155.289V149.994H155.511V116.004Z" fill="#7799A7"/>
<path d="M156.4 116.004H156.178V149.994H156.4V116.004Z" fill="#7799A7"/>
<path d="M157.289 116.004H157.067V149.994H157.289V116.004Z" fill="#7799A7"/>
<path d="M158.177 116.004H157.955V149.994H158.177V116.004Z" fill="#7799A7"/>
<path d="M159.066 116.004H158.844V149.994H159.066V116.004Z" fill="#7799A7"/>
<path d="M159.843 116.004H159.621V149.994H159.843V116.004Z" fill="#7799A7"/>
<path d="M160.732 116.004H160.51V149.994H160.732V116.004Z" fill="#7799A7"/>
<path d="M161.62 116.004H161.398V149.994H161.62V116.004Z" fill="#7799A7"/>
<path d="M162.509 116.004H162.287V149.994H162.509V116.004Z" fill="#7799A7"/>
<path d="M163.398 116.004H163.176V149.994H163.398V116.004Z" fill="#7799A7"/>
<path d="M165.287 116.005H163.398V114.117H155.512C151.735 117.56 151.068 122.226 151.068 127.335C151.068 136.888 156.511 144.775 167.175 146.441V130.668H165.287V116.005Z" fill="#8897A6"/>
<path d="M161.732 112.783H150.958V114.116H161.732V112.783Z" fill="#386266"/>
<path d="M152.735 110.784L150.958 112.784H161.732L160.066 110.784H152.735Z" fill="#C9D8E5"/>
<path d="M252.261 130.003H238.821V149.997H252.261V130.003Z" fill="#386266"/>
<path d="M251.262 128.447H239.82V130.335H251.262V128.447Z" fill="#386266"/>
<path d="M249.707 127.45H241.487V128.45H249.707V127.45Z" fill="#386266"/>
<path d="M248.151 126.56H242.819V127.671H248.151V126.56Z" fill="#386266"/>
<path d="M222.716 105.343H211.385V149.997H222.716V105.343Z" fill="#7799A7"/>
<path d="M221.827 101.788H212.163V105.787H221.827V101.788Z" fill="#7799A7"/>
<path d="M220.494 99.5668H213.607V101.9H220.494V99.5668Z" fill="#7799A7"/>
<path d="M219.272 97.4556H214.718V99.8993H219.272V97.4556Z" fill="#7799A7"/>
<path d="M203.387 36.0303H205.386L204.387 23.3672L203.387 36.0303Z" fill="#5A7D81"/>
<path d="M210.496 39.0306H198.166V42.8073H210.496V39.0306Z" fill="#5A7D81"/>
<path d="M192.056 42.4752V150H216.605V42.4752L204.386 40.809L192.056 42.4752Z" fill="#A6BCC5"/>
<path d="M192.056 150H216.716L204.386 40.809L192.056 150Z" fill="#C9D8E5"/>
<path d="M192.056 150L204.386 40.809L192.056 42.4752V150Z" fill="#5A7D81"/>
<path d="M207.497 35.9188H200.943V39.0291H207.497V35.9188Z" fill="#5A7D81"/>
<path d="M216.605 149.999V42.474L207.719 41.2521L216.605 149.999Z" fill="#A1A6A9"/>
<path d="M198.055 97.2367L192.056 150H216.716L210.718 97.2367H198.055Z" fill="#466D71"/>
<path d="M238.488 71.1284H222.715V89.0122H238.488V71.1284Z" fill="#D3832C"/>
<path d="M240.599 88.901H220.493V149.995H240.599V88.901Z" fill="#EEB35B"/>
<path d="M228.047 78.4607H221.382V88.9022H228.047V78.4607Z" fill="#E09F47"/>
<path d="M239.932 78.4607H233.268V88.9022H239.932V78.4607Z" fill="#E09F47"/>
<path d="M233.379 88.901H228.047V149.995H233.379V88.901Z" fill="#D3832C"/>
<path d="M237.044 67.1303H224.048V69.1297H237.044V67.1303Z" fill="#29565A"/>
<path d="M235.933 65.4622H225.27V67.1284H235.933V65.4622Z" fill="#29565A"/>
<path d="M234.712 64.1327H226.381V65.4656H234.712V64.1327Z" fill="#29565A"/>
<path d="M233.712 63.1302H227.491V64.241H233.712V63.1302Z" fill="#29565A"/>
<path d="M232.156 53.4699H228.935V55.9137H232.156V53.4699Z" fill="#29565A"/>
<path d="M230.046 53.578H231.157L230.602 33.3615L230.046 53.578Z" fill="#29565A"/>
<path d="M233.045 55.7999H228.158V67.9076H233.045V55.7999Z" fill="#29565A"/>
<path d="M231.49 56.5778H229.713V69.1298H231.49V56.5778Z" fill="#00313A"/>
<path d="M237.933 69.1293H223.159V71.1288H237.933V69.1293Z" fill="#E09F47"/>
<path d="M232.157 53.4699H231.601V55.9137H232.157V53.4699Z" fill="#466D71"/>
<path d="M233.045 55.7999H232.157V63.1311H233.045V55.7999Z" fill="#466D71"/>
<path d="M229.49 53.4699H228.935V55.9137H229.49V53.4699Z" fill="#00313A"/>
<path d="M228.047 63.1302H227.491V64.13H228.047V63.1302Z" fill="#00313A"/>
<path d="M226.936 64.1327H226.381V65.4656H226.936V64.1327Z" fill="#00313A"/>
<path d="M225.825 65.3538H225.27V67.02H225.825V65.3538Z" fill="#00313A"/>
<path d="M224.603 67.1303H224.048V69.1297H224.603V67.1303Z" fill="#00313A"/>
<path d="M233.712 63.1302H233.157V64.13H233.712V63.1302Z" fill="#466D71"/>
<path d="M234.712 64.1327H234.156V65.4656H234.712V64.1327Z" fill="#466D71"/>
<path d="M235.933 65.3538H235.378V67.02H235.933V65.3538Z" fill="#466D71"/>
<path d="M237.044 67.1303H236.489V69.1297H237.044V67.1303Z" fill="#466D71"/>
<path d="M228.713 55.7999H228.158V63.1311H228.713V55.7999Z" fill="#00313A"/>
<path d="M235.378 79.6838H234.378V88.9034H235.378V79.6838Z" fill="#D3832C"/>
<path d="M237.155 79.6838H236.156V88.9034H237.155V79.6838Z" fill="#D3832C"/>
<path d="M239.044 79.6838H238.044V88.9034H239.044V79.6838Z" fill="#D3832C"/>
<path opacity="0.2" d="M235.378 79.6838H235.156V88.9034H235.378V79.6838Z" fill="#090070"/>
<path opacity="0.2" d="M237.155 79.6838H236.933V88.9034H237.155V79.6838Z" fill="#090070"/>
<path opacity="0.2" d="M239.044 79.6838H238.822V88.9034H239.044V79.6838Z" fill="#090070"/>
<path d="M223.381 79.6838H222.382V88.9034H223.381V79.6838Z" fill="#D3832C"/>
<path d="M225.159 79.6838H224.159V88.9034H225.159V79.6838Z" fill="#D3832C"/>
<path d="M227.047 79.6838H226.047V88.9034H227.047V79.6838Z" fill="#D3832C"/>
<path opacity="0.2" d="M223.27 79.6838H223.048V88.9034H223.27V79.6838Z" fill="#090070"/>
<path opacity="0.2" d="M225.158 79.6838H224.936V88.9034H225.158V79.6838Z" fill="#090070"/>
<path opacity="0.2" d="M226.936 79.6838H226.714V88.9034H226.936V79.6838Z" fill="#090070"/>
<path opacity="0.2" d="M235.378 72.7946H234.378V78.4596H235.378V72.7946Z" fill="#090070"/>
<path opacity="0.2" d="M237.155 72.7946H236.156V78.4596H237.155V72.7946Z" fill="#090070"/>
<path opacity="0.2" d="M235.378 72.7946H235.156V78.4596H235.378V72.7946Z" fill="#090070"/>
<path opacity="0.2" d="M237.155 72.7946H236.933V78.4596H237.155V72.7946Z" fill="#090070"/>
<path opacity="0.2" d="M225.159 72.7946H224.159V78.4596H225.159V72.7946Z" fill="#090070"/>
<path opacity="0.2" d="M227.047 72.7946H226.047V78.4596H227.047V72.7946Z" fill="#090070"/>
<path opacity="0.2" d="M225.158 72.7946H224.936V78.4596H225.158V72.7946Z" fill="#090070"/>
<path opacity="0.2" d="M226.936 72.7946H226.714V78.4596H226.936V72.7946Z" fill="#090070"/>
<path d="M222.715 90.0118H221.604V149.995H222.715V90.0118Z" fill="#E09F47"/>
<path d="M224.826 90.0118H223.715V149.995H224.826V90.0118Z" fill="#E09F47"/>
<path d="M226.936 90.0118H225.825V149.995H226.936V90.0118Z" fill="#E09F47"/>
<path opacity="0.2" d="M222.826 90.0118H222.493V149.995H222.826V90.0118Z" fill="#090070"/>
<path opacity="0.2" d="M224.936 90.0118H224.603V149.995H224.936V90.0118Z" fill="#090070"/>
<path opacity="0.2" d="M227.047 90.0118H226.714V149.995H227.047V90.0118Z" fill="#090070"/>
<path d="M235.489 90.0118H234.378V149.995H235.489V90.0118Z" fill="#E09F47"/>
<path d="M237.6 90.0118H236.489V149.995H237.6V90.0118Z" fill="#E09F47"/>
<path d="M239.71 90.0118H238.599V149.995H239.71V90.0118Z" fill="#E09F47"/>
<path opacity="0.2" d="M235.6 90.0118H235.267V149.995H235.6V90.0118Z" fill="#090070"/>
<path opacity="0.2" d="M237.71 90.0118H237.377V149.995H237.71V90.0118Z" fill="#090070"/>
<path opacity="0.2" d="M239.821 90.0118H239.488V149.995H239.821V90.0118Z" fill="#090070"/>
<path opacity="0.2" d="M233.378 78.4607H232.934V149.996H233.378V78.4607Z" fill="#090070"/>
<path opacity="0.2" d="M229.49 72.9068H228.602V149.996H229.49V72.9068Z" fill="#090070"/>
<path opacity="0.2" d="M231.157 72.9068H230.269V149.996H231.157V72.9068Z" fill="#090070"/>
<path opacity="0.2" d="M232.823 72.9068H231.935V149.996H232.823V72.9068Z" fill="#090070"/>
<path opacity="0.2" d="M229.491 72.9068H229.269V149.996H229.491V72.9068Z" fill="#090070"/>
<path opacity="0.2" d="M231.157 72.9068H230.935V149.996H231.157V72.9068Z" fill="#090070"/>
<path opacity="0.2" d="M232.712 72.9068H232.49V149.996H232.712V72.9068Z" fill="#090070"/>
<path opacity="0.2" d="M224.825 70.0176H224.048V71.1284H224.825V70.0176Z" fill="#090070"/>
<path opacity="0.2" d="M226.936 70.0176H226.159V71.1284H226.936V70.0176Z" fill="#090070"/>
<path opacity="0.2" d="M228.935 70.0176H228.158V71.1284H228.935V70.0176Z" fill="#090070"/>
<path opacity="0.2" d="M230.935 70.0176H230.157V71.1284H230.935V70.0176Z" fill="#090070"/>
<path opacity="0.2" d="M233.045 70.0176H232.268V71.1284H233.045V70.0176Z" fill="#090070"/>
<path opacity="0.2" d="M235.045 70.0176H234.267V71.1284H235.045V70.0176Z" fill="#090070"/>
<path opacity="0.2" d="M237.044 70.0176H236.267V71.1284H237.044V70.0176Z" fill="#090070"/>
<path d="M269.923 126.56H256.483V149.998H269.923V126.56Z" fill="#C9D8E5"/>
<path d="M268.923 124.561H257.482V126.783H268.923V124.561Z" fill="#C9D8E5"/>
<path d="M267.257 123.45H259.038V124.783H267.257V123.45Z" fill="#C9D8E5"/>
<path d="M265.814 122.34H260.482V123.673H265.814V122.34Z" fill="#C9D8E5"/>
<path d="M260.482 123.562H259.038V124.672H257.482V126.561H256.483V149.999H261.815V122.34H260.482V123.562Z" fill="#386266"/>
<path d="M207.163 123.894H179.504V149.998H207.163V123.894Z" fill="#D4E0EA"/>
<path d="M193.278 105.453C197.266 105.453 200.498 103.663 200.498 101.454C200.498 99.2459 197.266 97.4556 193.278 97.4556C189.29 97.4556 186.058 99.2459 186.058 101.454C186.058 103.663 189.29 105.453 193.278 105.453Z" fill="#29565A"/>
<path d="M204.83 104.12H181.948V123.892H204.83V104.12Z" fill="#D4E0EA"/>
<path d="M181.948 123.893H204.719L181.948 121.005V123.893Z" fill="#C7D5DB"/>
<path d="M179.615 131.89H207.163L179.615 129.113V131.89Z" fill="#C7D5DB"/>
<path d="M202.387 101.568H184.392V104.123H202.387V101.568Z" fill="#7799A7"/>
<path d="M208.385 131.892H178.393V149.998H208.385V131.892Z" fill="#D4E0EA"/>
<path d="M184.392 104.12H181.948V107.453H184.392V104.12Z" fill="#7799A7"/>
<path d="M178.282 149.997H208.274L178.394 146.775L178.282 149.997Z" fill="#C7D5DB"/>
<path d="M204.72 104.12H202.276V107.453H204.72V104.12Z" fill="#7799A7"/>
<path d="M184.725 104.12H184.392V149.996H184.725V104.12Z" fill="#A6BCC5"/>
<path d="M183.503 107.453H183.17V149.996H183.503V107.453Z" fill="#A6BCC5"/>
<path d="M182.281 107.453H181.948V149.996H182.281V107.453Z" fill="#A6BCC5"/>
<path d="M181.059 123.894H180.726V149.998H181.059V123.894Z" fill="#A6BCC5"/>
<path d="M179.838 123.894H179.504V149.998H179.838V123.894Z" fill="#A6BCC5"/>
<path d="M203.498 107.453H203.164V149.996H203.498V107.453Z" fill="#A6BCC5"/>
<path d="M204.719 107.453H204.386V149.996H204.719V107.453Z" fill="#A6BCC5"/>
<path d="M205.942 123.894H205.608V149.998H205.942V123.894Z" fill="#A6BCC5"/>
<path d="M207.163 123.894H206.83V149.998H207.163V123.894Z" fill="#A6BCC5"/>
<path d="M185.836 104.12H185.503V149.996H185.836V104.12Z" fill="#A6BCC5"/>
<path d="M186.947 104.12H186.613V149.996H186.947V104.12Z" fill="#A6BCC5"/>
<path d="M187.947 104.12H187.613V149.996H187.947V104.12Z" fill="#A6BCC5"/>
<path d="M189.057 104.12H188.724V149.996H189.057V104.12Z" fill="#A6BCC5"/>
<path d="M190.168 104.12H189.834V149.996H190.168V104.12Z" fill="#A6BCC5"/>
<path d="M191.279 104.12H190.946V149.996H191.279V104.12Z" fill="#A6BCC5"/>
<path d="M192.39 104.12H192.056V149.996H192.39V104.12Z" fill="#A6BCC5"/>
<path d="M193.5 104.12H193.167V149.996H193.5V104.12Z" fill="#A6BCC5"/>
<path d="M194.611 104.12H194.278V149.996H194.611V104.12Z" fill="#A6BCC5"/>
<path d="M195.722 104.12H195.389V149.996H195.722V104.12Z" fill="#A6BCC5"/>
<path d="M196.833 104.12H196.5V149.996H196.833V104.12Z" fill="#A6BCC5"/>
<path d="M197.943 104.12H197.61V149.996H197.943V104.12Z" fill="#A6BCC5"/>
<path d="M199.054 104.12H198.721V149.996H199.054V104.12Z" fill="#A6BCC5"/>
<path d="M200.165 104.12H199.832V149.996H200.165V104.12Z" fill="#A6BCC5"/>
<path d="M201.275 104.12H200.942V149.996H201.275V104.12Z" fill="#A6BCC5"/>
<path d="M202.387 104.12H202.054V149.996H202.387V104.12Z" fill="#A6BCC5"/>
<path d="M207.163 123.895H204.831V104.123H202.276V101.568H192.168C187.28 106.233 186.502 112.565 186.502 119.452C186.502 132.337 194.611 143.001 208.274 145.222V131.893H207.052V123.895H207.163Z" fill="#B1B5B7"/>
<path opacity="0.3" d="M184.392 104.123H181.948V123.895H179.504V131.893H178.393V149.999H179.504H190.168V101.568H184.392V104.123Z" fill="#EEB35B"/>
<path d="M245.597 149.997H250.04V104.121L245.597 107.676V149.997Z" fill="#97B1BB"/>
<path d="M250.04 149.997H259.038V107.676L250.04 104.121V149.997Z" fill="#C9D8E5"/>
<path d="M250.04 149.997V104.121L245.597 149.997H250.04Z" fill="#7799A7"/>
<path d="M259.038 149.997V107.676L250.04 104.121L259.038 149.997Z" fill="#A1A6A9"/>
<path d="M180.06 78.4641H167.619V88.128H180.06V78.4641Z" fill="#E09F47"/>
<path d="M179.283 75.3542H168.397V78.5756H179.283V75.3542Z" fill="#E09F47"/>
<path d="M178.616 72.4631H169.063V75.3512H178.616V72.4631Z" fill="#E09F47"/>
<path d="M177.839 69.5758H169.73V72.4639H177.839V69.5758Z" fill="#E09F47"/>
<path d="M177.172 66.6885H170.508V69.5766H177.172V66.6885Z" fill="#E09F47"/>
<path d="M176.173 63.8013H171.396V66.6893H176.173V63.8013Z" fill="#E09F47"/>
<path opacity="0.2" d="M173.951 78.4641H167.619V88.128H173.951V78.4641Z" fill="#090070"/>
<path opacity="0.2" d="M173.951 75.3542H168.397V78.3534H173.951V75.3542Z" fill="#090070"/>
<path opacity="0.2" d="M173.951 72.4631H169.063V75.3512H173.951V72.4631Z" fill="#090070"/>
<path opacity="0.2" d="M173.951 69.5758H169.73V72.4639H173.951V69.5758Z" fill="#090070"/>
<path opacity="0.2" d="M173.951 66.6885H170.508V69.5766H173.951V66.6885Z" fill="#090070"/>
<path opacity="0.2" d="M173.507 63.8013H171.396V66.6893H173.507V63.8013Z" fill="#090070"/>
<path d="M173.951 63.9135H173.729C172.84 63.9135 172.174 64.58 172.174 65.4686V70.9115C172.174 71.8002 172.84 72.4666 173.729 72.4666H173.951C174.84 72.4666 175.506 71.8002 175.506 70.9115V65.4686C175.506 64.6911 174.84 63.9135 173.951 63.9135Z" fill="#EEB35B"/>
<path d="M175.395 60.912H172.174V63.8001H175.395V60.912Z" fill="#E09F47"/>
<path d="M174.728 58.0248H172.951V60.9129H174.728V58.0248Z" fill="#E09F47"/>
<path d="M174.062 67.0214H173.618C172.285 67.0214 171.174 68.1322 171.174 69.4652V78.2405C171.174 79.5734 172.285 80.6842 173.618 80.6842H174.062C175.395 80.6842 176.506 79.5734 176.506 78.2405V69.4652C176.506 68.2433 175.395 67.0214 174.062 67.0214Z" fill="#E09F47"/>
<path d="M174.062 67.4645H173.618C172.285 67.4645 171.174 68.5753 171.174 69.9083V78.6836C171.174 80.0166 172.285 81.1273 173.618 81.1273H174.062C175.395 81.1273 176.506 80.0166 176.506 78.6836V69.9083C176.506 68.5753 175.395 67.4645 174.062 67.4645Z" fill="#EEB35B"/>
<path d="M174.062 69.7984H173.506C171.729 69.7984 170.396 71.2424 170.396 72.9086V83.9055C170.396 85.6828 171.84 87.0158 173.506 87.0158H174.062C175.839 87.0158 177.172 85.5717 177.172 83.9055V72.9086C177.283 71.2424 175.839 69.7984 174.062 69.7984Z" fill="#E09F47"/>
<path d="M174.062 70.1332H173.506C171.729 70.1332 170.396 71.5772 170.396 73.2434V84.2403C170.396 86.0176 171.84 87.3505 173.506 87.3505H174.062C175.839 87.3505 177.172 85.9065 177.172 84.2403V73.3545C177.283 71.5772 175.839 70.1332 174.062 70.1332Z" fill="#EEB35B"/>
<path d="M174.173 72.796H173.507C171.396 72.796 169.73 74.4622 169.73 76.5727V89.6801C169.73 91.7906 171.396 93.4568 173.507 93.4568H174.173C176.284 93.4568 177.95 91.7906 177.95 89.6801V76.4616C177.95 74.4622 176.173 72.796 174.173 72.796Z" fill="#E09F47"/>
<path d="M174.173 73.0185H173.507C171.396 73.0185 169.73 74.6847 169.73 76.7952V89.9026C169.73 92.0131 171.396 93.6793 173.507 93.6793H174.173C176.284 93.6793 177.95 92.0131 177.95 89.9026V76.7952C177.95 74.7958 176.173 73.0185 174.173 73.0185Z" fill="#EEB35B"/>
<path d="M174.173 75.3542H173.396C171.063 75.3542 169.063 77.3537 169.063 79.6863V94.7932C169.063 97.1259 171.063 99.1253 173.396 99.1253H174.173C176.506 99.1253 178.505 97.1259 178.505 94.7932V79.6863C178.505 77.3537 176.617 75.3542 174.173 75.3542Z" fill="#E09F47"/>
<path d="M174.173 75.6871H173.396C171.063 75.6871 169.063 77.6866 169.063 80.0192V95.1261C169.063 97.4588 171.063 99.4582 173.396 99.4582H174.173C176.506 99.4582 178.505 97.4588 178.505 95.1261V80.0192C178.505 77.6866 176.617 75.6871 174.173 75.6871Z" fill="#EEB35B"/>
<path d="M174.062 77.5739H173.618C172.174 77.5739 171.063 78.6847 171.063 80.1287V93.014C171.063 94.458 172.174 95.5688 173.618 95.5688H174.062C175.506 95.5688 176.617 94.458 176.617 93.014V80.1287C176.617 78.6847 175.506 77.5739 174.062 77.5739Z" fill="#F1C27B"/>
<path d="M173.84 79.9058H173.618C173.062 79.9058 172.618 80.3501 172.618 80.9055V90.3473C172.618 90.9027 173.062 91.347 173.618 91.347H173.84C174.395 91.347 174.84 90.9027 174.84 90.3473V80.9055C174.84 80.3501 174.395 79.9058 173.84 79.9058Z" fill="#E09F47"/>
<path d="M184.837 131.114H162.843V149.998H184.837V131.114Z" fill="#E09F47"/>
<path d="M183.059 127.557H164.62V131.556H183.059V127.557Z" fill="#E09F47"/>
<path d="M182.171 124.339H165.398V128.449H182.171V124.339Z" fill="#E09F47"/>
<path d="M180.727 88.1264H166.953V123.783H180.727V88.1264Z" fill="#E09F47"/>
<path d="M181.949 88.1264H165.62V89.015H181.949V88.1264Z" fill="#F1C27B"/>
<path d="M170.174 89.3494H167.619V123.229H170.174V89.3494Z" fill="#EEB35B"/>
<path d="M180.06 89.3494H177.506V123.229H180.06V89.3494Z" fill="#EEB35B"/>
<path d="M172.507 89.3494H171.174V123.229H172.507V89.3494Z" fill="#D3832C"/>
<path opacity="0.2" d="M172.618 89.3494H172.285V123.229H172.618V89.3494Z" fill="#090070"/>
<path d="M181.726 125.005H165.842V126.005H181.726V125.005Z" fill="#D3832C"/>
<path opacity="0.2" d="M181.726 125.005H165.842V125.227H181.726V125.005Z" fill="#090070"/>
<path d="M181.726 126.559H165.842V127.559H181.726V126.559Z" fill="#D3832C"/>
<path opacity="0.2" d="M181.726 126.559H165.842V126.781H181.726V126.559Z" fill="#090070"/>
<path d="M182.504 127.892H165.064V128.892H182.504V127.892Z" fill="#D3832C"/>
<path opacity="0.2" d="M182.504 127.892H165.064V128.114H182.504V127.892Z" fill="#090070"/>
<path d="M166.286 129.226H165.064V131.225H166.286V129.226Z" fill="#D3832C"/>
<path opacity="0.2" d="M165.287 129.226H165.064V131.225H165.287V129.226Z" fill="#090070"/>
<path d="M168.064 129.226H166.842V131.225H168.064V129.226Z" fill="#D3832C"/>
<path opacity="0.2" d="M167.064 129.226H166.842V131.225H167.064V129.226Z" fill="#090070"/>
<path d="M169.952 129.226H168.73V131.225H169.952V129.226Z" fill="#D3832C"/>
<path opacity="0.2" d="M168.952 129.226H168.73V131.225H168.952V129.226Z" fill="#090070"/>
<path d="M171.729 129.226H170.508V131.225H171.729V129.226Z" fill="#D3832C"/>
<path opacity="0.2" d="M170.73 129.226H170.508V131.225H170.73V129.226Z" fill="#090070"/>
<path d="M173.507 129.226H172.285V131.225H173.507V129.226Z" fill="#D3832C"/>
<path opacity="0.2" d="M172.507 129.226H172.285V131.225H172.507V129.226Z" fill="#090070"/>
<path d="M175.283 129.226H174.062V131.225H175.283V129.226Z" fill="#D3832C"/>
<path opacity="0.2" d="M174.284 129.226H174.062V131.225H174.284V129.226Z" fill="#090070"/>
<path d="M177.061 129.226H175.839V131.225H177.061V129.226Z" fill="#D3832C"/>
<path opacity="0.2" d="M176.061 129.226H175.839V131.225H176.061V129.226Z" fill="#090070"/>
<path d="M178.949 129.226H177.727V131.225H178.949V129.226Z" fill="#D3832C"/>
<path opacity="0.2" d="M177.949 129.226H177.727V131.225H177.949V129.226Z" fill="#090070"/>
<path d="M180.727 129.226H179.505V131.225H180.727V129.226Z" fill="#D3832C"/>
<path opacity="0.2" d="M179.727 129.226H179.505V131.225H179.727V129.226Z" fill="#090070"/>
<path d="M182.504 129.226H181.282V131.225H182.504V129.226Z" fill="#D3832C"/>
<path opacity="0.2" d="M181.504 129.226H181.282V131.225H181.504V129.226Z" fill="#090070"/>
<path d="M164.509 133.224H163.287V134.557H164.509V133.224Z" fill="#D3832C"/>
<path opacity="0.2" d="M163.509 133.224H163.287V134.557H163.509V133.224Z" fill="#090070"/>
<path d="M166.286 133.224H165.064V134.557H166.286V133.224Z" fill="#D3832C"/>
<path opacity="0.2" d="M165.287 133.224H165.064V134.557H165.287V133.224Z" fill="#090070"/>
<path d="M168.064 133.224H166.842V134.557H168.064V133.224Z" fill="#D3832C"/>
<path opacity="0.2" d="M167.064 133.224H166.842V134.557H167.064V133.224Z" fill="#090070"/>
<path d="M169.841 133.224H168.619V134.557H169.841V133.224Z" fill="#D3832C"/>
<path opacity="0.2" d="M168.841 133.224H168.619V134.557H168.841V133.224Z" fill="#090070"/>
<path d="M171.729 133.224H170.508V134.557H171.729V133.224Z" fill="#D3832C"/>
<path opacity="0.2" d="M170.73 133.224H170.508V134.557H170.73V133.224Z" fill="#090070"/>
<path d="M173.507 133.224H172.285V134.557H173.507V133.224Z" fill="#D3832C"/>
<path opacity="0.2" d="M172.507 133.224H172.285V134.557H172.507V133.224Z" fill="#090070"/>
<path d="M175.283 133.224H174.062V134.557H175.283V133.224Z" fill="#D3832C"/>
<path opacity="0.2" d="M174.284 133.224H174.062V134.557H174.284V133.224Z" fill="#090070"/>
<path d="M177.061 133.224H175.839V134.557H177.061V133.224Z" fill="#D3832C"/>
<path opacity="0.2" d="M176.061 133.224H175.839V134.557H176.061V133.224Z" fill="#090070"/>
<path d="M178.838 133.224H177.616V134.557H178.838V133.224Z" fill="#D3832C"/>
<path opacity="0.2" d="M177.838 133.224H177.616V134.557H177.838V133.224Z" fill="#090070"/>
<path d="M180.615 133.224H179.393V134.557H180.615V133.224Z" fill="#D3832C"/>
<path opacity="0.2" d="M179.615 133.224H179.393V134.557H179.615V133.224Z" fill="#090070"/>
<path d="M182.504 133.224H181.282V134.557H182.504V133.224Z" fill="#D3832C"/>
<path opacity="0.2" d="M181.504 133.224H181.282V134.557H181.504V133.224Z" fill="#090070"/>
<path d="M184.281 133.224H183.059V134.557H184.281V133.224Z" fill="#D3832C"/>
<path opacity="0.2" d="M183.281 133.224H183.059V134.557H183.281V133.224Z" fill="#090070"/>
<path d="M164.509 135.333H163.287V147.663H164.509V135.333Z" fill="#D3832C"/>
<path opacity="0.2" d="M163.509 135.333H163.287V147.663H163.509V135.333Z" fill="#090070"/>
<path d="M166.286 135.333H165.064V147.663H166.286V135.333Z" fill="#D3832C"/>
<path opacity="0.2" d="M165.287 135.333H165.064V147.663H165.287V135.333Z" fill="#090070"/>
<path d="M168.064 135.333H166.842V147.663H168.064V135.333Z" fill="#D3832C"/>
<path opacity="0.2" d="M167.064 135.333H166.842V147.663H167.064V135.333Z" fill="#090070"/>
<path d="M169.952 135.333H168.73V147.663H169.952V135.333Z" fill="#D3832C"/>
<path opacity="0.2" d="M168.952 135.333H168.73V147.663H168.952V135.333Z" fill="#090070"/>
<path d="M171.729 135.333H170.508V147.663H171.729V135.333Z" fill="#D3832C"/>
<path opacity="0.2" d="M170.73 135.333H170.508V147.663H170.73V135.333Z" fill="#090070"/>
<path d="M173.507 135.333H172.285V147.663H173.507V135.333Z" fill="#D3832C"/>
<path opacity="0.2" d="M172.507 135.333H172.285V147.663H172.507V135.333Z" fill="#090070"/>
<path d="M175.283 135.333H174.062V147.663H175.283V135.333Z" fill="#D3832C"/>
<path opacity="0.2" d="M174.284 135.333H174.062V147.663H174.284V135.333Z" fill="#090070"/>
<path d="M177.061 135.333H175.839V147.663H177.061V135.333Z" fill="#D3832C"/>
<path opacity="0.2" d="M176.061 135.333H175.839V147.663H176.061V135.333Z" fill="#090070"/>
<path d="M178.949 135.333H177.727V147.663H178.949V135.333Z" fill="#D3832C"/>
<path opacity="0.2" d="M177.949 135.333H177.727V147.663H177.949V135.333Z" fill="#090070"/>
<path d="M180.727 135.333H179.505V147.663H180.727V135.333Z" fill="#D3832C"/>
<path opacity="0.2" d="M179.727 135.333H179.505V147.663H179.727V135.333Z" fill="#090070"/>
<path d="M182.504 135.333H181.282V147.663H182.504V135.333Z" fill="#D3832C"/>
<path opacity="0.2" d="M181.504 135.333H181.282V147.663H181.504V135.333Z" fill="#090070"/>
<path d="M184.281 135.333H183.059V147.663H184.281V135.333Z" fill="#D3832C"/>
<path opacity="0.2" d="M183.281 135.333H183.059V147.663H183.281V135.333Z" fill="#090070"/>
<path d="M174.506 89.3494H173.284V123.229H174.506V89.3494Z" fill="#D3832C"/>
<path opacity="0.2" d="M174.395 89.3494H174.173V123.229H174.395V89.3494Z" fill="#090070"/>
<path d="M176.395 89.3494H175.173V123.229H176.395V89.3494Z" fill="#D3832C"/>
<path opacity="0.2" d="M176.283 89.3494H176.061V123.229H176.283V89.3494Z" fill="#090070"/>
<path d="M183.171 123.116H164.398V124.449H183.171V123.116Z" fill="#EEB35B"/>
<path d="M172.174 86.1274H171.507V87.7936H172.174V86.1274Z" fill="#D3832C"/>
<path d="M172.174 83.9039H171.507V85.5701H172.174V83.9039Z" fill="#D3832C"/>
<path d="M172.174 81.6842H171.507V83.3504H172.174V81.6842Z" fill="#D3832C"/>
<path d="M176.173 86.1274H175.506V87.7936H176.173V86.1274Z" fill="#D3832C"/>
<path d="M176.173 83.9039H175.506V85.5701H176.173V83.9039Z" fill="#D3832C"/>
<path d="M176.173 81.6842H175.506V83.3504H176.173V81.6842Z" fill="#D3832C"/>
<path opacity="0.2" d="M166.953 90.0163V123.118H167.619V90.0163H180.727V89.0166H166.953V90.0163Z" fill="#090070"/>
<path d="M173.395 75.129H174.284L173.84 74.1293L173.395 75.129Z" fill="#D3832C"/>
<path d="M172.062 75.3516L173.062 75.1294L172.285 74.3519L172.062 75.3516Z" fill="#D3832C"/>
<path d="M171.063 75.797L171.84 75.4638L170.952 75.0195L171.063 75.797Z" fill="#D3832C"/>
<path d="M170.507 76.2425L170.952 76.0204L170.285 75.6871L170.507 76.2425Z" fill="#D3832C"/>
<path d="M174.617 75.1294L175.617 75.3516L175.395 74.3519L174.617 75.1294Z" fill="#D3832C"/>
<path d="M176.506 75.797L176.728 75.0195L175.839 75.4638L176.506 75.797Z" fill="#D3832C"/>
<path d="M177.172 76.2425L177.394 75.6871L176.728 76.0204L177.172 76.2425Z" fill="#D3832C"/>
<path d="M173.395 72.5758H174.284L173.84 71.6871L173.395 72.5758Z" fill="#D3832C"/>
<path d="M172.285 72.799L173.062 72.5769L172.396 71.7993L172.285 72.799Z" fill="#D3832C"/>
<path d="M171.396 73.1303L172.063 72.7971L171.285 72.3528L171.396 73.1303Z" fill="#D3832C"/>
<path d="M170.841 73.5739L171.285 73.2407L170.618 73.0185L170.841 73.5739Z" fill="#D3832C"/>
<path d="M174.506 72.5769L175.395 72.799L175.173 71.7993L174.506 72.5769Z" fill="#D3832C"/>
<path d="M176.172 73.1303L176.395 72.3528L175.617 72.7971L176.172 73.1303Z" fill="#D3832C"/>
<path d="M176.728 73.5739L176.95 73.0185L176.394 73.2407L176.728 73.5739Z" fill="#D3832C"/>
<path d="M173.507 69.5766H174.173L173.84 68.9102L173.507 69.5766Z" fill="#D3832C"/>
<path d="M172.618 69.6869L173.284 69.5758L172.729 69.0204L172.618 69.6869Z" fill="#D3832C"/>
<path d="M171.951 70.0209L172.507 69.7988L171.84 69.4655L171.951 70.0209Z" fill="#D3832C"/>
<path d="M171.618 70.355L171.841 70.1328L171.396 69.9106L171.618 70.355Z" fill="#D3832C"/>
<path d="M174.395 69.5758L175.061 69.6869L174.95 69.0204L174.395 69.5758Z" fill="#D3832C"/>
<path d="M175.728 70.0209L175.839 69.4655L175.284 69.7988L175.728 70.0209Z" fill="#D3832C"/>
<path d="M176.173 70.355L176.284 69.9106L175.839 70.1328L176.173 70.355Z" fill="#D3832C"/>
<path d="M173.617 66.9103H174.062L173.84 66.466L173.617 66.9103Z" fill="#D3832C"/>
<path d="M172.951 67.0187L173.395 66.9076L173.062 66.5744L172.951 67.0187Z" fill="#D3832C"/>
<path d="M172.507 67.1321L172.84 67.0211L172.396 66.7989L172.507 67.1321Z" fill="#D3832C"/>
<path d="M174.173 66.9076L174.618 67.0187V66.5744L174.173 66.9076Z" fill="#D3832C"/>
<path d="M175.061 67.1321L175.172 66.7989L174.728 67.0211L175.061 67.1321Z" fill="#D3832C"/>
<path opacity="0.2" d="M173.507 60.912H172.174V63.8001H173.507V60.912Z" fill="#090070"/>
<path opacity="0.2" d="M173.507 58.0248H172.951V60.9129H173.507V58.0248Z" fill="#090070"/>
<path d="M184.948 131.114H162.51V131.559H184.948V131.114Z" fill="#29565A"/>
<path d="M173.284 58.0241H174.395L173.84 46.4718L173.284 58.0241Z" fill="#29565A"/>
<path d="M78.4226 42.5804L78.2004 41.6918L77.9783 42.5804C77.7561 43.358 58.095 121.003 44.7654 121.003C31.4359 121.003 22.7716 89.6782 22.6606 89.345L22.4384 88.4563L22.2162 89.345C17.2176 105.896 9.331 130.778 7.99805 131.666C7.99805 131.666 7.99804 131.666 8.10912 131.666V132.222C8.55344 132.222 9.331 132.222 16.2179 110.783C18.9949 102.008 21.7719 93.1217 22.5495 90.4558C24.1046 95.6765 32.3245 121.669 44.8765 121.669C57.9839 121.669 75.9788 52.9108 78.3115 43.6912C79.3112 46.9125 83.0879 58.1316 88.9752 69.3506C98.1948 86.7901 108.525 96.0098 118.967 96.0098V95.4543C94.0848 95.3433 78.5337 43.1358 78.4226 42.5804Z" fill="#A90000"/>
<path d="M79.4225 42.5804H76.8677V144.552H79.4225V42.5804Z" fill="#A90000"/>
<path d="M81.0891 72.3511H75.2019V144.442H81.0891V72.3511Z" fill="#A90000"/>
<path d="M81.0891 72.3511H80.5337V144.442H81.0891V72.3511Z" fill="#6D0000"/>
<path d="M76.6459 72.3511H75.2019V116.339H76.6459V72.3511Z" fill="#D60000"/>
<path d="M80.0895 56.9084H76.0906V72.4595H80.0895V56.9084Z" fill="#A90000"/>
<path d="M78.8676 40.8039H77.4236V43.0255H78.8676V40.8039Z" fill="#A90000"/>
<path d="M77.6452 42.5804H76.8677V56.9097H77.6452V42.5804Z" fill="#D60000"/>
<path d="M76.8681 56.8H76.0906V72.3512H76.8681V56.8Z" fill="#D60000"/>
<path d="M79.3118 42.5804H78.9785V56.9097H79.3118V42.5804Z" fill="#6D0000"/>
<path d="M80.1997 56.8H79.7554V72.3512H80.1997V56.8Z" fill="#6D0000"/>
<path d="M81.0891 115.229H75.2019V144.443H81.0891V115.229Z" fill="#6D0000"/>
<path d="M23.3271 89.4602H21.8831V146.888H23.3271V89.4602Z" fill="#A90000"/>
<path d="M24.3263 106.234H20.9939V146.778H24.3263V106.234Z" fill="#A90000"/>
<path d="M24.3267 106.234H23.9934V146.778H24.3267V106.234Z" fill="#6D0000"/>
<path d="M21.8825 106.234H20.9939V131.005H21.8825V106.234Z" fill="#D60000"/>
<path d="M22.3274 89.4602H21.8831V97.569H22.3274V89.4602Z" fill="#D60000"/>
<path d="M23.3269 89.4602H23.1047V97.569H23.3269V89.4602Z" fill="#6D0000"/>
<path d="M23.7714 97.5667H21.5498V106.342H23.7714V97.5667Z" fill="#A90000"/>
<path d="M22.9936 88.57H22.2161V89.903H22.9936V88.57Z" fill="#A90000"/>
<path d="M21.9941 97.5667H21.5498V106.342H21.9941V97.5667Z" fill="#D60000"/>
<path d="M23.7715 97.5667H23.5493V106.342H23.7715V97.5667Z" fill="#6D0000"/>
<path d="M24.3263 130.447H20.9939V146.887H24.3263V130.447Z" fill="#6D0000"/>
<path d="M0.221924 135.001H6.88671L118.744 109.23V95.6783L0.221924 133.445V135.001Z" fill="#6D0000"/>
<path d="M0.221924 135.001L118.744 101.677V95.6783L0.221924 133.445V135.001Z" fill="#A90000"/>
<path d="M75.2012 138.664H63.0935V139.997H75.2012V138.664Z" fill="#6D0000"/>
<path d="M75.2012 128.111H63.0935V129.222H75.2012V128.111Z" fill="#6D0000"/>
<path d="M75.2012 117.446H63.0935V118.779H75.2012V117.446Z" fill="#6D0000"/>
<path d="M62.2048 129.554L74.979 139.218L76.2009 138.329L63.4267 128.554L62.2048 129.554Z" fill="#6D0000"/>
<path d="M62.2048 138.329L63.4267 139.218L76.2009 129.554L74.979 128.554L62.2048 138.329Z" fill="#6D0000"/>
<path d="M71.2025 132.332H67.0925V135.553H71.2025V132.332Z" fill="#6D0000"/>
<path d="M62.2048 118.889L74.8679 128.553L76.2009 127.665L63.4267 117.89L62.2048 118.889Z" fill="#6D0000"/>
<path d="M62.2048 127.665L63.4267 128.553L76.2009 118.889L74.8679 117.89L62.2048 127.665Z" fill="#6D0000"/>
<path d="M71.2025 121.667H67.0925V124.888H71.2025V121.667Z" fill="#6D0000"/>
<path d="M77.2003 43.4683H61.5381V47.8004H77.2003V43.4683Z" fill="#A90000"/>
<path d="M63.4267 44.5796H63.0935V46.8012H63.4267V44.5796Z" fill="#6D0000"/>
<path d="M64.8699 44.5796H64.5366V46.8012H64.8699V44.5796Z" fill="#6D0000"/>
<path d="M66.314 44.5796H65.9807V46.8012H66.314V44.5796Z" fill="#6D0000"/>
<path d="M67.6479 44.5796H67.3147V46.8012H67.6479V44.5796Z" fill="#6D0000"/>
<path d="M69.092 44.5796H68.7588V46.8012H69.092V44.5796Z" fill="#6D0000"/>
<path d="M70.5356 44.5796H70.2024V46.8012H70.5356V44.5796Z" fill="#6D0000"/>
<path d="M71.9792 44.5796H71.646V46.8012H71.9792V44.5796Z" fill="#6D0000"/>
<path d="M73.4233 44.5796H73.0901V46.8012H73.4233V44.5796Z" fill="#6D0000"/>
<path d="M74.8674 44.5796H74.5342V46.8012H74.8674V44.5796Z" fill="#6D0000"/>
<path d="M76.311 44.5796H75.9778V46.8012H76.311V44.5796Z" fill="#6D0000"/>
<path d="M61.5381 49.1333H62.3156L64.0929 48.2447V47.9114H61.5381V49.1333Z" fill="#6D0000"/>
<path d="M74.6455 48.2447L76.4228 49.1333H77.2003V47.9114H74.6455V48.2447Z" fill="#A90000"/>
<path d="M69.7582 43.913C70.4944 43.913 71.0912 43.3659 71.0912 42.6911C71.0912 42.0163 70.4944 41.4692 69.7582 41.4692C69.0221 41.4692 68.4253 42.0163 68.4253 42.6911C68.4253 43.3659 69.0221 43.913 69.7582 43.913Z" fill="#A90000"/>
<path d="M66.7588 43.4683H61.5381V47.8004H66.7588V43.4683Z" fill="#6D0000"/>
<path d="M61.5376 64.2422H62.3152L63.9813 63.3536V62.9092H61.5376V64.2422Z" fill="#6D0000"/>
<path d="M61.5376 57.2448V58.5777H63.9813V58.2445L62.3152 57.2448H61.5376Z" fill="#6D0000"/>
<path d="M76.5334 58.5783H61.5376V62.9104H76.5334V58.5783Z" fill="#A90000"/>
<path d="M63.3152 59.6862H62.9819V61.9078H63.3152V59.6862Z" fill="#6D0000"/>
<path d="M64.6479 59.6862H64.3147V61.9078H64.6479V59.6862Z" fill="#6D0000"/>
<path d="M66.092 59.6862H65.7588V61.9078H66.092V59.6862Z" fill="#6D0000"/>
<path d="M67.425 59.6862H67.0918V61.9078H67.425V59.6862Z" fill="#6D0000"/>
<path d="M68.7573 59.6862H68.4241V61.9078H68.7573V59.6862Z" fill="#6D0000"/>
<path d="M70.2014 59.6862H69.8682V61.9078H70.2014V59.6862Z" fill="#6D0000"/>
<path d="M71.5344 59.6862H71.2012V61.9078H71.5344V59.6862Z" fill="#6D0000"/>
<path d="M72.8682 59.6862H72.5349V61.9078H72.8682V59.6862Z" fill="#6D0000"/>
<path d="M74.3122 59.6862H73.979V61.9078H74.3122V59.6862Z" fill="#6D0000"/>
<path d="M75.6453 59.6862H75.312V61.9078H75.6453V59.6862Z" fill="#6D0000"/>
<path d="M74.0896 63.3536L75.7558 64.2422H76.5333V62.9092H74.0896V63.3536Z" fill="#A90000"/>
<path d="M74.0896 58.2447V58.578H76.5333V57.245H75.7558L74.0896 58.2447Z" fill="#A90000"/>
<path d="M66.647 58.5783H61.9817V62.9104H66.647V58.5783Z" fill="#6D0000"/>
<path d="M62.3159 99.5608H62.9824L64.5375 98.3389V97.8946H62.3159V99.5608Z" fill="#6D0000"/>
<path d="M62.3159 90.7867V92.4529H64.5375V92.0086L62.9824 90.7867H62.3159Z" fill="#6D0000"/>
<path d="M76.0898 92.4529H62.3159V97.8958H76.0898V92.4529Z" fill="#A90000"/>
<path d="M63.9819 93.7872H63.6487V96.6753H63.9819V93.7872Z" fill="#6D0000"/>
<path d="M65.2041 93.7872H64.8708V96.6753H65.2041V93.7872Z" fill="#6D0000"/>
<path d="M66.5369 93.7872H66.2036V96.6753H66.5369V93.7872Z" fill="#6D0000"/>
<path d="M67.7585 93.7872H67.4253V96.6753H67.7585V93.7872Z" fill="#6D0000"/>
<path d="M68.9805 93.7872H68.6472V96.6753H68.9805V93.7872Z" fill="#6D0000"/>
<path d="M70.2026 93.7872H69.8694V96.6753H70.2026V93.7872Z" fill="#6D0000"/>
<path d="M71.5359 93.7872H71.2026V96.6753H71.5359V93.7872Z" fill="#6D0000"/>
<path d="M72.7575 93.7872H72.4243V96.6753H72.7575V93.7872Z" fill="#6D0000"/>
<path d="M73.9795 93.7872H73.6462V96.6753H73.9795V93.7872Z" fill="#6D0000"/>
<path d="M75.3122 93.7872H74.979V96.6753H75.3122V93.7872Z" fill="#6D0000"/>
<path d="M73.7571 98.3389L75.4233 99.5608H76.0897V97.8946H73.7571V98.3389Z" fill="#A90000"/>
<path d="M73.7571 92.0086V92.4529H76.0897V90.7867H75.4233L73.7571 92.0086Z" fill="#A90000"/>
<path d="M66.6478 92.4529H62.76V97.8958H66.6478V92.4529Z" fill="#6D0000"/>
<path d="M62.4268 80.4572H63.0932L64.6484 79.4574V79.0131H62.4268V80.4572Z" fill="#6D0000"/>
<path d="M62.4268 72.6812V74.1252H64.6484V73.792L63.0932 72.6812H62.4268Z" fill="#6D0000"/>
<path d="M76.0895 74.1229H62.4268V79.0104H76.0895V74.1229Z" fill="#A90000"/>
<path d="M64.0928 75.3479H63.7595V77.9027H64.0928V75.3479Z" fill="#6D0000"/>
<path d="M65.2034 75.3481H64.8701V77.903H65.2034V75.3481Z" fill="#6D0000"/>
<path d="M66.4255 75.3481H66.0923V77.903H66.4255V75.3481Z" fill="#6D0000"/>
<path d="M67.6475 75.3481H67.3142V77.903H67.6475V75.3481Z" fill="#6D0000"/>
<path d="M68.7583 75.3481H68.425V77.903H68.7583V75.3481Z" fill="#6D0000"/>
<path d="M69.9804 75.3481H69.6472V77.903H69.9804V75.3481Z" fill="#6D0000"/>
<path d="M71.2019 75.3481H70.8687V77.903H71.2019V75.3481Z" fill="#6D0000"/>
<path d="M72.3132 75.3481H71.98V77.903H72.3132V75.3481Z" fill="#6D0000"/>
<path d="M73.5344 75.3481H73.2012V77.903H73.5344V75.3481Z" fill="#6D0000"/>
<path d="M74.7563 75.3481H74.4231V77.903H74.7563V75.3481Z" fill="#6D0000"/>
<path d="M73.7571 79.4574L75.4233 80.4572H76.0897V79.0131H73.7571V79.4574Z" fill="#A90000"/>
<path d="M73.7571 73.792V74.1252H76.0897V72.6812H75.4233L73.7571 73.792Z" fill="#A90000"/>
<path d="M66.5365 74.1229H62.8708V79.0104H66.5365V74.1229Z" fill="#6D0000"/>
<path d="M20.9941 143.667H14.1072V144.444H20.9941V143.667Z" fill="#6D0000"/>
<path d="M20.9941 137.668H14.1072V138.334H20.9941V137.668Z" fill="#6D0000"/>
<path d="M20.9941 131.671H14.1072V132.448H20.9941V131.671Z" fill="#6D0000"/>
<path d="M13.6631 138.447L20.8833 144.001L21.5498 143.446L14.3296 138.003L13.6631 138.447Z" fill="#6D0000"/>
<path d="M13.6631 143.446L14.3296 144.001L21.5498 138.447L20.8833 138.003L13.6631 143.446Z" fill="#6D0000"/>
<path d="M18.7726 140.112H16.4399V141.889H18.7726V140.112Z" fill="#6D0000"/>
<path d="M13.6631 132.449L20.8833 138.003L21.5498 137.447L14.3296 131.893L13.6631 132.449Z" fill="#6D0000"/>
<path d="M13.6631 137.447L14.3296 138.003L21.5498 132.449L20.8833 131.893L13.6631 137.447Z" fill="#6D0000"/>
<path d="M18.7726 134.005H16.4399V135.782H18.7726V134.005Z" fill="#6D0000"/>
<path d="M22.1049 90.0125H13.2185V92.4563H22.1049V90.0125Z" fill="#A90000"/>
<path d="M14.3298 90.6788H14.1077V91.9007H14.3298V90.6788Z" fill="#6D0000"/>
<path d="M15.1072 90.6788H14.885V91.9007H15.1072V90.6788Z" fill="#6D0000"/>
<path d="M15.9961 90.6788H15.7739V91.9007H15.9961V90.6788Z" fill="#6D0000"/>
<path d="M16.7734 90.6788H16.5513V91.9007H16.7734V90.6788Z" fill="#6D0000"/>
<path d="M17.5515 90.6788H17.3293V91.9007H17.5515V90.6788Z" fill="#6D0000"/>
<path d="M18.4397 90.6788H18.2175V91.9007H18.4397V90.6788Z" fill="#6D0000"/>
<path d="M19.2175 90.6788H18.9954V91.9007H19.2175V90.6788Z" fill="#6D0000"/>
<path d="M19.9951 90.6788H19.7729V91.9007H19.9951V90.6788Z" fill="#6D0000"/>
<path d="M20.8838 90.6788H20.6616V91.9007H20.8838V90.6788Z" fill="#6D0000"/>
<path d="M21.6611 90.6788H21.439V91.9007H21.6611V90.6788Z" fill="#6D0000"/>
<path d="M13.2185 93.2342H13.6628L14.6625 92.6788V92.4567H13.2185V93.2342Z" fill="#6D0000"/>
<path d="M20.6611 92.6788L21.6608 93.2342H22.1052V92.4567H20.6611V92.6788Z" fill="#A90000"/>
<path d="M17.8842 88.9017C17.4399 88.9017 17.1067 89.235 17.1067 89.5682C17.1067 89.9014 17.4399 90.2347 17.8842 90.2347C18.3286 90.2347 18.6618 89.9014 18.6618 89.5682C18.6618 89.235 18.3286 88.9017 17.8842 88.9017Z" fill="#A90000"/>
<path d="M16.2177 90.0125H13.2185V92.4563H16.2177V90.0125Z" fill="#6D0000"/>
<path d="M13.219 101.674H13.6633L14.663 101.23V101.008H13.219V101.674Z" fill="#6D0000"/>
<path d="M13.219 97.7877V98.5652H14.663V98.3431L13.6633 97.7877H13.219Z" fill="#6D0000"/>
<path d="M21.7721 98.5656H13.219V101.009H21.7721V98.5656Z" fill="#A90000"/>
<path d="M14.2192 99.1233H13.9971V100.345H14.2192V99.1233Z" fill="#6D0000"/>
<path d="M14.9966 99.1233H14.7744V100.345H14.9966V99.1233Z" fill="#6D0000"/>
<path d="M15.8855 99.1233H15.6633V100.345H15.8855V99.1233Z" fill="#6D0000"/>
<path d="M16.6628 99.1233H16.4407V100.345H16.6628V99.1233Z" fill="#6D0000"/>
<path d="M17.4409 99.1233H17.2188V100.345H17.4409V99.1233Z" fill="#6D0000"/>
<path d="M18.2182 99.1233H17.9961V100.345H18.2182V99.1233Z" fill="#6D0000"/>
<path d="M18.9958 99.1233H18.7737V100.345H18.9958V99.1233Z" fill="#6D0000"/>
<path d="M19.7737 99.1233H19.5515V100.345H19.7737V99.1233Z" fill="#6D0000"/>
<path d="M20.551 99.1233H20.3289V100.345H20.551V99.1233Z" fill="#6D0000"/>
<path d="M21.3281 99.1233H21.106V100.345H21.3281V99.1233Z" fill="#6D0000"/>
<path d="M20.3279 101.23L21.3276 101.674H21.7719V101.008H20.3279V101.23Z" fill="#A90000"/>
<path d="M20.3279 98.3431V98.5652H21.7719V97.7877H21.3276L20.3279 98.3431Z" fill="#A90000"/>
<path d="M16.1076 98.5656H13.4417V101.009H16.1076V98.5656Z" fill="#6D0000"/>
<path d="M13.6626 121.556H13.9958L14.9956 120.89V120.668H13.6626V121.556Z" fill="#6D0000"/>
<path d="M13.6626 116.67V117.558H14.9956V117.336L13.9958 116.67H13.6626Z" fill="#6D0000"/>
<path d="M21.4382 117.56H13.6626V120.67H21.4382V117.56Z" fill="#A90000"/>
<path d="M14.6621 118.338H14.4399V119.893H14.6621V118.338Z" fill="#6D0000"/>
<path d="M15.3286 118.338H15.1064V119.893H15.3286V118.338Z" fill="#6D0000"/>
<path d="M16.1059 118.338H15.8838V119.893H16.1059V118.338Z" fill="#6D0000"/>
<path d="M16.7722 118.338H16.55V119.893H16.7722V118.338Z" fill="#6D0000"/>
<path d="M17.5503 118.338H17.3281V119.893H17.5503V118.338Z" fill="#6D0000"/>
<path d="M18.2168 118.338H17.9946V119.893H18.2168V118.338Z" fill="#6D0000"/>
<path d="M18.883 118.338H18.6609V119.893H18.883V118.338Z" fill="#6D0000"/>
<path d="M19.6604 118.338H19.4382V119.893H19.6604V118.338Z" fill="#6D0000"/>
<path d="M20.3271 118.338H20.105V119.893H20.3271V118.338Z" fill="#6D0000"/>
<path d="M21.1047 118.338H20.8826V119.893H21.1047V118.338Z" fill="#6D0000"/>
<path d="M20.217 120.89L21.1057 121.556H21.4389V120.668H20.217V120.89Z" fill="#A90000"/>
<path d="M20.217 117.336V117.558H21.4389V116.67H21.1057L20.217 117.336Z" fill="#A90000"/>
<path d="M16.1068 117.56H13.8853V120.67H16.1068V117.56Z" fill="#6D0000"/>
<path d="M13.6631 110.899H14.1074L14.996 110.232V110.01H13.6631V110.899Z" fill="#6D0000"/>
<path d="M13.6631 106.455V107.344H14.996V107.121L14.1074 106.455H13.6631Z" fill="#6D0000"/>
<path d="M21.4387 107.345H13.6631V110.122H21.4387V107.345Z" fill="#A90000"/>
<path d="M14.6626 108.013H14.4404V109.457H14.6626V108.013Z" fill="#6D0000"/>
<path d="M15.3291 108.013H15.1069V109.457H15.3291V108.013Z" fill="#6D0000"/>
<path d="M15.9953 108.013H15.7732V109.457H15.9953V108.013Z" fill="#6D0000"/>
<path d="M16.6619 108.013H16.4397V109.457H16.6619V108.013Z" fill="#6D0000"/>
<path d="M17.3286 108.013H17.1064V109.457H17.3286V108.013Z" fill="#6D0000"/>
<path d="M18.1055 108.013H17.8833V109.457H18.1055V108.013Z" fill="#6D0000"/>
<path d="M18.7722 108.013H18.55V109.457H18.7722V108.013Z" fill="#6D0000"/>
<path d="M19.439 108.013H19.2168V109.457H19.439V108.013Z" fill="#6D0000"/>
<path d="M20.1052 108.013H19.8831V109.457H20.1052V108.013Z" fill="#6D0000"/>
<path d="M20.7717 108.013H20.5496V109.457H20.7717V108.013Z" fill="#6D0000"/>
<path d="M20.2166 110.232L21.1052 110.899H21.4384V110.01H20.2166V110.232Z" fill="#A90000"/>
<path d="M20.2166 107.121V107.344H21.4384V106.455H21.1052L20.2166 107.121Z" fill="#A90000"/>
<path d="M16.1068 107.345H13.9963V110.122H16.1068V107.345Z" fill="#6D0000"/>
<path d="M13.2182 89.4602H11.7742V146.666H13.2182V89.4602Z" fill="#A90000"/>
<path d="M13.5517 97.5667H11.3301V106.342H13.5517V97.5667Z" fill="#A90000"/>
<path d="M12.7739 88.57H11.9963V89.903H12.7739V88.57Z" fill="#A90000"/>
<path d="M14.1066 106.234H10.7742V146.778H14.1066V106.234Z" fill="#A90000"/>
<path d="M12.2185 89.4602H11.7742V97.569H12.2185V89.4602Z" fill="#D60000"/>
<path d="M11.7744 97.5667H11.3301V106.342H11.7744V97.5667Z" fill="#D60000"/>
<path d="M11.5517 106.234H10.7742V146.778H11.5517V106.234Z" fill="#D60000"/>
<path d="M14.2178 106.234H13.8845V146.778H14.2178V106.234Z" fill="#6D0000"/>
<path d="M13.6626 97.5667H13.4404V106.342H13.6626V97.5667Z" fill="#6D0000"/>
<path d="M13.2185 89.4602H12.9963V97.569H13.2185V89.4602Z" fill="#6D0000"/>
<path d="M61.538 42.5804H58.9832V144.107H61.538V42.5804Z" fill="#A90000"/>
<path d="M62.3153 56.9084H58.3164V72.4595H62.3153V56.9084Z" fill="#A90000"/>
<path d="M60.8713 40.8039H59.4272V43.0255H60.8713V40.8039Z" fill="#A90000"/>
<path d="M63.2041 72.3511H57.3169V144.442H63.2041V72.3511Z" fill="#A90000"/>
<path d="M59.7607 42.5804H58.9832V56.9097H59.7607V42.5804Z" fill="#D60000"/>
<path d="M59.094 56.9084H58.3164V72.4595H59.094V56.9084Z" fill="#D60000"/>
<path d="M58.6498 72.3511H57.3169V144.442H58.6498V72.3511Z" fill="#D60000"/>
<path d="M63.2041 72.3511H62.6487V144.442H63.2041V72.3511Z" fill="#6D0000"/>
<path d="M62.3161 56.8H61.8718V72.3512H62.3161V56.8Z" fill="#6D0000"/>
<path d="M61.5383 42.5804H61.2051V56.9097H61.5383V42.5804Z" fill="#6D0000"/>
<path d="M60.3163 43.0255L59.983 42.1368L59.7609 43.0255C52.8739 70.7954 37.9893 123.447 30.5469 123.447C21.2162 123.447 12.7742 90.6787 12.6631 90.3454L12.3299 89.1236L12.1077 90.4565C10.3304 102.342 4.66535 133.222 0 133.222V133.778C5.44291 133.778 11.108 99.7872 12.3299 91.7895C13.9961 97.8988 21.6606 124.003 30.4359 124.003C39.7665 124.003 57.7615 53.0226 59.983 44.0252C61.2049 47.2465 65.8703 59.2431 73.3126 71.2397C81.4214 84.0139 94.4178 99.3429 110.858 99.3429V98.7875C80.0885 98.6764 60.5384 43.5809 60.3163 43.0255Z" fill="#A90000"/>
<path d="M82.643 144.328H55.3174V149.994H82.643V144.328Z" fill="#D3832C"/>
<path opacity="0.3" d="M65.8698 144.328H64.759V149.994H65.8698V144.328Z" fill="#090070"/>
<path opacity="0.3" d="M68.6464 144.328H67.5356V149.994H68.6464V144.328Z" fill="#090070"/>
<path opacity="0.3" d="M71.4243 144.328H70.3135V149.994H71.4243V144.328Z" fill="#090070"/>
<path opacity="0.3" d="M74.3115 144.328H73.2007V149.994H74.3115V144.328Z" fill="#090070"/>
<path opacity="0.3" d="M77.0896 144.328H75.9788V149.994H77.0896V144.328Z" fill="#090070"/>
<path d="M59.6495 144.328H55.3174V149.994H59.6495V144.328Z" fill="#EEB35B"/>
<path d="M25.214 146.774H9.66284V149.995H25.214V146.774Z" fill="#D3832C"/>
<path opacity="0.3" d="M15.6614 146.773H14.9949V149.995H15.6614V146.773Z" fill="#090070"/>
<path opacity="0.3" d="M17.3276 146.773H16.6611V149.995H17.3276V146.773Z" fill="#090070"/>
<path opacity="0.3" d="M18.883 146.773H18.2166V149.995H18.883V146.773Z" fill="#090070"/>
<path opacity="0.3" d="M20.5493 146.773H19.8828V149.995H20.5493V146.773Z" fill="#090070"/>
<path opacity="0.3" d="M22.104 146.773H21.4375V149.995H22.104V146.773Z" fill="#090070"/>
<path d="M12.1066 146.774H9.66284V149.995H12.1066V146.774Z" fill="#EEB35B"/>
<path d="M104.637 52.1317C104.526 55.5751 105.081 56.6859 105.637 56.5748C106.192 56.4638 114.19 48.7993 114.19 48.7993L107.636 44.3561C107.747 44.3561 104.748 48.6882 104.637 52.1317Z" fill="#C2D3E2"/>
<path d="M108.414 6.69958H104.859V11.476H108.414V6.69958Z" fill="#466D71"/>
<path d="M151.402 76.3484L150.291 76.7927L147.07 81.6802L146.403 84.4572C146.403 84.4572 149.18 83.9018 149.513 83.4575C149.958 83.1243 152.29 78.3478 152.29 78.2367C152.29 78.1257 151.846 77.1259 151.735 76.7927C151.624 76.5705 151.402 76.3484 151.402 76.3484Z" fill="#466D71"/>
<path d="M137.628 97.7886C137.628 97.7886 142.515 95.3449 144.181 94.123C145.848 92.9011 146.514 83.5704 146.514 83.5704L138.072 85.0145L137.628 97.7886Z" fill="#466D71"/>
<path d="M116.189 50.0239L119.744 54.356L120.521 48.6909L118.633 47.0247L116.189 50.0239Z" fill="#466D71"/>
<path d="M128.186 47.9129V51.4675L128.741 59.132L132.518 58.7988L130.407 47.3575L128.186 47.9129Z" fill="#466D71"/>
<path d="M123.52 37.3613H124.964L124.187 30.03L123.52 37.3613Z" fill="#466D71"/>
<path d="M130.519 44.0256L137.85 43.248L130.519 42.5815V44.0256Z" fill="#466D71"/>
<path d="M118.078 44.0256V42.5815L110.635 43.248L118.078 44.0256Z" fill="#466D71"/>
<path d="M128.296 39.0251L132.851 33.1379L127.297 38.0254L128.296 39.0251Z" fill="#466D71"/>
<path d="M130.296 41.362L136.739 37.8075L129.741 40.1402L130.296 41.362Z" fill="#466D71"/>
<path d="M117.855 41.362L118.411 40.1402L111.413 37.8075L117.855 41.362Z" fill="#466D71"/>
<path d="M119.855 39.0251L120.855 38.0254L115.301 33.1379L119.855 39.0251Z" fill="#466D71"/>
<path d="M112.523 36.3593C112.301 35.1374 110.302 26.6954 110.302 25.9178C110.302 25.1402 110.302 25.0292 110.191 23.474C110.08 21.9189 107.525 19.8084 107.525 19.8084L105.859 24.807C105.859 24.807 105.637 32.9158 105.97 35.1374C106.192 37.4701 106.969 39.3584 107.192 40.4692C107.414 41.58 107.858 44.6903 108.302 47.0229C108.747 49.3556 109.413 52.9102 109.413 52.9102L115.856 50.6886C115.856 50.6886 113.523 42.2465 113.19 41.3579C112.746 40.4692 112.746 37.5812 112.523 36.3593Z" fill="#C2D3E2"/>
<path d="M112.523 36.3606C112.301 35.1387 110.302 26.6967 110.302 25.9191C110.302 25.1416 110.302 25.0305 110.191 23.5865C111.079 23.0311 110.08 18.6989 109.857 18.81C109.635 18.9211 106.636 22.8089 106.414 23.0311L105.97 24.2529C105.859 24.6972 105.859 25.2526 105.748 25.697C105.748 26.1413 105.748 26.6967 105.748 27.3632C105.859 28.3629 106.747 28.8072 107.525 28.8072C108.413 28.8072 109.08 27.141 109.524 27.8075C109.969 28.3629 111.635 39.2487 111.635 41.4703C111.635 43.6919 110.413 49.6902 110.413 49.6902L113.412 42.8032C113.19 42.0257 113.079 41.4703 112.968 41.2481C112.746 40.4706 112.746 37.5825 112.523 36.3606Z" fill="#466D71"/>
<path d="M105.192 24.1425H108.303L108.636 14.8118H104.748L105.192 24.1425Z" fill="#C2D3E2"/>
<path d="M108.413 24.0291H104.97V24.9177H108.413V24.0291Z" fill="#C2D3E2"/>
<path d="M105.859 26.9187H107.636L108.303 24.9193H105.081L105.859 26.9187Z" fill="#C2D3E2"/>
<path d="M106.97 26.4751H106.414C106.192 26.4751 105.97 26.6973 105.97 26.9194V27.0305C105.97 27.2527 106.192 27.4748 106.414 27.4748H106.97C107.192 27.4748 107.414 27.2527 107.414 27.0305V26.9194C107.414 26.5862 107.192 26.4751 106.97 26.4751Z" fill="#C2D3E2"/>
<path d="M108.858 13.5888H104.526C104.193 13.5888 103.97 13.811 103.97 14.1442V14.4774C103.97 14.8107 104.193 15.0328 104.526 15.0328H108.858C109.191 15.0328 109.413 14.8107 109.413 14.4774V14.1442C109.413 13.811 109.191 13.5888 108.858 13.5888Z" fill="#466D71"/>
<path d="M104.526 14.477H108.858L111.635 12.2554H101.749L104.526 14.477Z" fill="#466D71"/>
<path d="M111.635 11.4794H101.749V12.3681H111.635V11.4794Z" fill="#C2D3E2"/>
<path d="M106.747 8.70056H101.749L102.193 10.0335L101.749 11.4776H106.747H111.635L111.301 10.0335L111.635 8.70056H106.747Z" fill="#C2D3E2"/>
<path d="M106.747 0.0375882C106.636 0.148668 107.414 0.481907 107.192 1.48162C106.97 2.48134 104.193 3.59214 104.193 4.48078C104.193 5.36941 104.97 6.70237 104.97 6.70237C104.97 6.70237 107.192 6.70237 108.525 6.70237C109.302 6.70237 110.857 4.81402 109.969 2.03702C109.191 -0.0734914 106.859 -0.0734915 106.747 0.0375882Z" fill="#CD6C00"/>
<path d="M124.076 37.2501C120.632 37.2501 117.633 39.5828 117.633 42.1376C117.633 44.6925 118.744 45.8033 118.744 45.8033L129.852 46.0254C129.852 46.0254 130.741 45.0257 130.741 42.4709C130.741 40.0271 128.186 37.2501 124.076 37.2501Z" fill="#C2D3E2"/>
<path d="M124.076 38.0261C120.744 38.0261 117.855 40.2477 117.855 42.8025C117.855 45.3574 118.966 46.3571 118.966 46.3571L129.741 46.5793C129.741 46.5793 130.519 45.5795 130.519 43.1358C130.519 40.581 128.075 38.0261 124.076 38.0261Z" fill="#466D71"/>
<path d="M128.297 55.91C128.297 54.7992 128.297 51.4668 128.519 51.1336C128.63 50.9114 129.074 47.8012 128.963 46.135C128.852 44.4688 128.186 42.025 128.186 42.025C128.186 42.025 126.408 40.581 124.298 40.8031C122.187 40.9142 120.077 42.8026 120.077 42.8026C120.077 42.8026 120.188 48.912 120.743 50.2449C121.299 51.5779 120.077 54.2438 120.077 54.2438L124.853 59.7978L129.963 58.3537C129.963 58.4648 128.297 57.0208 128.297 55.91Z" fill="#C2D3E2"/>
<path d="M130.407 58.1303C129.074 57.9082 126.631 59.4633 124.853 58.6857C123.076 57.9082 120.188 53.5761 119.41 52.4653C118.522 51.3545 114.967 47.911 114.967 47.911L106.636 55.1312C106.636 55.1312 109.413 58.1303 109.302 61.796C109.191 64.573 107.858 66.6835 108.191 68.3497C108.525 70.238 111.857 69.0162 111.635 73.7926C111.524 75.792 107.525 80.2352 107.747 85.0116C107.858 88.0108 111.302 86.9 111.191 88.0108C111.079 89.1216 109.08 93.7869 109.191 96.5639C109.191 99.5631 111.191 100.785 111.302 103.784C111.413 107.45 111.524 110.449 111.524 111.115C111.413 113.115 110.302 117.003 109.969 121.668C109.635 126.333 110.635 134.886 110.302 136.664C109.969 138.441 107.192 144.217 107.192 144.217C107.192 144.217 140.293 144.217 140.849 144.217C141.404 144.217 140.071 131.776 140.071 131.554C140.071 131.332 141.404 130.999 141.626 130.665C141.848 130.443 141.182 116.447 141.182 115.67C141.182 114.892 142.515 114.226 142.959 113.559C143.404 113.004 137.627 64.684 136.295 61.796C134.85 59.3522 131.74 58.4636 130.407 58.1303Z" fill="#A6BCC5"/>
<path d="M128.741 42.0245C126.853 39.914 124.409 40.6915 124.076 40.6915C123.742 40.6915 121.854 40.2472 120.188 41.6912C118.855 42.9131 118.633 44.3572 118.633 44.3572C118.633 44.3572 118.188 44.6904 118.188 45.8012C118.077 47.5785 120.299 48.6893 120.299 48.6893L128.741 48.8003C128.741 48.8003 130.518 47.8006 130.629 46.912C130.74 46.0233 129.963 45.0236 129.963 44.8015C129.852 44.5793 129.741 43.0242 128.741 42.0245Z" fill="#C2D3E2"/>
<path d="M138.517 80.0137L142.96 72.7935L137.073 66.6841L138.517 80.0137Z" fill="#466D71"/>
<path d="M139.627 89.0134V89.9021L142.848 90.4575L154.067 72.1293L152.734 71.3517L139.627 89.0134Z" fill="#466D71"/>
<path d="M138.738 78.4597L139.627 89.0123L141.849 89.6788L152.734 71.3506L145.514 67.3517L138.738 78.4597Z" fill="#C2D3E2"/>
<path d="M127.631 119.226L135.74 114.672L130.297 68.4625L127.631 119.226Z" fill="#C2D3E2"/>
<path d="M135.74 61.463L139.072 112.004C139.072 112.004 127.52 118.114 127.631 119.224C127.742 120.335 131.185 121.113 131.185 122.446C131.185 123.779 119.078 128.666 118.189 129.888C117.411 131.11 123.965 128.777 124.298 130.666C124.632 132.554 122.077 144.106 122.077 144.328C130.963 144.328 140.516 144.328 140.738 144.328C141.294 144.328 139.961 131.888 139.961 131.665C139.961 131.443 141.294 131.11 141.516 130.777C141.738 130.555 141.071 116.559 141.071 115.781C141.071 115.003 142.404 114.337 142.849 113.67C143.293 113.115 137.517 64.7954 136.184 61.9073C136.073 61.9073 135.851 61.6852 135.74 61.463Z" fill="#466D71"/>
<path d="M126.52 98.3423C124.965 100.675 122.743 104.007 121.855 104.674C120.522 105.785 117.523 110.117 115.634 112.894C113.857 115.671 110.414 115.893 110.414 115.893C110.08 121.336 112.968 124.557 115.301 122.447C117.634 120.336 122.299 107.562 123.188 105.451C124.076 103.341 126.742 105.229 127.409 105.118C128.075 105.007 129.408 78.3479 129.297 78.3479C129.408 78.2368 127.52 96.8982 126.52 98.3423Z" fill="#466D71"/>
<path d="M108.969 51.4679C107.859 52.4676 104.748 55.1335 105.193 56.4665C106.526 60.021 112.857 56.0222 114.412 49.0241C115.301 45.3585 115.19 45.5807 113.302 42.4704C113.302 42.3594 110.191 50.4682 108.969 51.4679Z" fill="#C2D3E2"/>
<path d="M104.748 14.4776C104.526 14.5887 104.193 15.2551 104.304 15.5884C104.415 16.0327 104.082 17.5878 103.971 17.6989C103.971 17.81 104.082 19.0318 104.082 19.0318C104.082 19.0318 104.97 19.254 104.859 19.5872C104.748 19.9205 104.082 20.2537 103.971 20.4759C103.86 20.587 104.97 22.9196 104.97 22.9196C104.97 22.9196 104.97 22.3642 105.081 21.9199C105.081 21.4756 106.081 20.698 106.859 21.0313C107.636 21.2534 108.303 23.0307 108.303 23.0307L108.636 14.6997H104.97C104.97 14.8108 104.97 14.3665 104.748 14.4776Z" fill="#466D71"/>
<path d="M128.297 56.1325C128.075 55.5771 128.408 51.1339 128.408 51.1339L130.408 47.3572C130.408 47.3572 130.63 47.2461 130.63 46.5797C130.63 45.8021 129.963 45.0245 129.963 44.8024C129.963 44.5802 129.963 44.4691 129.741 44.0248C129.519 43.5805 124.632 42.1365 124.409 42.1365C124.187 42.1365 121.41 43.2473 120.411 43.9137C119.522 44.5802 118.522 45.8021 118.522 47.024C118.522 48.2459 120.188 50.9118 120.188 50.9118L120.411 49.4677C120.411 49.4677 120.188 47.8015 120.411 47.1351C120.522 46.4686 121.41 46.3575 122.299 46.4686C123.188 46.4686 123.521 46.1353 123.521 45.4689C123.521 44.8024 121.41 45.3578 121.188 45.1356C120.966 44.9135 124.409 42.5808 124.521 42.5808C124.632 42.5808 127.409 44.5802 127.52 44.6913C127.631 44.8024 125.52 44.5802 125.076 44.9135C124.632 45.2467 124.854 47.4683 124.965 47.8015C125.076 48.1348 124.521 48.2459 124.076 48.1348C123.632 48.1348 123.299 48.5791 123.521 48.5791C123.965 48.468 124.409 49.0234 124.076 49.1345C123.743 49.1345 123.188 49.5788 123.188 49.5788C123.188 49.5788 124.298 49.3567 124.743 49.4677C124.854 49.4677 124.743 50.0231 124.854 50.2453C124.965 50.3564 126.187 50.0231 126.187 49.5788C126.187 49.1345 125.742 48.0237 125.742 47.4683C125.742 46.8018 127.409 46.6907 127.964 47.4683C128.408 48.2459 125.853 51.4672 124.965 51.5783C124.076 51.6893 121.855 51.1339 121.521 51.1339C121.188 51.1339 121.41 51.6893 124.076 55.0217C126.076 57.3544 128.297 58.132 129.408 58.3541C129.852 58.4652 132.74 58.7984 132.74 58.7984C132.74 58.7984 128.519 56.6879 128.297 56.1325Z" fill="#466D71"/>
<path d="M109.192 17.2564C108.969 16.7011 108.081 15.9235 107.859 15.8124C107.636 15.7013 107.081 15.7013 107.081 16.59C106.97 17.4786 108.414 19.1448 108.303 20.1445C108.192 21.1442 108.969 23.4769 108.969 22.6994C108.858 19.478 110.08 19.2559 110.08 18.9226C110.08 18.5894 109.414 17.7008 109.192 17.2564Z" fill="#C2D3E2"/>
<path d="M149.18 74.795C148.846 75.2393 149.513 76.239 149.402 76.3501C149.291 76.4611 148.18 76.0168 148.069 76.5722C147.958 77.0166 148.735 77.9052 148.624 78.0163C148.513 78.0163 147.402 77.2387 147.069 77.9052C146.958 78.2384 147.402 78.7938 147.291 78.7938C147.18 78.7938 146.403 78.6827 146.625 79.6825C146.736 80.1268 147.291 81.2376 147.291 81.2376L150.846 75.3504C150.735 75.2393 149.291 74.5728 149.18 74.795Z" fill="#466D71"/>
<path d="M146.514 78.9048C146.292 79.1269 146.959 80.0156 147.181 80.3488C147.403 80.6821 147.847 81.4596 148.069 81.4596C148.291 81.4596 148.847 81.1264 148.847 81.0153C148.847 80.9042 148.18 80.0156 147.958 79.6823C147.736 79.3491 146.847 78.5715 146.514 78.9048Z" fill="#C2D3E2"/>
<path d="M148.625 78.1269C148.291 77.7936 147.181 77.2382 146.959 77.6826C146.847 78.0158 147.625 78.6823 147.958 79.0155C148.291 79.3488 148.958 80.0152 149.18 79.9042C149.402 79.7931 149.847 79.3488 149.847 79.2377C149.847 79.2377 148.958 78.4601 148.625 78.1269Z" fill="#C2D3E2"/>
<path d="M149.624 76.9058C149.291 76.5726 148.18 76.0172 147.958 76.4615C147.847 76.7947 148.736 77.4612 149.069 77.7945C149.402 78.1277 150.069 78.7942 150.291 78.6831C150.513 78.572 150.957 78.1277 150.957 78.0166C150.846 78.0166 149.958 77.2391 149.624 76.9058Z" fill="#C2D3E2"/>
<path d="M149.069 74.9038C148.847 75.237 149.624 76.0146 149.957 76.4589C150.291 76.7921 150.846 77.5697 151.068 77.5697C151.29 77.5697 151.846 77.1254 151.846 77.0143C151.846 76.9032 151.068 76.0146 150.735 75.6813C150.513 75.237 149.402 74.3484 149.069 74.9038Z" fill="#C2D3E2"/>
<path d="M104.304 16.1443C103.859 16.2553 103.637 16.8107 103.637 17.144C103.637 17.5883 104.082 17.6994 104.082 17.6994C104.193 17.6994 104.415 17.144 105.97 17.2551C106.525 17.2551 106.747 16.9218 106.747 16.4775C106.636 16.1443 104.748 16.0332 104.304 16.1443Z" fill="#C2D3E2"/>
<path d="M106.192 17.9206C105.748 17.8095 104.193 17.5873 103.971 17.6984C103.415 18.1427 103.971 19.0314 104.082 19.0314C104.304 19.1425 107.081 19.1425 107.303 19.0314C107.525 19.0314 107.525 18.476 107.414 18.2538C107.303 18.2538 106.637 18.1427 106.192 17.9206Z" fill="#C2D3E2"/>
<path d="M105.859 19.4745C105.526 19.3634 104.304 19.1412 104.193 19.2523C103.748 19.6966 103.971 20.5853 104.082 20.5853C104.193 20.6964 106.525 20.4742 106.748 20.4742C106.97 20.3631 106.97 19.9188 106.748 19.8077C106.637 19.6966 106.192 19.4745 105.859 19.4745Z" fill="#C2D3E2"/>
<path d="M142.626 144.333H104.415V149.998H142.626V144.333Z" fill="#C2D3E2"/>
<path d="M120.188 71.9045C115.522 75.3479 108.635 82.2349 108.08 83.9011C107.858 84.5676 107.969 85.4562 108.191 86.3448C109.08 87.4556 110.968 87.0113 111.079 87.7889C111.079 87.3446 111.301 85.7894 112.523 82.0127C113.301 79.569 118.299 75.6812 121.521 72.4599C124.631 69.3496 125.964 67.017 125.964 67.017C125.964 67.017 124.853 68.5721 120.188 71.9045Z" fill="#466D71"/>
<path d="M109.636 99.2324C110.191 100.454 110.858 101.454 111.08 102.898H111.191L125.853 69.463C125.853 69.463 122.521 75.3502 119.633 79.7934C114.856 87.1247 109.636 99.2324 109.636 99.2324Z" fill="#466D71"/>
<path d="M104.859 13.1456C104.637 13.1456 103.749 14.4786 103.637 15.034C103.526 15.5894 104.082 16.2559 104.082 16.2559L104.748 16.1448C104.748 16.1448 104.748 15.7005 104.748 15.4783C104.748 15.2561 105.082 14.5897 105.193 14.2564C105.304 13.9232 105.082 13.1456 104.859 13.1456Z" fill="#C2D3E2"/>
<path d="M114.745 44.8027L114.634 44.5806C114.634 44.5806 113.19 51.2454 112.413 53.0226C111.191 55.6885 108.858 56.5772 109.08 57.0215C109.413 57.688 110.413 59.0209 110.524 61.0204C110.635 63.0198 109.747 64.5749 110.302 64.686C110.858 64.7971 113.523 61.1314 114.634 56.7993C115.412 53.4669 116.078 50.4678 116.3 49.2459C115.523 48.4684 114.967 47.913 114.967 47.913C114.967 47.913 115.301 45.6914 114.745 44.8027Z" fill="#466D71"/>
</svg>
