<svg width="295" height="147" viewBox="0 0 295 147" fill="none" xmlns="http://www.w3.org/2000/svg">
<path d="M35.9635 10.7212C20.7782 10.7212 8.46753 23.0318 8.46753 38.2171C8.46753 53.4024 20.7782 65.7132 35.9635 65.7132C51.1488 65.7132 63.4595 53.4024 63.4595 38.2171C63.4595 23.0318 51.1488 10.7212 35.9635 10.7212Z" fill="#EBE0B8"/>
<path d="M265.499 18.4678C263.492 18.4678 261.865 20.0955 261.865 22.1015C261.865 24.1087 263.492 25.7352 265.499 25.7352C267.505 25.7352 269.131 24.1087 269.131 22.1015C269.131 20.0955 267.505 18.4678 265.499 18.4678Z" fill="#EBF0F0"/>
<path d="M259.728 57.3224C258.549 57.3224 257.593 58.2781 257.593 59.4589C257.593 60.6384 258.549 61.5954 259.728 61.5954C260.909 61.5954 261.865 60.6384 261.865 59.4589C261.865 58.2781 260.909 57.3224 259.728 57.3224Z" fill="#EBF0F0"/>
<path d="M98.6692 9.00396C97.4377 9.00396 96.4397 10.002 96.4397 11.2335C96.4397 12.465 97.4377 13.4631 98.6692 13.4631C99.9007 13.4631 100.899 12.465 100.899 11.2335C100.899 10.002 99.9007 9.00396 98.6692 9.00396Z" fill="#EBF0F0"/>
<path d="M0.787811 98.5888C0.352966 98.5888 0 98.9414 0 99.3767C0 99.8123 0.352966 100.166 0.787811 100.166C1.22376 100.166 1.57673 99.8123 1.57673 99.3767C1.57673 98.9414 1.22376 98.5888 0.787811 98.5888Z" fill="#EBF0F0"/>
<path d="M282.174 52.395C281.204 52.395 280.42 53.1799 280.42 54.149C280.42 55.1171 281.204 55.9028 282.174 55.9028C283.142 55.9028 283.927 55.1171 283.927 54.149C283.927 53.1799 283.142 52.395 282.174 52.395Z" fill="#EBF0F0"/>
<path d="M288.028 90.5884C287.322 90.5884 286.751 91.1607 286.751 91.8652C286.751 92.571 287.322 93.1424 288.028 93.1424C288.733 93.1424 289.305 92.571 289.305 91.8652C289.305 91.1607 288.733 90.5884 288.028 90.5884Z" fill="#EBF0F0"/>
<path d="M289.96 136.821C288.062 135.315 273.003 133.154 272.618 131.257C272.233 129.361 283.159 126.244 283.159 122.275C283.159 118.57 275.508 116.732 275.508 116.732L242.561 95.8569H96.1238L8.46753 145.747H294.584C294.584 145.747 293.802 139.87 289.96 136.821Z" fill="#EEB35B"/>
<path d="M194.01 50.17L186.496 35.9472L157.018 34.241L148.347 25.1381L106.153 26.8453L91.1246 41.068L72.05 100.235H229.268L199.992 54.2449L194.01 50.17Z" fill="#D3832C"/>
<path d="M177.853 86.8558L157.397 82.2029L139.89 80.6849L140.147 78.6622L178.518 77.1166C178.245 80.1127 178.026 83.503 177.853 86.8558ZM178.827 74.13H95.8556L92.6921 52.0272L111.154 42.756L151.527 46.7559L168.186 54.5147H176.279L197.141 60.2783C196.688 61.2508 196.396 61.8982 196.321 62.1174C195.744 63.8233 183.606 67.2369 180.716 67.2369C179.925 67.2369 179.307 70.0485 178.827 74.13Z" fill="#AB693A"/>
<path d="M121.441 113.142L118.731 103.287C118.736 103.287 153.545 103.631 155.472 105.147C156.892 106.266 142.826 108.311 135.404 111.283L121.441 113.142ZM155.398 108.621C157.68 107.636 159.322 106.647 159.133 105.717C158.685 103.514 134.702 103.265 123.904 103.265C120.759 103.265 118.732 103.287 118.731 103.287L117.891 100.233H177.35C177.277 103.009 177.249 104.783 177.249 104.783L176.612 105.797L155.398 108.621Z" fill="#B58659"/>
<path d="M177.348 100.235H117.889L117.729 99.6503H177.363C177.358 99.8496 177.352 100.044 177.348 100.235Z" fill="#A06236"/>
<path d="M177.365 99.6487H117.731L113.669 84.8716L96.9066 81.4584L95.8577 74.1288H178.829C178.72 75.065 178.617 76.0652 178.52 77.1154L140.149 78.6611L139.892 80.6838L157.399 82.2018L177.855 86.8547C177.611 91.596 177.456 96.264 177.365 99.6487Z" fill="#824F41"/>
<path d="M171.848 129.993C169.536 126.39 166.646 121.269 162.793 119.563C158.939 117.856 143.696 114.996 143.525 114.063C143.139 111.977 159.709 108.564 159.132 105.719C158.554 102.874 118.73 103.288 118.73 103.288C118.73 103.288 153.544 103.632 155.47 105.149C157.398 106.667 130.808 109.89 131.001 114.822C131.193 119.752 145.836 118.993 146.992 122.597C148.149 126.2 144.102 130.563 144.102 136.251C144.102 141.941 165.683 145.747 165.683 145.747H215.201C207.109 138.717 174.009 133.361 171.848 129.993Z" fill="#C2D3E2"/>
<path d="M113.666 84.8726L96.9038 81.4594L91.1236 41.0674L81.8757 26.2749L50.6631 27.9822C50.6631 27.9822 52.9745 114.457 45.4604 115.025C37.9463 115.594 43.149 46.7558 39.6802 46.7558C36.2125 46.7558 29.8546 49.6007 29.8546 52.4455C29.8546 55.2899 20.028 134.938 17.1379 137.212C14.2478 139.489 8.46753 145.747 8.46753 145.747H140.832L126.96 133.23L113.666 84.8726Z" fill="#E09F47"/>
<path d="M39.6807 46.7522C37.5552 46.6005 36.9709 81.6296 36.9709 101.543C36.9709 121.455 38.1272 140.231 42.9448 140.61C47.7613 140.989 45.8637 120.676 44.1155 114.239C42.3661 107.801 42.583 46.9601 39.6807 46.7522Z" fill="#D3832C"/>
<path d="M71.3328 86.7536L79.8106 41.4923L67.2222 37.4459L53.0925 30.1133L54.8906 107.994L85.4625 114.063L56.1752 117.097L54.1205 145.747H107.043L92.1423 134.292L108.07 87.765L71.3328 86.7536Z" fill="#EEB35B"/>
<path d="M78.0518 84.7766L89.5746 45.6694L95.5341 81.6485L78.0518 84.7766Z" fill="#DD9946"/>
<path d="M262.216 88.8537C258.171 88.8537 253.547 35.3765 253.547 35.3765C253.547 35.3765 244.877 36.514 243.143 36.514C241.409 36.514 237.94 12.6207 237.94 12.6207L210.774 13.7581C210.774 13.7581 210.774 24.5673 210.774 28.5495C210.774 32.5317 196.902 60.4081 196.323 62.1159C195.746 63.8218 183.608 67.2354 180.718 67.2354C177.827 67.2354 177.249 104.784 177.249 104.784L169.735 116.73H275.511C275.511 116.73 272.62 97.9566 272.043 94.4634C271.465 90.9694 266.263 88.8537 262.216 88.8537Z" fill="#D3832C"/>
<path d="M169.812 116.751L169.735 116.732L169.812 116.751Z" fill="#D3832C"/>
<path d="M275.511 116.731C275.511 116.731 268.504 96.5799 267.282 97.6795C245.621 117.177 172.402 117.082 169.812 116.75C171.399 117.123 202.026 124.29 213.345 124.863C224.967 125.449 280.245 125.449 281.884 122.918C284.092 119.51 275.511 116.731 275.511 116.731Z" fill="#D3832C"/>
<path d="M185.332 104.185L171.008 116.73L185.358 114.315L221.031 111.302L212.519 109.511L240.337 104.185H185.332Z" fill="#E09F47"/>
<path d="M252.478 42.3449L209.965 38.8252L240.162 38.044L234.996 30.6207L219.103 30.1117V28.0138L234.599 27.4849V14.579L236.586 13.4824L237.777 28.0138L242.843 37.8969L251.783 36.8701L252.478 42.3449Z" fill="#A06236"/>
<path d="M208.171 102.851C197.043 102.851 185.929 102.616 185.929 102.616C185.929 102.616 187.716 96.9854 194.571 96.5506C201.425 96.1158 227.613 92.0097 229.269 87.0228C230.927 82.0371 230.927 48.5265 233.609 46.5101C235.686 44.9491 245.868 44.7732 250.353 44.7732C251.659 44.7732 252.481 44.7876 252.481 44.7876L260.427 90.2493C260.427 90.2493 234.8 100.515 230.033 101.981C227.799 102.669 217.98 102.851 208.171 102.851Z" fill="#A06236"/>
<path d="M235.169 125.182C225.509 125.182 217.119 125.053 213.342 124.863C213.333 124.862 213.324 124.862 213.315 124.861C213.324 124.862 213.333 124.862 213.342 124.863C217.119 125.053 225.509 125.182 235.169 125.182C255.231 125.182 280.774 124.628 281.88 122.919C282.133 122.53 282.244 122.149 282.243 121.779C282.244 122.149 282.133 122.53 281.88 122.919C280.774 124.628 255.231 125.182 235.169 125.182ZM213.308 124.861C213.303 124.861 213.298 124.86 213.292 124.86C213.298 124.86 213.302 124.861 213.308 124.861ZM213.292 124.86C213.288 124.86 213.284 124.86 213.281 124.86C213.284 124.86 213.289 124.86 213.292 124.86ZM213.274 124.859C213.272 124.859 213.268 124.859 213.266 124.859C213.269 124.859 213.272 124.859 213.274 124.859ZM213.257 124.859C213.256 124.858 213.254 124.858 213.253 124.858C213.254 124.858 213.256 124.858 213.257 124.859ZM213.24 124.858C213.238 124.858 213.237 124.858 213.236 124.858C213.237 124.858 213.238 124.858 213.24 124.858ZM213.222 124.857C213.221 124.857 213.22 124.857 213.219 124.857C213.221 124.857 213.221 124.857 213.222 124.857ZM213.206 124.856C213.204 124.856 213.2 124.856 213.198 124.856C213.2 124.856 213.204 124.856 213.206 124.856ZM213.189 124.855C213.186 124.855 213.184 124.855 213.18 124.855C213.184 124.855 213.186 124.855 213.189 124.855ZM213.173 124.853C213.164 124.853 213.153 124.852 213.143 124.852C213.153 124.852 213.164 124.853 213.173 124.853ZM213.139 124.852C213.129 124.851 213.119 124.851 213.11 124.85C213.119 124.851 213.129 124.851 213.139 124.852ZM213.106 124.85C213.102 124.85 213.097 124.85 213.093 124.849C213.096 124.85 213.102 124.85 213.106 124.85ZM213.087 124.849C213.084 124.849 213.081 124.849 213.077 124.849C213.081 124.849 213.084 124.849 213.087 124.849ZM213.071 124.848C213.06 124.848 213.051 124.847 213.04 124.847C213.051 124.847 213.061 124.848 213.071 124.848ZM213.038 124.846C213.028 124.846 213.017 124.844 213.007 124.844C213.017 124.844 213.028 124.846 213.038 124.846ZM213.003 124.844C212.913 124.839 212.821 124.832 212.727 124.827C212.82 124.832 212.913 124.839 213.003 124.844ZM212.727 124.827C212.705 124.824 212.684 124.823 212.661 124.822C212.684 124.823 212.705 124.824 212.727 124.827ZM212.656 124.821C212.634 124.82 212.611 124.819 212.587 124.817C212.611 124.819 212.634 124.82 212.656 124.821ZM212.585 124.817C212.563 124.816 212.542 124.814 212.52 124.812C212.542 124.814 212.564 124.816 212.585 124.817ZM212.512 124.811C212.495 124.81 212.479 124.809 212.461 124.808C212.479 124.809 212.494 124.81 212.512 124.811ZM212.46 124.808C212.457 124.808 212.451 124.807 212.448 124.807C212.452 124.807 212.456 124.808 212.46 124.808ZM212.439 124.807C212.429 124.806 212.42 124.805 212.41 124.805C212.419 124.805 212.43 124.806 212.439 124.807ZM212.404 124.804C212.399 124.804 212.395 124.804 212.389 124.802C212.395 124.804 212.398 124.804 212.404 124.804ZM212.388 124.802C212.384 124.802 212.379 124.802 212.375 124.801C212.379 124.802 212.384 124.802 212.388 124.802ZM212.365 124.801C212.363 124.8 212.36 124.8 212.358 124.8C212.36 124.8 212.363 124.8 212.365 124.801ZM212.351 124.8C212.346 124.799 212.341 124.799 212.336 124.799C212.341 124.799 212.346 124.799 212.351 124.8ZM212.332 124.798C212.328 124.798 212.324 124.798 212.32 124.798C212.324 124.798 212.328 124.798 212.332 124.798ZM212.313 124.797C212.31 124.797 212.305 124.797 212.302 124.796C212.305 124.797 212.31 124.797 212.313 124.797ZM212.293 124.796C212.29 124.795 212.287 124.795 212.284 124.795C212.286 124.795 212.29 124.795 212.293 124.796ZM212.276 124.795C212.272 124.794 212.269 124.794 212.265 124.794C212.269 124.794 212.272 124.794 212.276 124.795ZM212.254 124.792C212.252 124.792 212.251 124.792 212.249 124.792C212.251 124.792 212.252 124.792 212.254 124.792ZM212.214 124.789C212.213 124.789 212.212 124.789 212.212 124.789C212.212 124.789 212.213 124.789 212.214 124.789ZM212.201 124.788C212.198 124.788 212.194 124.788 212.191 124.788C212.194 124.788 212.198 124.788 212.201 124.788ZM212.181 124.787C212.179 124.787 212.176 124.786 212.172 124.786C212.176 124.787 212.178 124.787 212.181 124.787ZM212.163 124.786C212.16 124.785 212.158 124.785 212.155 124.785C212.158 124.785 212.16 124.785 212.163 124.786ZM212.141 124.784C212.139 124.784 212.138 124.784 212.136 124.784C212.138 124.784 212.139 124.784 212.141 124.784ZM212.121 124.782C212.121 124.782 212.119 124.782 212.118 124.782C212.119 124.782 212.12 124.782 212.121 124.782ZM212.1 124.78H212.099H212.1ZM172.785 116.825C171.117 116.817 170.079 116.785 169.809 116.751C169.805 116.749 169.803 116.748 169.8 116.748C170.068 116.779 171.107 116.804 172.785 116.825Z" fill="#B58659"/>
<path d="M235.173 125.182C225.512 125.182 217.123 125.053 213.345 124.863C213.336 124.862 213.328 124.862 213.319 124.861C213.317 124.861 213.314 124.861 213.311 124.861C213.305 124.861 213.301 124.86 213.295 124.86C213.292 124.86 213.288 124.86 213.284 124.86C213.281 124.86 213.281 124.86 213.278 124.859C213.276 124.859 213.272 124.859 213.269 124.859C213.266 124.859 213.263 124.859 213.26 124.859C213.259 124.858 213.258 124.858 213.257 124.858C213.252 124.858 213.248 124.858 213.243 124.858C213.241 124.858 213.24 124.858 213.239 124.858C213.235 124.857 213.23 124.857 213.226 124.857C213.225 124.857 213.225 124.857 213.222 124.857C213.219 124.857 213.214 124.856 213.209 124.856C213.207 124.856 213.204 124.856 213.201 124.856C213.198 124.856 213.196 124.855 213.193 124.855C213.189 124.855 213.187 124.855 213.184 124.855C213.182 124.855 213.179 124.855 213.176 124.853C213.167 124.853 213.156 124.852 213.146 124.852C213.145 124.852 213.145 124.852 213.143 124.852C213.133 124.851 213.123 124.851 213.113 124.85C213.111 124.85 213.111 124.85 213.11 124.85C213.105 124.85 213.1 124.85 213.096 124.849C213.094 124.849 213.092 124.849 213.091 124.849C213.087 124.849 213.084 124.849 213.081 124.849C213.079 124.848 213.076 124.848 213.074 124.848C213.064 124.848 213.054 124.847 213.043 124.847C213.042 124.847 213.042 124.847 213.041 124.846C213.031 124.846 213.02 124.844 213.01 124.844C213.009 124.844 213.008 124.844 213.007 124.844C212.916 124.839 212.823 124.832 212.73 124.827C212.73 124.827 212.731 124.827 212.73 124.827C212.708 124.824 212.687 124.823 212.665 124.822C212.663 124.822 212.661 124.822 212.659 124.821C212.637 124.82 212.614 124.819 212.591 124.817C212.591 124.817 212.59 124.817 212.588 124.817C212.567 124.816 212.545 124.814 212.523 124.812C212.521 124.812 212.518 124.811 212.515 124.811C212.498 124.81 212.482 124.809 212.465 124.808C212.465 124.808 212.465 124.808 212.463 124.808C212.459 124.808 212.456 124.807 212.451 124.807C212.448 124.807 212.446 124.807 212.442 124.807C212.434 124.806 212.422 124.805 212.414 124.805C212.411 124.805 212.409 124.804 212.407 124.804C212.401 124.804 212.398 124.804 212.393 124.802C212.393 124.802 212.393 124.802 212.391 124.802C212.387 124.802 212.383 124.802 212.378 124.801C212.375 124.801 212.372 124.801 212.368 124.801C212.366 124.8 212.364 124.8 212.362 124.8C212.358 124.8 212.356 124.8 212.354 124.8C212.349 124.799 212.344 124.799 212.339 124.799C212.338 124.799 212.337 124.798 212.335 124.798C212.332 124.798 212.327 124.798 212.323 124.798C212.321 124.797 212.318 124.797 212.316 124.797C212.313 124.797 212.308 124.797 212.305 124.796C212.302 124.796 212.3 124.796 212.296 124.796C212.293 124.795 212.29 124.795 212.287 124.795C212.285 124.795 212.282 124.795 212.28 124.795C212.275 124.794 212.272 124.794 212.269 124.794C212.265 124.794 212.261 124.792 212.258 124.792C212.255 124.792 212.254 124.792 212.252 124.792C212.247 124.791 212.241 124.791 212.235 124.79C212.23 124.79 212.223 124.79 212.218 124.789C212.217 124.789 212.216 124.789 212.216 124.789C212.211 124.789 212.209 124.789 212.204 124.788C212.201 124.788 212.198 124.788 212.195 124.788C212.19 124.787 212.188 124.787 212.185 124.787C212.181 124.787 212.179 124.787 212.176 124.786C212.174 124.786 212.17 124.786 212.167 124.786C212.164 124.785 212.161 124.785 212.158 124.785C212.154 124.785 212.149 124.784 212.145 124.784C212.143 124.784 212.141 124.784 212.139 124.784C212.135 124.782 212.13 124.782 212.125 124.782C212.124 124.782 212.123 124.782 212.122 124.782C212.115 124.782 212.11 124.782 212.104 124.78H212.103C199.974 123.806 171.486 117.143 169.812 116.751C170.082 116.785 171.12 116.817 172.788 116.825C177.264 116.879 186.263 116.899 197.159 116.899C228.5 116.899 275.511 116.732 275.511 116.732C275.511 116.732 282.243 118.912 282.247 121.779C282.248 122.149 282.136 122.53 281.884 122.919C280.777 124.628 255.234 125.182 235.173 125.182Z" fill="#A06236"/>
<path d="M169.803 116.747L169.766 116.738C169.776 116.74 169.789 116.743 169.803 116.747ZM169.803 116.747C169.758 116.741 169.735 116.735 169.735 116.73L169.738 116.731H169.739C169.743 116.732 169.752 116.735 169.766 116.738L169.803 116.747ZM169.738 116.731L169.735 116.73C169.735 116.73 169.736 116.73 169.738 116.731Z" fill="#B58659"/>
<path d="M169.803 116.747L169.766 116.738L169.803 116.747ZM169.738 116.731L169.735 116.73L169.738 116.731Z" fill="#A06236"/>
<path d="M202.912 143.928L163.875 143.34L172.815 140.618L149.174 136.595L178.775 135.813L171.424 137.377L202.912 143.928Z" fill="#DEE8F0"/>
<path d="M128.903 70.4613C128.374 70.4613 113.57 80.7671 113.57 80.7671L126.612 74.8985L115.862 82.7475L128.727 76.6044L119.739 83.8553L132.192 78.3925L125.378 85.7449C125.378 85.7449 132.34 85.7242 135.952 84.913C141.769 83.6072 149.787 76.6412 149.787 76.6412L150.814 71.3607C150.814 71.3607 145.998 73.2815 143.354 73.2815C140.711 73.2815 129.431 70.4613 128.903 70.4613Z" fill="#541509"/>
<path d="M160.209 15.0045C159.856 15.8842 160.189 18.0617 160.189 18.0617L163.01 18.5574C163.01 18.5574 164.511 14.4369 163.326 13.5473C162.762 13.1235 160.563 14.1238 160.209 15.0045Z" fill="#D3832C"/>
<path d="M182.244 46.3196C182.059 44.0812 181.192 39.9397 179.471 40.1842C177.476 40.4664 178.289 54.1234 178.289 54.1234L185.024 64.6227L187.806 62.826C187.596 61.7862 185.5 56.9604 182.917 52.889C182.39 52.0565 182.427 48.559 182.244 46.3196Z" fill="#8B1509"/>
<path d="M201.682 101.331C199.586 99.1808 195.805 92.5708 195.805 92.5708L185.775 97.7368C185.775 97.7368 189.338 104.514 192.945 106.009C196.552 107.505 201.858 109.544 202.094 110.172C202.33 110.8 201.602 121.814 201.602 121.814C201.602 121.814 201.066 122.274 198.732 122.743C196.508 123.191 197.285 131.207 197.996 130.332C198.705 129.456 204.382 125.371 205.415 124.59C205.955 124.181 206.131 120.109 206.625 116.058C207.074 112.379 208.744 109.5 207.267 107.914C205.801 106.341 203.779 103.48 201.682 101.331Z" fill="#541509"/>
<path d="M180.237 4.21596C180.411 4.206 180.582 4.20268 180.749 4.20268C183.423 4.20268 185.072 5.32355 185.284 6.44994C185.413 7.13264 184.959 7.71686 184.068 8.01339C180.755 9.11766 177.118 9.23051 176.083 9.23826C174.031 9.25486 172.108 9.2969 170.254 9.33674C169.37 9.35555 168.503 9.37435 167.649 9.38984C170.972 7.46789 176.784 4.39299 180.237 4.21596ZM173.061 0.221575C153.163 -0.794172 137.826 1.84146 137.408 4.87764C137.267 5.89339 138.639 6.7354 141.485 7.38269C151.808 9.72621 158.497 10.0338 165.669 9.94751C165.195 10.2385 164.897 10.4277 164.832 10.4709L165.119 10.9146C165.142 10.8991 165.747 10.514 166.722 9.93424C167.88 9.91653 169.057 9.89108 170.266 9.86564C172.117 9.8258 174.039 9.78375 176.088 9.76716C177.143 9.75941 180.848 9.64435 184.235 8.51574C185.383 8.1329 185.983 7.30414 185.803 6.35146C185.53 4.89976 183.534 3.51225 180.21 3.68818C176.291 3.88845 169.689 7.54535 166.564 9.40755C159.088 9.5182 152.298 9.29359 141.603 6.86598C139.213 6.3238 137.841 5.6068 137.931 4.95066C138.258 2.58169 152.422 -0.302895 173.034 0.749367C191.374 1.68545 199.716 6.79737 200.105 9.32678C200.187 9.85125 199.903 10.2385 199.262 10.4775C194.081 12.4127 169.687 14.9433 163.249 14.9433C156.782 14.9433 154.169 18.7119 154.06 18.8724L154.499 19.1678C154.524 19.1313 157.078 15.4733 163.249 15.4733C169.713 15.4733 194.227 12.9217 199.447 10.9732C200.317 10.649 200.747 10.0194 200.629 9.24601C200.151 6.15009 191.059 1.13884 173.061 0.221575Z" fill="#541509"/>
<path d="M211.185 71.9749C210.921 68.9355 210.921 64.4408 210.392 63.1196C209.863 61.7974 208.409 57.8319 207.617 56.2464C206.823 54.6598 203.915 53.7344 199.817 53.603C195.72 53.4704 180.652 65.763 178.14 68.2746C175.628 70.7854 158.578 67.4815 154.48 67.6129C150.383 67.746 145.757 69.8604 140.469 75.0155C135.182 80.1705 136.769 96.957 137.429 98.675C138.09 100.394 132.142 114.537 132.406 116.123C132.67 117.709 134.938 129.917 135.335 132.561C135.731 135.204 134.806 136.527 135.07 137.054C135.335 137.583 133.219 139.831 133.219 140.888C133.219 141.945 138.354 146.044 138.751 145.119C139.148 144.195 139.432 138.954 139.564 137.633C139.697 136.311 141.018 134.544 140.622 133.75C140.224 132.957 138.506 118.154 139.168 116.435C139.828 114.717 140.733 113.479 140.866 112.026C140.998 110.571 148.929 94.1818 151.572 98.411C156.028 105.54 165.187 105.416 167.565 105.945C169.945 106.474 183.691 103.302 184.617 103.566C185.542 103.83 195.697 103.349 197.571 96.2961C198.191 93.9648 196.513 82.6814 196.513 82.6814C196.513 82.6814 197.571 78.9811 197.967 78.1875C198.364 77.3944 201.001 78.1923 202.064 79.5101C203.183 80.8941 205.103 84.5355 205.234 85.8577C205.367 87.179 209.215 89.072 210.392 88.894C214.753 88.2335 213.474 81.121 212.549 79.667C211.623 78.2131 211.449 75.0155 211.185 71.9749Z" fill="#541509"/>
<path d="M161.182 15.4362C161.018 15.8987 162.038 16.307 161.513 16.4874C160.987 16.6677 160.16 17.8505 160.16 17.8505L162.496 18.468C162.496 18.468 162.964 16.4896 162.803 15.8688C162.642 15.2481 161.345 14.9748 161.182 15.4362Z" fill="#541509"/>
<path d="M160.471 16.1036C161.006 16.5551 162.1 15.8259 162.429 15.4265C162.713 15.0813 163.25 13.8365 163.25 13.8365C163.25 13.8365 161.025 13.8188 160.527 14.5656C159.8 15.6522 160.259 15.9255 160.471 16.1036Z" fill="#D3832C"/>
<path d="M205.47 130.756C205.841 129.799 203.936 127.094 203.492 125.023C203.049 122.954 202.654 117.937 202.047 116.415C201.611 115.316 201.719 112.87 196.405 106.895C191.092 100.92 187.631 97.9359 187.842 96.5593C188.054 95.1817 188.587 90.9785 188.587 90.9785L177.909 92.18C177.909 92.18 179.372 103.729 180.034 104.6C180.696 105.47 193.35 113.561 194.061 114.09C195.372 115.067 196.622 117.049 197.295 118.365C197.967 119.68 199.189 128.112 199.586 129.385C199.983 130.658 201.166 131.661 200.939 132.415C200.709 133.169 200.795 134.825 201.103 136.113C201.413 137.4 201.418 139.757 202.394 140.753C203.368 141.748 207.408 142.082 208.495 142.165C209.581 142.247 206.959 136.02 206.462 135.211C205.966 134.402 205.097 131.715 205.47 130.756Z" fill="#541509"/>
<path d="M152.825 107.356C150.974 109.206 149.388 109.735 149.785 111.057C150.182 112.378 155.337 120.574 156.394 124.407C157.451 128.24 158.112 130.223 157.055 130.619C155.998 131.016 154.94 133.924 155.337 135.246C155.733 136.567 158.245 139.74 159.566 139.872C160.888 140.004 160.888 135.378 161.284 134.982C161.681 134.584 161.284 129.429 161.946 128.504C162.606 127.579 162.106 123.914 158.715 117.093C156.218 112.071 169.083 103.258 169.083 103.258L155.557 98.5886C155.557 98.5886 154.675 105.505 152.825 107.356Z" fill="#541509"/>
<path d="M163.181 18.1391C162.52 17.868 159.878 17.868 159.878 17.868C159.878 17.868 156.237 29.0246 156.639 29.7493C157.189 30.744 163.497 41.4459 164.547 41.9748C165.597 42.5048 168.039 37.6905 168.405 36.0828C168.405 36.0828 162.605 29.8423 162.253 28.2622C161.902 26.6822 163.842 18.4101 163.181 18.1391Z" fill="#8B1509"/>
<path d="M170.626 37.0246L175.607 37.8445L175.987 34.1721L171.705 30.741L170.626 37.0246Z" fill="#D3832C"/>
<path d="M174.55 26.682C172.414 26.651 171.089 28.2377 171.053 30.7129C171.018 33.1892 174.501 36.1933 175.832 36.1966C177.312 36.201 178.147 33.9416 178.35 31.2185C178.534 28.75 176.684 26.7119 174.55 26.682Z" fill="#D3832C"/>
<path d="M182.11 27.5937C181.512 27.5151 176.082 29.0697 176.082 29.0697C176.082 29.0697 179.673 31.9986 181.333 31.0713C182.993 30.143 182.708 27.6711 182.11 27.5937Z" fill="#541509"/>
<path d="M176.972 23.9109C176.083 23.8655 170.787 24.0359 170.57 24.65C170.352 25.2641 169.405 29.0405 169.405 29.0405C169.405 29.0405 169.466 29.4422 173.957 29.6756C178.12 29.8914 178.65 29.4875 178.65 29.4875C178.65 29.4875 177.861 23.9552 176.972 23.9109Z" fill="#541509"/>
<path d="M170.266 29.2448C169.591 29.5004 170.096 31.3305 170.37 32.1194C170.645 32.9083 172.205 33.7349 172.205 33.7349C172.205 33.7349 171.449 31.2276 171.701 31.0528C171.954 30.8768 172.597 32.7601 172.797 32.7202C172.997 32.6793 172.335 32.1216 172.569 30.9709C172.802 29.8201 176.166 30.3347 176.166 30.3347C176.166 30.3347 170.941 28.9881 170.266 29.2448Z" fill="#541509"/>
<path d="M172.282 29.2083L175.778 29.8489C175.778 29.8489 177.917 29.7593 178.654 29.4904L178.518 28.6362L172.282 29.2083Z" fill="#541509"/>
<path d="M169.6 28.2748L175.318 28.9741C175.318 28.9741 172.787 27.6961 171.768 27.6751C170.748 27.6541 169.6 28.2748 169.6 28.2748Z" fill="#541509"/>
<path d="M171.562 28.0726C169.381 28.3249 165.713 28.4532 165.59 29.9403C165.468 31.4274 170.779 30.2258 173.446 30.3597C176.113 30.4936 180.224 31.2039 180.224 31.2039C180.224 31.2039 173.742 27.8214 171.562 28.0726Z" fill="#541509"/>
<path d="M176.409 37.8529L170.332 36.7055C169.796 36.732 164.929 34.3741 164.406 36.0195C164.325 36.2751 164.188 40.41 164.34 45.2176C164.494 50.0252 164.277 52.1452 164.201 53.1111C164.032 55.2502 163.851 56.2612 162.952 59.5067C162.952 59.5067 165.979 60.6296 169.116 61.0501C172.837 61.5493 176.773 61.3289 176.825 60.8764C176.886 60.3521 180.019 49.0561 180.367 47.5878C180.714 46.1196 181.074 41.2321 179.949 40.2152C178.825 39.1973 176.409 37.8529 176.409 37.8529Z" fill="#8B1509"/>
<path d="M147.342 80.0188C147.606 81.4727 173.513 82.6631 173.542 81.0764C173.572 79.491 179.964 66.397 179.964 66.397C179.964 66.397 159.899 67.5943 157.079 67.9038C154.258 68.2136 147.077 78.5648 147.342 80.0188Z" fill="#8B1509"/>
<path d="M178.096 59.2713C176.686 59.5189 170.985 65.0427 169.399 65.1123C167.812 65.181 163.186 65.1123 163.186 65.1123C160.939 64.652 155.652 65.5769 156.577 68.0885C157.502 70.6005 161.04 73.1429 164.356 72.9315C167.673 72.7193 172.967 65.4455 174.819 63.9915C176.669 62.5375 177.409 62.5086 178.625 62.9192C179.841 63.3297 181.028 65.8215 181.028 65.8215L182.529 64.6208C182.529 64.6208 182.488 62.8504 181.955 61.6779C181.345 60.3289 180.568 58.8364 178.096 59.2713Z" fill="#541509"/>
<path d="M178.092 61.0159C176.591 61.6945 167.412 71.1273 165.298 71.1273C163.182 71.1273 157.253 69.3448 157.253 69.3448C157.253 69.3448 158.606 74.1679 156.466 75.3573C154.326 76.5468 151.418 78.7386 152.608 80.1537C153.798 81.5701 158.556 80.9083 158.689 83.42C158.821 85.9316 155.583 92.9369 157.664 94.6555C159.746 96.3735 163.623 93.2015 164.284 91.7475C164.945 90.2936 166.09 82.495 168.073 81.5701C170.056 80.6451 172.303 79.5875 173.096 78.1335C173.889 76.6796 177.579 70.1876 178.339 68.9683C179.148 67.6738 182.525 64.6197 182.525 64.6197C182.525 64.6197 181.159 59.6276 178.092 61.0159Z" fill="#361509"/>
<path d="M163.671 59.7275C163.212 59.5935 162.951 59.5028 162.951 59.5028C162.951 59.5028 160.997 62.6143 160.535 66.3673C160.234 68.8106 160.4 76.6341 160.055 77.7354C157.925 84.5213 157.538 86.6024 157.763 91.1104C157.914 94.1058 158.082 95.9292 158.082 95.9292L161.917 96.0762C161.917 96.0762 165.064 83.2986 166.179 79.8953C167.296 76.4906 170.67 64.6833 170.67 64.6833L172.993 62.8975L176.612 60.0993C176.612 60.0993 174.707 60.6072 171.83 60.7718C168.425 60.9654 165.095 60.1412 163.671 59.7275Z" fill="#541509"/>
<path d="M161.83 87.4404C161.351 87.5398 159.026 84.031 158.61 84.1174C157.495 84.35 157.46 89.5435 157.512 90.6889C157.565 91.8343 157.825 95.3107 157.695 95.5885C157.566 95.8651 157.349 96.3163 157.413 96.7723C157.477 97.2271 157.627 97.7903 157.627 97.7903L161.63 98.1066L162.005 95.6015L164.872 84.5013C164.872 84.5013 162.309 87.3396 161.83 87.4404Z" fill="#8B1509"/>
<path d="M163.56 97.6037C163.516 98.0251 163.142 98.3328 162.72 98.2952L160.191 98.0726C159.725 98.032 159.443 97.5384 159.644 97.117L161.409 93.4056L163.967 93.76L163.56 97.6037ZM158.052 97.6853C157.675 98.4357 158.192 99.3252 159.03 99.3675L163.334 99.5862C163.957 99.6173 164.495 99.1505 164.549 98.5278L166.09 85.148L164.872 84.8757L158.052 97.6853Z" fill="#361509"/>
<path d="M160.723 95.8583C160.255 96.1328 159.645 97.1166 159.584 97.4558C159.523 97.7968 159.977 98.0068 159.977 98.0068C159.977 98.0068 164.107 98.6643 164.55 98.5273C164.992 98.3911 165.044 98.0769 165.07 97.665C165.187 95.7654 161.829 95.2079 160.723 95.8583Z" fill="#8B1509"/>
<path d="M176.317 37.4421C176.65 37.0637 176.415 36.2493 175.755 36.5259C175.755 36.5259 175.492 36.8291 174.555 37.1943C173.618 37.5583 170.972 34.9824 170.972 34.9824C170.972 34.9824 170.121 34.6427 169.619 35.2491C169.23 35.7182 169.692 36.2338 169.251 36.288C168.811 36.3423 167.817 36.4286 168.149 37.3082C168.481 38.1868 173.51 43.8995 173.834 43.9393C174.363 44.0035 176.935 38.8839 177.05 38.012C177.136 37.3514 175.984 37.8205 176.317 37.4421Z" fill="#541509"/>
<path d="M206.426 80.8109C205.831 81.0753 204.069 83.0152 204.069 83.0152L204.613 84.1174C204.613 84.1174 206.293 82.121 206.888 81.8287C207.483 81.5378 212.973 80.2822 212.973 80.2822L212.442 79.2242C212.442 79.2242 207.02 80.5463 206.426 80.8109Z" fill="#8B1509"/>
<path d="M195.537 55.1048L194.354 55.773C194.354 55.773 192.699 63.8456 193.845 69.6614C194.486 72.9165 197.854 78.4411 197.854 78.4411L198.629 77.9078C198.629 77.9078 196.519 74.772 195.235 69.7488C193.951 64.7264 195.537 55.1048 195.537 55.1048Z" fill="#8B1509"/>
<path d="M194.78 66.3977V68.7841C194.78 68.7841 197.087 72.4856 199.465 75.1291C201.844 77.7733 205.986 81.8306 205.986 81.8306L206.427 81.353C206.427 81.353 202.549 77.3294 200.259 74.1142C197.967 70.8998 194.78 66.3977 194.78 66.3977Z" fill="#8B1509"/>
<path d="M193.87 49.2867C193.341 49.5512 192.71 55.2751 194.051 57.5355C195.391 59.7951 199.355 57.0199 199.355 57.0199C199.355 57.0199 196.372 53.4961 195.881 52.0529C195.391 50.6093 194.399 49.0226 193.87 49.2867Z" fill="#541509"/>
<path d="M206.532 52.8773C205.747 54.1843 202.083 56.9937 202.083 56.9937C202.083 56.9937 205.368 60.5474 207.158 58.6236C208.947 56.7003 209.545 50.9721 209.085 50.6016C208.624 50.2308 207.318 51.5707 206.532 52.8773Z" fill="#541509"/>
<path d="M184.088 71.8093C182.115 70.1752 182.527 64.6215 182.527 64.6215L181.027 65.8223C181.027 65.8223 180.953 69.2269 182.527 71.4442C186.83 77.5077 206.254 82.3351 206.254 82.3351L205.657 81.0065C205.657 81.0065 192.812 79.0347 184.088 71.8093Z" fill="#8B1509"/>
<path d="M166.332 9.00216C166.076 9.00216 165.869 9.20907 165.869 9.46467V10.258C165.869 10.5136 166.076 10.7205 166.332 10.7205C166.587 10.7205 166.794 10.5136 166.794 10.258V9.46467C166.794 9.20907 166.587 9.00216 166.332 9.00216Z" fill="#541509"/>
<path d="M32.2862 83.3392C28.7333 80.2476 13.7859 84.8783 13.7859 84.8783L26.4296 84.9791L13.787 87.6013L26.5203 87.3843L15.4434 90.195L27.4133 90.4185L21.1606 92.8506C21.1606 92.8506 26.2293 95.1587 29.1316 95.9176C33.8032 97.1413 39.9264 96.0949 39.9264 96.0949L44.4729 91.7748C44.4729 91.7748 39.9862 91.515 38.2999 90.4263C36.6136 89.3363 34.8156 85.5401 32.2862 83.3392Z" fill="#541509"/>
<path d="M71.1468 69.673C70.9808 69.2402 67.5308 60.9595 65.9319 59.9727C63.6725 58.5774 64.0166 61.0536 64.0343 63.6837C64.0531 66.315 65.5413 71.4567 67.2464 73.5504C68.9526 75.6436 74.9818 79.3118 74.9818 79.3118L78.9795 76.055C78.9795 76.055 71.3127 70.1056 71.1468 69.673Z" fill="#8B1509"/>
<path d="M64.9972 59.4868C63.2844 58.9327 51.3865 61.5437 50.5212 62.438C50.0565 62.9169 51.7206 69.7541 51.8136 74.4333C51.8954 78.4854 51.3035 78.4508 51.3035 78.4508L59.2259 81.383L64.86 77.8314C64.86 77.8314 63.2667 74.3184 66.2653 68.3166C67.7513 65.3404 65.7839 59.7427 64.9972 59.4868Z" fill="#8B1509"/>
<path d="M59.5649 79.2647C56.4236 79.6774 51.3062 78.4491 51.3062 78.4491L58.6111 82.5345L66.3764 81.514L64.8627 77.8297C64.8627 77.8297 62.7073 78.852 59.5649 79.2647Z" fill="#541509"/>
<path d="M63.7981 81.1173L63.8778 81.7207L74.5785 76.4871L74.5066 75.9394L63.7981 81.1173Z" fill="#361509"/>
<path d="M93.9456 81.0115C91.3344 78.8581 88.9333 74.8925 83.8402 72.3014C81.7511 71.239 77.3651 71.4772 75.0968 72.7129C70.9663 74.9626 70.0236 81.5107 67.3692 83.7613C64.7147 86.0117 51.4492 86.109 47.3165 87.0905C43.1838 88.073 37.6381 89.5335 35.5325 97.208C33.4269 104.883 36.6069 109.124 40.2737 113.323C43.9406 117.522 69.9948 117.598 71.2463 117.141C72.4966 116.685 77.4381 112.973 77.884 110.135C78.331 107.297 78.2193 101.461 77.8121 99.6123C77.406 97.7646 78.8854 94.0593 79.1797 92.5578C79.4751 91.0562 79.1011 85.7628 80.108 86.2694C82.5655 87.5077 88.4144 86.5935 89.1435 87.2985C90.5211 88.6284 95.373 88.966 96.1829 87.4644C97.4288 85.1521 96.9785 83.5123 93.9456 81.0115Z" fill="#541509"/>
<path d="M32.836 123.275C32.202 126.771 32.95 138.278 33.1326 138.839C33.3162 139.4 31.079 140.67 31.1542 141.245C31.214 141.702 32.8858 142.87 33.5696 143.332C33.7179 143.431 33.9326 143.379 34.0111 143.224C34.3132 142.627 34.9771 141.267 35.1984 140.421C35.4894 139.309 35.3433 126.553 37.5264 123.048C39.7095 119.543 44.6123 110.61 44.6123 110.61L34.9151 100.578C34.9151 100.578 33.4689 119.778 32.836 123.275Z" fill="#541509"/>
<path d="M50.594 122.013C50.1204 122.563 45.1512 129.653 45.3272 130.995C45.5042 132.338 45.6713 139.435 45.5075 139.846C45.4135 140.081 44.9631 140.586 44.5936 140.975C44.2981 141.287 44.2771 141.733 44.5382 142.055L45.9733 143.823C46.1127 143.996 46.4137 143.956 46.4967 143.752C46.8884 142.791 47.7415 140.661 47.8389 140.125C47.965 139.426 48.2206 133.053 48.6067 131.832C48.9918 130.611 56.0589 124.514 56.154 122.746C56.2503 120.978 58.0229 112.846 58.0229 112.846L49.1058 114.018C49.1058 114.018 51.0687 121.463 50.594 122.013Z" fill="#541509"/>
<path d="M62.311 114.719C62.6473 111.458 53.125 111.343 53.125 111.343C53.125 111.343 61.1613 130.084 61.2377 130.659C61.3129 131.234 58.9406 138.958 58.549 139.302C58.2723 139.544 56.3194 140.2 55.1864 140.568C54.7139 140.72 54.4196 141.145 54.4771 141.587L54.7924 143.982C54.8157 144.164 55.0436 144.256 55.2173 144.154L60.6269 140.979C60.6269 140.979 65.231 131.11 65.4014 129.917C65.5729 128.724 61.9757 117.982 62.311 114.719Z" fill="#541509"/>
<path d="M63.3503 123.459L65.4006 129.918L75.9941 113.392L66.412 115.158L63.3503 123.459Z" fill="#541509"/>
<path d="M65.0422 80.6184C62.1653 80.5189 58.2617 81.4084 57.1674 83.066C56.0742 84.7223 55.8075 87.6834 55.6814 88.3828C55.5541 89.0821 68.4844 82.9895 68.4844 82.9895C68.4844 82.9895 67.919 80.7182 65.0422 80.6184Z" fill="#361509"/>
<path d="M39.2114 96.104C40.3168 97.0312 52.7647 98.6135 53.8966 98.0811C55.0285 97.549 54.5151 97.7993 57.3665 93.133C60.2179 88.4668 68.4844 82.9875 68.4844 82.9875C68.4844 82.9875 48.5744 85.0238 46.3936 85.892C44.2127 86.7595 38.1061 95.1766 39.2114 96.104Z" fill="#361509"/>
<path d="M49.1134 82.9044C48.6542 84.8221 47.9162 90.8624 47.4824 91.7009C45.587 95.3635 45.2141 98.3445 45.0548 101.918C44.9497 104.294 44.6045 106.16 44.6045 106.16L47.9704 106.46C47.9704 106.46 50.6436 97.6936 51.8973 95.057C53.1498 92.4193 59.0916 81.6588 59.0916 81.6588L60.4337 81.1829L51.3031 78.4487C51.3031 78.4487 49.8171 79.9592 49.1134 82.9044Z" fill="#541509"/>
<path d="M60.8258 79.602L58.968 80.9774C58.968 80.9774 59.7691 82.0916 60.028 82.399C60.2869 82.7067 61.0327 83.3883 61.4532 83.3329C61.8736 83.2776 63.2103 81.2497 63.2136 80.859C63.2169 80.4682 60.8258 79.602 60.8258 79.602Z" fill="#DC8746"/>
<path d="M54.0759 73.6731C53.6079 73.4418 54.2032 64.4197 53.7573 63.768C51.1869 60.0094 48.1917 64.0169 48.1718 64.5015C48.1021 66.1689 49.3358 75.8562 49.7972 76.8685C50.2575 77.8811 59.2277 81.383 59.2277 81.383C59.2277 81.383 60.6772 80.1083 60.8288 79.6018C60.9815 79.0939 54.5429 73.9043 54.0759 73.6731Z" fill="#8B1509"/>
<path d="M56.3978 57.6594C56.3978 57.6594 56.8537 60.2675 56.3038 60.6677C55.7539 61.0675 55.3467 61.2037 55.3467 61.2037C55.3467 61.2037 57.8119 62.1861 59.1419 63.3034C59.9496 63.982 61.0628 65.2941 61.0628 65.2941C61.0628 65.2941 61.1181 61.9713 61.5186 60.9924C61.7875 60.3336 62.2257 59.5769 62.2257 59.5769L61.1214 57.9725L56.3978 57.6594Z" fill="#D3832C"/>
<path d="M46.011 96.8469C45.0096 96.9765 44.5659 101.081 44.5217 101.99C44.4774 102.897 44.4298 105.659 44.2937 105.872C44.1576 106.085 43.9308 106.431 43.9507 106.794C43.9717 107.157 44.058 107.61 44.058 107.61L47.5589 108.051L48.0878 106.088L50.7102 98.0873C50.7102 98.0873 49.0117 99.5712 48.5824 99.6278C48.152 99.684 46.3838 96.7985 46.011 96.8469Z" fill="#CEA66D"/>
<path d="M49.2992 107.746C49.2273 108.077 48.8733 108.303 48.5059 108.253L46.2952 107.955C45.8891 107.901 45.68 107.497 45.8902 107.173L47.7391 104.324L49.9642 104.727L49.2992 107.746ZM44.4429 107.547C44.0512 108.122 44.4363 108.851 45.171 108.924L48.943 109.303C49.4896 109.357 49.9996 109.013 50.097 108.524L52.1949 98.0014L51.1437 97.7282L44.4429 107.547Z" fill="#361509"/>
<path d="M46.9375 106.231C46.5038 106.425 45.8886 107.173 45.8078 107.44C45.7271 107.705 46.1099 107.893 46.1099 107.893C46.1099 107.893 49.6949 108.61 50.0954 108.524C50.496 108.438 50.5668 108.192 50.6221 107.868C50.8755 106.371 47.9632 105.769 46.9375 106.231Z" fill="#E5B577"/>
<path d="M55.7745 55.1759C55.3341 55.6452 56.341 58.0575 57.3501 58.8924C58.3581 59.727 60.4626 60.3784 61.1044 60.1861C61.7472 59.9946 62.8028 55.882 62.8028 55.882C62.8028 55.882 56.216 54.7068 55.7745 55.1759Z" fill="#D3832C"/>
<path d="M63.4566 48.881C62.1266 48.1229 58.7054 49.7528 55.8385 50.765C52.9705 51.7765 49.0326 51.9536 50.3017 54.1277C50.8306 55.0327 58.867 58.6655 62.7164 56.7953C66.5658 54.9256 64.7866 49.6386 63.4566 48.881Z" fill="#541509"/>
<path d="M57.6123 47.8686C54.4799 48.2623 54.5463 49.3511 54.429 49.6809C54.3117 50.0093 54.179 53.5791 54.179 53.5791C54.179 53.5791 56.8478 55.0474 59.4369 54.6388C62.0261 54.2309 62.4255 52.9904 62.4255 52.9904C62.4255 52.9904 60.7437 47.4735 57.6123 47.8686Z" fill="#541509"/>
<path d="M93.4836 80.29L92.9016 80C92.9016 80 88.5343 82.9882 87.939 83.9137C87.3968 84.7565 88.3539 87.0736 88.3539 87.0736L88.937 87.3644C88.937 87.3644 88.0054 85.0075 88.5553 84.1527C89.1418 83.2394 93.4836 80.29 93.4836 80.29Z" fill="#361509"/>
<path d="M74.0983 73.3898L73.4621 73.9651C73.4621 73.9651 72.827 81.6473 73.9213 82.7926C75.0278 83.9497 79.6838 86.632 79.6838 86.632L80.4096 86.4052C80.4096 86.4052 75.7093 83.6247 74.5896 82.4339C73.4411 81.2146 74.0983 73.3898 74.0983 73.3898Z" fill="#361509"/>
<path d="M73.5554 79.3032L73.5742 80.1784C73.5742 80.1784 79.9409 84.3398 81.9812 84.5832C84.0205 84.8278 87.7504 84.705 87.7504 84.705L88.0779 84.1959C88.0779 84.1959 84.2628 84.1738 82.2634 83.9248C80.2629 83.6759 73.5554 79.3032 73.5554 79.3032Z" fill="#361509"/>
<path d="M75.2455 71.1219C74.5872 70.1118 74.0284 70.8431 74.0284 70.8431C74.0284 70.8431 73.7385 74.2485 75.2964 75.5045C76.8555 76.7614 80.7226 73.9122 80.7226 73.9122C80.7226 73.9122 75.9028 72.132 75.2455 71.1219Z" fill="#541509"/>
<path d="M84.3126 69.8705C84.3082 70.4562 81.2256 71.9422 81.2256 71.9422C81.2256 71.9422 82.7802 75.046 84.1555 72.5628C85.5309 70.0798 84.3182 69.2844 84.3126 69.8705Z" fill="#541509"/>
<path d="M62.5896 82.4036L61.731 83.2961L87.8549 85.1672L87.8438 84.6948L62.5896 82.4036Z" fill="#361509"/>
<path d="M61.2385 130.659L65.2683 140.955L63.8277 143.063C63.5699 143.439 63.6274 143.916 63.966 144.219L65.8371 145.897C66.0639 146.101 66.4578 145.995 66.5286 145.708C66.8628 144.38 67.582 141.506 67.572 141.431L65.4022 129.916L61.2385 130.659Z" fill="#541509"/>
<path d="M58.8251 53.6918C57.0292 53.9874 54.2232 52.5335 54.2232 52.5335L54.179 53.5824C54.179 53.5824 56.9075 55.3329 60.0853 54.5118C62.3901 53.9166 62.4255 52.9938 62.4255 52.9938L62.0659 52.0243C62.0659 52.0243 61.7661 53.2072 58.8251 53.6918Z" fill="#EEB35B"/>
</svg>
